<svg id="Grupo_111297" data-name="Grupo 111297" xmlns="http://www.w3.org/2000/svg" xmlns:xlink="http://www.w3.org/1999/xlink" width="100" height="99.89" viewBox="0 0 100 99.89">
  <defs>
    <clipPath id="clip-path">
      <rect id="Rectángulo_37241" data-name="Rectángulo 37241" width="100" height="99.89" fill="none"/>
    </clipPath>
  </defs>
  <g id="Grupo_111297-2" data-name="Grupo 111297" clip-path="url(#clip-path)">
    <path id="Trazado_105499" data-name="Trazado 105499" d="M67.795,76.359c-.227,2.844-.224,2.835,2.306,3.6a24.437,24.437,0,0,1,6.759,3.007,13,13,0,0,1,1.579,1.24c2.917,2.713,2.912,6.146-.036,8.828a21.031,21.031,0,0,1-8.357,4.219,65.4,65.4,0,0,1-14.939,2.472A78.6,78.6,0,0,1,34,98.281a34.688,34.688,0,0,1-9.469-3.218,11.835,11.835,0,0,1-3.91-3.1,5.181,5.181,0,0,1-.083-6.594,12.839,12.839,0,0,1,5.106-3.8,29.8,29.8,0,0,1,5.864-2.045c.546-.13.863-.327.792-.984a21.93,21.93,0,0,1-.016-2.223,18.318,18.318,0,0,1-8,3.865A18.03,18.03,0,0,1,5.095,71.646,35.123,35.123,0,0,1,.079,53.67a27.78,27.78,0,0,1,.159-5.923,6.935,6.935,0,0,1,5.412-5.586c.722-.188.874-.418.871-1.1-.025-6.846-.016-13.692-.015-20.538,0-2.078.815-3.5,2.432-4.116a3.927,3.927,0,0,1,4.55,1.183c.37.389.756.762,1.137,1.141a5.1,5.1,0,0,1,1.553,3.794c-.014,5.671-.04,11.343.011,17.014a5.183,5.183,0,0,1-2.726,5,1.267,1.267,0,0,0-.709,1.727,5.236,5.236,0,0,1-1.9,5.566c-.244.213-.674.287-.394.839,1.949,3.84,3.861,7.7,5.8,11.588,1.4-1.038,2.712-2.076,4.088-3.026a44.513,44.513,0,0,1,20.049-7.693,2.721,2.721,0,0,0,2.578-3.087c0-.367-.211-.44-.455-.557a17.6,17.6,0,0,1-9.394-10.722.612.612,0,0,0-.7-.507,13.513,13.513,0,0,1-2.51-.066,4.621,4.621,0,0,1-3.907-3.581A4.457,4.457,0,0,1,27.7,30.1c.617-.484.547-.8.238-1.371a13.54,13.54,0,0,1-2.1-6.522,10.212,10.212,0,0,1,4.735-8.919.892.892,0,0,0,.435-1.246,6.767,6.767,0,0,1,6.3-8.806c2.18-.048,4.363-.025,6.544,0A2.525,2.525,0,0,0,45.352,2.8,15.926,15.926,0,0,1,66.784,5.945a1.363,1.363,0,0,0,1.1.52,9.283,9.283,0,0,1,8.789,6.086c1.577,3.932.685,7.5-2.28,10.517a2.007,2.007,0,0,0-.565,1.13,16.293,16.293,0,0,1-1.665,4.82c-.224.426-.316.674.154,1.069a4.687,4.687,0,0,1,1.559,5.407A4.863,4.863,0,0,1,69.1,38.671c-1.961.014-1.949.019-2.694,1.812a17.431,17.431,0,0,1-8.652,9.26c-.636.312-.684.609-.613,1.289.215,2.05,1.517,2.37,3.251,2.618A44.516,44.516,0,0,1,81.278,62.4c.668.507,1.34,1.01,1.986,1.543.324.268.5.311.717-.126q2.737-5.532,5.517-11.044c.221-.437.1-.6-.243-.88a5.492,5.492,0,0,1,.547-9.166.879.879,0,0,0,.49-.868c-.03-.905-.043-1.814,0-2.717.027-.506-.182-.661-.625-.807a8,8,0,0,1-5.832-8.085c0-1.779.016-3.558-.011-5.336-.008-.519.057-.752.681-.76,2.553-.035,2.553-.061,2.553,2.5,0,2.37,0,2.336,2.385,2.37.74.011.887-.225.851-.9-.058-1.071.01-2.148-.026-3.221-.018-.532.082-.743.691-.751,2.544-.034,2.544-.058,2.544,2.511,0,2.364,0,2.343,2.394,2.354.62,0,.886-.1.844-.8-.066-1.1.01-2.215-.029-3.321-.019-.545.107-.733.7-.741,2.535-.032,2.559-.054,2.526,2.519A29.994,29.994,0,0,1,99.8,32a7.782,7.782,0,0,1-5.543,6.289c-.544.18-.826.372-.771,1.007a9.754,9.754,0,0,0,.077,2.394c.277.747,1.325.5,1.992.826a6.945,6.945,0,0,1,4.328,5.973c.353,6.1-.047,12.137-2.387,17.892-1.526,3.753-3.349,7.316-6.56,9.964a17.99,17.99,0,0,1-22.5.519c-.184-.139-.364-.284-.642-.5m-.89,6.225c.066-.06.055-.1-.034-.115-.006,0-.03.047-.024.053a.37.37,0,0,0,.075.052,3.834,3.834,0,0,0,1.5,2.644,6.149,6.149,0,0,1,1.815,7.907c-.109.217-.214.435-.4.811a19.558,19.558,0,0,0,5.75-2.736c2.385-1.769,2.371-3.4-.031-5.184A19.55,19.55,0,0,0,69.5,83.177a6.237,6.237,0,0,0-2.592-.593m-31.4-3.967a21.185,21.185,0,0,1,2.016-1.3c8.884-4.333,17.623-4.637,26.129,1,.232.154.482.321.738.176.233-.132.11-.425.11-.644q.012-3.927,0-7.854a7.09,7.09,0,0,1,1.03-3.732c.9-1.5.877-1.464,2.146-.285.757.7,1.38,1.307.442,2.316a1.5,1.5,0,0,0-.321.936c-.01.972-.467,2.058.256,2.892a14.84,14.84,0,0,0,20.072,2.322c3.57-2.6,5.267-6.413,6.764-10.363.206-.544-.149-.6-.529-.707-1.644-.458-3.3-.891-4.919-1.42-.653-.213-.93-.09-1.224.522-1.116,2.324-2.294,4.619-3.447,6.925-1.189,2.377-1.181,2.364-3.517,1.019-.392-.226-.393-.4-.23-.769.37-.836,1.321-1.7,1-2.481-.31-.755-1.385-1.2-2.124-1.775-.079-.062-.158-.125-.238-.186a42.337,42.337,0,0,0-13.781-7.064c-.607-.181-.832-.09-.982.5-.165.647-.4,1.277-.621,1.909a15.026,15.026,0,0,1-23.5,7.165,16.312,16.312,0,0,1-5.632-8.935c-.2-.731-.474-.816-1.176-.6a45.139,45.139,0,0,0-15.437,8.4c-.593.48-.765.788-.374,1.518,1.112,2.077,1.06,2.077-1.078,3.162-.59.3-.833.224-1.126-.378-1.375-2.831-2.812-5.632-4.2-8.458-.244-.5-.452-.707-1.058-.512q-2.484.8-5.016,1.446c-.641.163-.7.387-.488.959A36.538,36.538,0,0,0,7.685,69.7a14.816,14.816,0,0,0,23.393,3.338,3.662,3.662,0,0,0,.834-4.574c-.758-1.236-.393-1.867.537-2.57a2,2,0,0,0,.426-.427c.442-.623.756-.388,1.123.1a7.367,7.367,0,0,1,1.513,4.59c-.013,2.774,0,5.548,0,8.462m29-47.922c0-1.409-.015-2.819.008-4.228.008-.47-.068-.673-.626-.729a6.065,6.065,0,0,1-4.483-2.56,1.389,1.389,0,0,0-1.325-.63c-2.986.026-5.973-.024-8.959.025a6.821,6.821,0,0,1-5.149-1.832.626.626,0,0,0-.873-.11,15.288,15.288,0,0,1-7.011,1.9c-.632.017-.585.341-.584.762.008,3.691,0,7.382.017,11.072a10.99,10.99,0,0,0,.149,1.5,14.481,14.481,0,0,0,28.283,1.92,26.046,26.046,0,0,0,.553-7.09M41.323,6.453c-1.309,0-2.619-.036-3.927.008a3.588,3.588,0,0,0-3.357,4.567c.159.509.368.706.926.616,1.878-.305,1.88-.287,2.187,1.553.038.231.1.459.146.688.086.4-.038.631-.476.693-.629.089-1.254.211-1.879.328a7.2,7.2,0,0,0-5.714,8.552,23.021,23.021,0,0,0,2.113,4.873c.13.283.207.72.655.641.515-.09.271-.543.275-.825.023-1.812,0-3.625.015-5.437a3.2,3.2,0,0,1,3.341-3.373,13.625,13.625,0,0,0,5.524-1.345,1.214,1.214,0,0,0,.834-1.371,6.381,6.381,0,0,1,4.269-6.58A6.742,6.742,0,0,1,54,12.585c.8,1.126.8,1.126-.456,1.759a6.46,6.46,0,0,0-.714.369c-.652.438-1.084.458-1.581-.335a3.362,3.362,0,0,0-4.091-1.234,3.222,3.222,0,0,0,1.471,6.189c2.82.009,5.639-.018,8.458.017.684.009.942-.117,1.05-.887A6.43,6.43,0,0,1,70.616,17.3c.647,1.97.6,2.036-1.465,2.036a1.791,1.791,0,0,0-.3,0c-.734.127-1.092-.1-1.3-.9a3.145,3.145,0,0,0-3.646-2.277,3.288,3.288,0,0,0-2.612,3.455,3.25,3.25,0,0,0,3.172,2.934c1.174.029,2.35.033,3.524,0a6.435,6.435,0,0,0,3.762-11.437c-2.442-1.933-6.286-1.9-9.354.017-.59.37-1.039,1.3-1.774,1.023-.632-.238-1.056-1-1.608-1.487-.451-.4-.377-.688.046-1.045A13.965,13.965,0,0,1,62.453,7.48c1.029-.454,1.028-.456.149-1.22A12.334,12.334,0,0,0,48.251,4.886a10.1,10.1,0,0,1-6.424,1.566c-.167-.014-.335,0-.5,0M48.51,77.329c-2.378-.031-6.013,1.063-9.455,2.824a6.538,6.538,0,0,0-3.394,7.2c.618,3.01,3.183,5.275,6.643,5.9a41.923,41.923,0,0,0,5.622.2A1,1,0,0,0,49,92.824a4.71,4.71,0,0,1,7.574-1.2c.31.289.523.533,1.019.278s.54-.539.507-1.034a6.309,6.309,0,0,1,5.036-6.877c.655-.164.646-.387.369-.875a8.1,8.1,0,0,0-3.484-3.379A24.626,24.626,0,0,0,48.51,77.329m1.847-9.67a11.687,11.687,0,0,0,4.6-1.1C58.59,64.867,60.6,61.893,61.7,58.15c.23-.782.124-1.018-.672-1.152a14.5,14.5,0,0,1-4.112-.832c-.354-.172-.564.081-.815.217a12.1,12.1,0,0,1-12.175.006c-.227-.122-.443-.4-.718-.264-1.457.7-3.071.615-4.6.951-.51.112-.548.329-.377.766.315.809.55,1.65.873,2.455a11.881,11.881,0,0,0,11.253,7.361M32.852,82.5a24.719,24.719,0,0,0-8.1,3.284c-2.825,1.945-2.85,3.773.009,5.651,4.4,2.894,9.481,3.7,14.619,4.5-5.718-2.725-8.175-7-6.529-13.432M9.732,31.072v.5c0,3.389,0,6.779,0,10.168,0,.509.017,1.013.695.923a3.6,3.6,0,0,0,2.528-2.991c0-5.235-.065-10.472.039-15.7a4.344,4.344,0,0,0-1.7-4.017c-.338-.246-.561-.749-1.086-.558-.574.209-.47.743-.47,1.206q0,5.235,0,10.47M3.288,52.324A36.134,36.134,0,0,0,3.9,59.63c.122.7.331.855,1.034.619,1.423-.477,2.887-.835,4.329-1.256.222-.065.6-.047.546-.393-.049-.315-.206-.629-.663-.6-.6.032-1.209-.032-1.808.018-.628.052-.873-.112-.846-.8a36.413,36.413,0,0,0-.008-4.42c-.128-1.552.172-2.607,1.837-3.186a2.147,2.147,0,0,0,1.255-2.9,2.436,2.436,0,0,0-2.818-1.556,4.1,4.1,0,0,0-3.463,3.97c-.025.971,0,1.943,0,3.2m93.433-.044c0-1.176.033-2.216-.007-3.253a4.064,4.064,0,0,0-3.953-3.908,2.394,2.394,0,0,0-2.393,1.77,2.32,2.32,0,0,0,1.13,2.655,8.087,8.087,0,0,0,1.254.626,1.057,1.057,0,0,1,.769,1.2c-.055,1.4-.011,2.814-.019,4.221,0,.765.251,1.751-.127,2.237-.4.518-1.437.116-2.192.176a1.426,1.426,0,0,1-.3,0c-.451-.062-.617.266-.673.588-.063.362.326.331.537.393,1.442.426,2.908.775,4.329,1.26.8.273.931-.053,1.049-.707a35.18,35.18,0,0,0,.6-7.256M67.735,90.221a3.229,3.229,0,1,0-3.277,3.233,3.251,3.251,0,0,0,3.277-3.233M49.958,54.751a10.819,10.819,0,0,0,2.57-.376c2-.556,2.035-.644,1.522-2.608-.129-.493-.283-.651-.813-.54a15.812,15.812,0,0,1-5.58.159c-1.515-.221-1.453-.169-1.943,1.352-.247.766.035,1,.638,1.244a10.736,10.736,0,0,0,3.605.769M96.4,32.291a3.974,3.974,0,0,0-.419-.059c-2.61,0-5.22.022-7.829-.019-.771-.012-.775.231-.44.771a4.667,4.667,0,0,0,4.511,2.435A4.75,4.75,0,0,0,96.4,32.291M32.286,34.017c-.016-1.8-.016-1.8-1.2-1.791-1.266.012-1.995.585-2.012,1.583-.019,1.1.773,1.57,2.357,1.66,1.512.086.632-1,.859-1.453m35.442-.079c.349.405-.773,1.56.777,1.523,1.627-.039,2.4-.487,2.438-1.571.036-1.03-.725-1.653-2.033-1.663-1.17-.009-1.17-.009-1.183,1.711m-14.466,62.7a1.6,1.6,0,0,0,1.581-1.6,1.614,1.614,0,1,0-3.228.068,1.6,1.6,0,0,0,1.647,1.532M70.087,25.61c-2.36.057-2.36.057-2.357,2.257a4.369,4.369,0,0,0,0,.5c.028.238-.117.565.3.624a.609.609,0,0,0,.664-.329,11.522,11.522,0,0,0,1.39-3.052M61.2,95.913c0-.085.007-.17.011-.255-.838-.024-.958-1.445-2.033-.966-.64.286-1.414.519-1.191,1.6l3.212-.375" transform="translate(0 0)" fill="#020202"/>
    <path id="Trazado_105500" data-name="Trazado 105500" d="M49.336,236.3c0-2.914-.01-5.688,0-8.462a7.364,7.364,0,0,0-1.513-4.59c-.367-.489-.681-.724-1.123-.1a2.013,2.013,0,0,1-.426.427c-.93.7-1.295,1.334-.537,2.57a3.662,3.662,0,0,1-.835,4.574,14.817,14.817,0,0,1-23.393-3.338,36.607,36.607,0,0,1-2.483-5.372c-.211-.572-.154-.8.488-.959q2.529-.642,5.016-1.446c.606-.195.814.015,1.058.512,1.387,2.826,2.824,5.626,4.2,8.458.292.6.535.678,1.125.378,2.138-1.085,2.19-1.085,1.078-3.162-.391-.73-.219-1.038.374-1.519a45.143,45.143,0,0,1,15.437-8.4c.7-.212.972-.127,1.176.6a16.311,16.311,0,0,0,5.632,8.935,15.026,15.026,0,0,0,23.5-7.164c.22-.632.457-1.262.621-1.909.15-.59.375-.681.982-.5A42.326,42.326,0,0,1,93.494,222.9c.08.061.159.124.238.186.739.579,1.813,1.02,2.124,1.775.322.785-.628,1.644-1,2.481-.162.367-.161.543.23.769,2.336,1.345,2.328,1.358,3.517-1.019,1.154-2.306,2.331-4.6,3.447-6.925.294-.612.571-.734,1.224-.522,1.622.528,3.275.962,4.919,1.419.379.106.735.164.529.708-1.5,3.95-3.193,7.765-6.764,10.362a14.839,14.839,0,0,1-20.072-2.322c-.723-.834-.266-1.92-.256-2.892a1.5,1.5,0,0,1,.321-.936c.938-1.009.315-1.614-.442-2.316-1.27-1.179-1.243-1.215-2.146.285a7.09,7.09,0,0,0-1.03,3.732q0,3.927,0,7.854c0,.219.123.512-.11.644-.255.145-.506-.022-.738-.176-8.5-5.639-17.244-5.335-26.129-1a21.172,21.172,0,0,0-2.016,1.3" transform="translate(-13.828 -157.686)" fill="#22afd6"/>
    <path id="Trazado_105501" data-name="Trazado 105501" d="M160.916,86.374a26.046,26.046,0,0,1-.553,7.09,14.481,14.481,0,0,1-28.284-1.92,11.091,11.091,0,0,1-.149-1.5c-.015-3.691-.009-7.382-.017-11.072,0-.42-.047-.745.585-.762a15.289,15.289,0,0,0,7.011-1.9.626.626,0,0,1,.873.11,6.822,6.822,0,0,0,5.149,1.832c2.985-.05,5.973,0,8.958-.025a1.389,1.389,0,0,1,1.325.63,6.065,6.065,0,0,0,4.482,2.56c.558.056.634.258.626.729-.023,1.409-.008,2.818-.008,4.228m-4.215,8.35c.01-.386-.324-.419-.536-.529-1.067-.554-2.159-1.061-3.218-1.631-.477-.256-.744-.2-1.036.271-.6.968-1.221,1.923-1.893,2.84a4.365,4.365,0,0,1-7.19.029c-.24-.321-.448-.666-.676-1-.529-.771-.914-1.941-1.631-2.2-.794-.292-1.71.659-2.569,1.07-1.938.927-1.9.935-.961,2.922.335.711.653,1.031,1.354.473.8-.637,1.229-.329,1.777.453a7.529,7.529,0,0,0,12.566.018c.586-.831,1.042-1.047,1.876-.458.234.166.633.569.855.225a26.24,26.24,0,0,0,1.28-2.48m-13.589-6.819a3.944,3.944,0,0,1,.7.006c.876.161,1.134-.237,1-1.038a2.531,2.531,0,0,1,0-.4,4.837,4.837,0,1,0-9.667.037c-.011,1.4-.011,1.4,1.33,1.394.6,0,1.331.163,1.751-.121s.076-1.059.151-1.614a1.555,1.555,0,0,1,1.321-1.447,1.523,1.523,0,0,1,1.728.907,2.06,2.06,0,0,1,.149,1.279c-.127.869.229,1.143,1.04,1a2.977,2.977,0,0,1,.5,0m12.985,0c1.635,0,1.635,0,1.6-1.631,0-.067,0-.134,0-.2a4.833,4.833,0,0,0-9.656.03c-.076,1.8-.076,1.8,1.723,1.8,1.444,0,1.444,0,1.5-1.432a1.636,1.636,0,0,1,1.624-1.785c.946.009,1.562.709,1.6,1.814.044,1.4.044,1.4,1.424,1.4h.2" transform="translate(-96.41 -55.678)" fill="#edceb2"/>
    <path id="Trazado_105502" data-name="Trazado 105502" d="M120.289,15.115c.168,0,.337-.013.5,0a10.1,10.1,0,0,0,6.424-1.566,12.334,12.334,0,0,1,14.352,1.374c.879.764.88.766-.149,1.22a13.966,13.966,0,0,0-3.392,2.139c-.423.358-.5.646-.046,1.045.552.488.976,1.249,1.608,1.487.736.277,1.184-.653,1.774-1.023,3.068-1.922,6.912-1.95,9.354-.017a6.435,6.435,0,0,1-3.762,11.437c-1.174.037-2.35.033-3.524,0a3.25,3.25,0,0,1-3.172-2.934,3.288,3.288,0,0,1,2.612-3.455,3.145,3.145,0,0,1,3.646,2.277c.2.8.564,1.029,1.3.9a1.79,1.79,0,0,1,.3,0c2.065,0,2.112-.065,1.465-2.036A6.43,6.43,0,0,0,137.1,27.128c-.108.769-.366.9-1.05.887-2.819-.035-5.639-.008-8.458-.017a3.222,3.222,0,0,1-1.471-6.189,3.362,3.362,0,0,1,4.091,1.234c.5.793.929.774,1.581.335a6.489,6.489,0,0,1,.715-.369c1.258-.633,1.258-.633.456-1.759a6.742,6.742,0,0,0-7.74-2.543,6.381,6.381,0,0,0-4.269,6.58,1.214,1.214,0,0,1-.834,1.371A13.622,13.622,0,0,1,114.594,28a3.2,3.2,0,0,0-3.341,3.373c-.015,1.812.008,3.625-.015,5.437,0,.282.241.735-.275.825-.448.079-.525-.359-.655-.641a23.019,23.019,0,0,1-2.113-4.873,7.2,7.2,0,0,1,5.714-8.552c.625-.117,1.25-.239,1.879-.328.438-.062.562-.294.476-.693-.049-.229-.107-.457-.146-.688-.307-1.84-.309-1.858-2.187-1.553-.558.091-.767-.106-.926-.616a3.588,3.588,0,0,1,3.357-4.567c1.307-.044,2.618-.008,3.927-.009" transform="translate(-78.965 -8.663)" fill="#636363"/>
    <path id="Trazado_105503" data-name="Trazado 105503" d="M144.967,287.316a24.625,24.625,0,0,1,11.513,2.405,8.1,8.1,0,0,1,3.484,3.379c.277.488.286.711-.369.875a6.309,6.309,0,0,0-5.036,6.877c.033.495-.022.784-.507,1.034s-.709.011-1.019-.278a4.71,4.71,0,0,0-7.573,1.2,1,1,0,0,1-1.076.631,41.882,41.882,0,0,1-5.622-.2c-3.461-.628-6.026-2.893-6.643-5.9a6.538,6.538,0,0,1,3.394-7.2c3.442-1.761,7.076-2.855,9.455-2.824m7.375,8.774a1.237,1.237,0,0,0-.5-.832q-2.086-2.1-4.181-4.186c-1.721-1.722-1.7-1.7-3.439.06-.446.453-.41.688.022,1.107,1.607,1.559,3.176,3.158,4.759,4.742,1.143,1.143,1.136,1.135,2.294,0,.357-.35.763-.649,1.05-.891m-10.269,3.586c.176-.15.331-.266.467-.4.454-.447.882-.923,1.359-1.343.393-.346.405-.591.013-.961-.9-.85-1.765-1.743-2.643-2.62-1.792-1.79-1.778-1.778-3.517.026-.389.4-.421.636-.005,1.037,1.3,1.256,2.568,2.552,3.85,3.83.139.139.291.265.475.431" transform="translate(-96.457 -209.987)" fill="#d09e6b"/>
    <path id="Trazado_105504" data-name="Trazado 105504" d="M153.927,219.973a11.881,11.881,0,0,1-11.253-7.361c-.323-.806-.557-1.646-.873-2.455-.17-.437-.132-.654.377-.766,1.529-.337,3.143-.254,4.6-.951.275-.132.491.142.718.264a12.1,12.1,0,0,0,12.175-.007c.252-.136.462-.389.815-.217a14.5,14.5,0,0,0,4.112.832c.8.134.9.37.671,1.152-1.1,3.742-3.11,6.717-6.745,8.408a11.684,11.684,0,0,1-4.6,1.1m-.368-3.195a9.5,9.5,0,0,0,6.01-2.173c1.741-1.416,1.7-1.385.212-2.979-.659-.706-1.022-.8-1.765-.038a6.106,6.106,0,0,1-8.207.669c-.575-.428-.929-1.5-1.716-1.209-.686.252-1.149,1.084-1.74,1.627-.341.313-.257.513.024.811a9.849,9.849,0,0,0,7.181,3.293" transform="translate(-103.57 -152.314)" fill="#22afd6"/>
    <path id="Trazado_105505" data-name="Trazado 105505" d="M94.293,306.513c-1.646,6.435.81,10.707,6.529,13.432-5.138-.8-10.216-1.6-14.619-4.5-2.859-1.879-2.834-3.706-.009-5.651a24.719,24.719,0,0,1,8.1-3.284" transform="translate(-61.441 -224.018)" fill="#edceb2"/>
    <path id="Trazado_105506" data-name="Trazado 105506" d="M36.142,83.628q0-5.235,0-10.47c0-.463-.1-1,.47-1.206.524-.191.748.312,1.086.558a4.345,4.345,0,0,1,1.7,4.017c-.1,5.233-.037,10.47-.039,15.7a3.6,3.6,0,0,1-2.528,2.991c-.677.09-.7-.414-.695-.923.009-3.389,0-6.779,0-10.168v-.5" transform="translate(-26.41 -52.556)" fill="#636363"/>
    <path id="Trazado_105507" data-name="Trazado 105507" d="M12.18,174.824c0-1.261-.021-2.233,0-3.2a4.1,4.1,0,0,1,3.463-3.97,2.436,2.436,0,0,1,2.818,1.556,2.147,2.147,0,0,1-1.255,2.9c-1.665.579-1.965,1.634-1.837,3.186a36.467,36.467,0,0,1,.008,4.42c-.027.692.217.856.846.8.6-.05,1.207.014,1.808-.018.458-.024.614.29.663.6.054.346-.325.328-.546.393-1.443.42-2.906.779-4.329,1.256-.7.236-.912.077-1.034-.619a36.134,36.134,0,0,1-.609-7.306" transform="translate(-8.892 -122.5)" fill="#edceb2"/>
    <path id="Trazado_105508" data-name="Trazado 105508" d="M341.67,174.8a35.24,35.24,0,0,1-.6,7.256c-.118.654-.252.98-1.049.707-1.421-.486-2.887-.835-4.328-1.26-.211-.062-.6-.031-.537-.393.056-.321.223-.649.673-.588a1.408,1.408,0,0,0,.3,0c.755-.06,1.789.342,2.193-.176.377-.485.122-1.471.127-2.237.008-1.407-.036-2.816.02-4.221a1.057,1.057,0,0,0-.769-1.2,8.051,8.051,0,0,1-1.254-.627,2.319,2.319,0,0,1-1.13-2.654,2.393,2.393,0,0,1,2.393-1.77,4.064,4.064,0,0,1,3.953,3.908c.04,1.037.007,2.077.007,3.253" transform="translate(-244.948 -122.522)" fill="#edceb2"/>
    <path id="Trazado_105509" data-name="Trazado 105509" d="M248.585,306.793a6.228,6.228,0,0,1,2.593.593,19.548,19.548,0,0,1,6.064,2.839c2.4,1.784,2.417,3.415.031,5.184a19.564,19.564,0,0,1-5.75,2.736c.184-.375.289-.594.4-.811a6.148,6.148,0,0,0-1.815-7.906,3.836,3.836,0,0,1-1.5-2.644Z" transform="translate(-181.68 -224.209)" fill="#edceb2"/>
    <path id="Trazado_105510" data-name="Trazado 105510" d="M234.134,326.455a3.229,3.229,0,1,1-3.182-3.226,3.253,3.253,0,0,1,3.182,3.226" transform="translate(-166.398 -236.235)" fill="#d09e6b"/>
    <path id="Trazado_105511" data-name="Trazado 105511" d="M173.854,193.768a10.73,10.73,0,0,1-3.6-.769c-.6-.248-.885-.478-.638-1.244.49-1.521.428-1.574,1.943-1.352a15.812,15.812,0,0,0,5.58-.159c.529-.111.684.047.813.54.514,1.964.48,2.051-1.522,2.608a10.82,10.82,0,0,1-2.571.376" transform="translate(-123.897 -139.017)" fill="#edceb2"/>
    <path id="Trazado_105512" data-name="Trazado 105512" d="M334,119.764a4.75,4.75,0,0,1-4.177,3.128,4.667,4.667,0,0,1-4.511-2.435c-.336-.54-.332-.783.44-.771,2.609.04,5.219.016,7.829.018a3.965,3.965,0,0,1,.42.059" transform="translate(-237.604 -87.474)" fill="#636363"/>
    <path id="Trazado_105513" data-name="Trazado 105513" d="M111.225,121.525c-.227.456.653,1.538-.859,1.453-1.585-.09-2.377-.56-2.357-1.66.018-1,.746-1.572,2.012-1.583,1.188-.011,1.188-.011,1.2,1.791" transform="translate(-78.939 -87.508)" fill="#edceb2"/>
    <path id="Trazado_105514" data-name="Trazado 105514" d="M251.455,121.447c.014-1.721.014-1.721,1.183-1.711,1.307.011,2.068.633,2.033,1.663-.038,1.085-.811,1.533-2.438,1.572-1.55.037-.428-1.118-.777-1.523" transform="translate(-183.727 -87.509)" fill="#edceb2"/>
    <path id="Trazado_105515" data-name="Trazado 105515" d="M193.422,350.378a1.6,1.6,0,0,1-1.647-1.532,1.614,1.614,0,1,1,3.228-.068,1.6,1.6,0,0,1-1.581,1.6" transform="translate(-140.16 -253.743)" fill="#d09e6b"/>
    <path id="Trazado_105516" data-name="Trazado 105516" d="M253.993,95.153a11.51,11.51,0,0,1-1.39,3.052.609.609,0,0,1-.664.329c-.417-.058-.272-.386-.3-.624a4.315,4.315,0,0,1,0-.5c0-2.2,0-2.2,2.357-2.257" transform="translate(-183.906 -69.543)" fill="#646c76"/>
    <path id="Trazado_105517" data-name="Trazado 105517" d="M218.566,352.785l-3.212.375c-.223-1.077.55-1.31,1.191-1.6,1.075-.479,1.194.942,2.033.966,0,.085-.007.17-.011.255" transform="translate(-157.364 -256.871)" fill="#edceb2"/>
    <path id="Trazado_105518" data-name="Trazado 105518" d="M248.441,306.52a.372.372,0,0,1-.075-.052c-.005-.006.019-.054.024-.053.09.014.1.055.034.115l.016-.01" transform="translate(-181.52 -223.946)" fill="#edceb2"/>
    <path id="Trazado_105519" data-name="Trazado 105519" d="M168.8,138.8a26.2,26.2,0,0,1-1.28,2.48c-.222.344-.621-.059-.855-.224-.834-.589-1.29-.373-1.876.458a7.529,7.529,0,0,1-12.566-.019c-.548-.782-.978-1.089-1.778-.453-.7.558-1.019.238-1.354-.473-.935-1.987-.978-1.995.961-2.922.859-.411,1.775-1.362,2.569-1.07.717.263,1.1,1.433,1.631,2.2.227.331.436.676.676,1a4.365,4.365,0,0,0,7.19-.029c.672-.917,1.3-1.872,1.892-2.84.291-.473.559-.527,1.036-.271,1.059.569,2.15,1.076,3.217,1.631.212.11.546.143.536.529" transform="translate(-108.506 -99.751)" fill="#020202"/>
    <path id="Trazado_105520" data-name="Trazado 105520" d="M151.868,102.244a2.974,2.974,0,0,0-.5,0c-.811.141-1.167-.133-1.04-1a2.062,2.062,0,0,0-.149-1.279,1.523,1.523,0,0,0-1.728-.907,1.555,1.555,0,0,0-1.321,1.447c-.075.555.26,1.336-.151,1.614s-1.154.116-1.751.121c-1.34.009-1.34,0-1.33-1.394a4.837,4.837,0,1,1,9.667-.037,2.527,2.527,0,0,0,0,.4c.139.8-.12,1.2-1,1.038a3.947,3.947,0,0,0-.7-.006" transform="translate(-105.166 -70.017)" fill="#020202"/>
    <path id="Trazado_105521" data-name="Trazado 105521" d="M199.8,102.243h-.2c-1.38,0-1.38,0-1.424-1.4-.035-1.105-.65-1.8-1.6-1.814a1.636,1.636,0,0,0-1.624,1.785c-.051,1.432-.051,1.432-1.5,1.432-1.8,0-1.8,0-1.723-1.8a4.833,4.833,0,0,1,9.656-.03c0,.067,0,.134,0,.2.038,1.631.038,1.631-1.6,1.631" transform="translate(-140.117 -70.017)" fill="#020202"/>
    <path id="Trazado_105522" data-name="Trazado 105522" d="M184.712,302.823c-.287.242-.693.542-1.05.891-1.158,1.135-1.151,1.143-2.294,0-1.583-1.584-3.152-3.183-4.759-4.742-.431-.418-.468-.653-.022-1.107,1.737-1.764,1.718-1.782,3.439-.06q2.092,2.092,4.181,4.186a1.237,1.237,0,0,1,.5.832" transform="translate(-128.828 -216.721)" fill="#020202"/>
    <path id="Trazado_105523" data-name="Trazado 105523" d="M156.928,315.16c-.184-.166-.336-.292-.475-.431-1.282-1.278-2.546-2.575-3.85-3.83-.416-.4-.384-.633.005-1.037,1.739-1.8,1.725-1.816,3.517-.026.877.877,1.74,1.77,2.643,2.62.392.37.38.615-.013.961-.477.42-.9.9-1.359,1.343-.137.134-.291.25-.468.4" transform="translate(-111.312 -225.471)" fill="#020202"/>
    <path id="Trazado_105524" data-name="Trazado 105524" d="M165.562,223.824a9.849,9.849,0,0,1-7.181-3.293c-.281-.3-.365-.5-.024-.811.591-.543,1.055-1.374,1.74-1.627.787-.29,1.141.781,1.716,1.209a6.106,6.106,0,0,0,8.207-.669c.743-.763,1.106-.667,1.765.038,1.49,1.594,1.528,1.563-.212,2.979a9.5,9.5,0,0,1-6.01,2.173" transform="translate(-115.574 -159.359)" fill="#020202"/>
  </g>
</svg>
