<svg id="Grupo_111422" data-name="Grupo 111422" xmlns="http://www.w3.org/2000/svg" xmlns:xlink="http://www.w3.org/1999/xlink" width="177.215" height="122.873" viewBox="0 0 177.215 122.873">
  <defs>
    <clipPath id="clip-path">
      <rect id="Rectángulo_37336" data-name="Rectángulo 37336" width="177.215" height="122.873" fill="none"/>
    </clipPath>
  </defs>
  <g id="Grupo_111421" data-name="Grupo 111421" clip-path="url(#clip-path)">
    <path id="Trazado_105826" data-name="Trazado 105826" d="M326.145,0c.612.457,1.4.377,2.071.691,2.931,1.367,4.867,3.5,5.108,6.814.188,2.579-1.4,4.308-3.946,4.691-5.728.862-9.417,4.4-11.9,9.354-1.01,2.015-.653,2.72,1.244,3.915a5.892,5.892,0,0,1,2.884,4.462,13.689,13.689,0,0,1,.183,2.267,3.441,3.441,0,0,0,2.4,3.593,25.889,25.889,0,0,0,6.716,1.654,22.937,22.937,0,0,1,5.395,1.032,14.041,14.041,0,0,1,6.33,5.489,1.975,1.975,0,0,0,1.635.983c2.39.171,4.789.308,7.157.649,5.612.809,8.16,5.194,6.213,10.512a13.056,13.056,0,0,1-1.622,3.189,2.437,2.437,0,0,0-.241,2.575,24.543,24.543,0,0,1,1.686,4.591,4.343,4.343,0,0,1-.507,3.232,1.833,1.833,0,0,0-.134,1.79,63.16,63.16,0,0,1,2.237,6.047c1.349,5.489-3.941,7.989-7.478,6.783a20.685,20.685,0,0,1-4.389-2.41,5.9,5.9,0,0,0-2.032-.987c-.733-.138-1.157-.032-.809.925a8.553,8.553,0,0,1,.58,4.923,5.234,5.234,0,0,1-3.8,4.2c-.229.068-.455.147-.682.222-1.312.434-1.465.757-.879,2a17.869,17.869,0,0,1,1.548,4.385,9.013,9.013,0,0,1-.326,5.3,18.606,18.606,0,0,0-1.1,9.176,20.212,20.212,0,0,1-.1,5.379,6.431,6.431,0,0,1-6,5.428c-2.276.172-4.078-1.055-5.052-3.443-.787-1.931-1.037-4.011-1.647-5.992-.94-3.053-2-3.7-5.131-3.013a20.058,20.058,0,0,1-7.105.743,6.439,6.439,0,0,1-5.6-4.245,1.46,1.46,0,0,0-.966-.925,4.634,4.634,0,0,1-3.064-3.687,1.446,1.446,0,0,0-.951-1.207,4.289,4.289,0,0,1-2.428-3.219,2.289,2.289,0,0,0-1.159-1.557,44.078,44.078,0,0,0-9.946-4.342,1.291,1.291,0,0,0-1.416.26c-1.627,1.492-3.454,1.415-5.336.509a20.327,20.327,0,0,1-3.962-2.882,16.082,16.082,0,0,0-6.055-3.387c-2.946-.82-4.824-3.293-5.651-6.333a2.8,2.8,0,0,1,.525-2.506,2.6,2.6,0,0,0,.589-2.06,3.8,3.8,0,0,1,2.426-4.006,8.522,8.522,0,0,1,3.372-.744,3.007,3.007,0,0,0,2.6-1.448,10.48,10.48,0,0,0,1.759-7.053c-.177-1.937.113-2.439,1.847-3.306q23.269.009,46.539.018,11.036,0,22.071-.012c.353,0,.846.255,1.055-.266.626-1.56,1.773-2.847,2.305-4.457.746-2.254.109-3.437-2.223-3.917a36.285,36.285,0,0,0-5.607-.487c-2.96-.142-5.484-.875-7.133-3.741a7.637,7.637,0,0,0-6.329-3.762,29.252,29.252,0,0,1-9.971-2.358A7.79,7.79,0,0,1,317.1,33.8a21.382,21.382,0,0,1-.131-2.393,2.351,2.351,0,0,0-1.333-2.195,6.52,6.52,0,0,1-3.251-7.442,10.822,10.822,0,0,1,1.111-3.148c3.327-5.9,8.158-9.824,14.859-11.3-.559-1.9-2.557-2.916-4.891-2.427A13.886,13.886,0,0,0,317.154,8.4a15.585,15.585,0,0,1-3.885,2.557,72.984,72.984,0,0,1-10.756,3.64,2.775,2.775,0,0,0-2.205,2.175,19.253,19.253,0,0,1-3.534,6.878A5.591,5.591,0,0,1,293.832,26a2.186,2.186,0,0,0-1.478,1.192c-1.573,2.715-3.653,4.736-7,4.991a2.231,2.231,0,0,0-1.091.442,7.2,7.2,0,0,0-3.1,6.4,2.981,2.981,0,0,1-1.4,3.046c-2.056.4-3.11-.351-3.375-2.414-.661-5.16,3.156-11.273,7.846-12.086a5.537,5.537,0,0,0,4.228-3.235c.263-.491.528-.985.834-1.449.448-.68,1.041-1.454,1.817-1.445,1.722.02,2.246-1.243,2.959-2.349a15.522,15.522,0,0,0,1.831-4.264,6.249,6.249,0,0,1,4.466-4.555c3.384-1.04,6.811-1.954,10.089-3.321a12.655,12.655,0,0,0,3.549-2.169A18.189,18.189,0,0,1,322.663.18c.05-.009.081-.119.122-.181Zm-8.177,63.836c-10.838,0-21.677.013-32.515-.022-.98,0-1.246.271-1.326,1.243a13.944,13.944,0,0,1-2.739,7.307,7.376,7.376,0,0,1-5.875,3.23c-.9.029-1.667.055-1.322,1.4a3.143,3.143,0,0,1-.611,2.385c-.156.244-.546.469-.242.822.593.689,1.087,1.625,2.044,1.754,2.592.349,4.568,1.794,6.5,3.368,1.147.933,2.294,1.866,3.457,2.778.289.227.608.568.992.047,1-1.356,2.407-1.407,3.894-1.145a24.868,24.868,0,0,1,4.367,1.254,4.245,4.245,0,0,0,1.511.306q19.437-.017,38.874-.01a1.284,1.284,0,0,0,1.1-.3,5.952,5.952,0,0,1,3.12-1.679c1.033-.241,1.245-.895,1.011-1.792s-.55-1.752-.776-2.641c-.648-2.552.169-4.25,2.536-5.394a6.482,6.482,0,0,1,6.107.163c1.411.741,2.728,1.657,4.1,2.47.636.377,1.384.686,2.025.19.657-.508.116-1.208-.063-1.764-.646-2.011-1.717-3.869-2.189-5.945a4.681,4.681,0,0,1,.386-3.823,1.586,1.586,0,0,0,.086-1.765,6.616,6.616,0,0,1-.514-1.209c-.254-1.041-.871-1.254-1.909-1.25-10.678.047-21.356.029-32.034.029M304.582,93.353a4.561,4.561,0,0,1,1.579,2.837c.056.482.31.636.757.755,1.959.523,2.648,1.382,2.663,3.4.006.8.211,1.247,1.062,1.42a3.164,3.164,0,0,1,2.721,2.805,2.011,2.011,0,0,0,2.125,1.849,17.2,17.2,0,0,0,5.2-.694c5.507-1.282,9.184.842,10.782,6.293.515,1.759.948,3.543,1.394,5.322.2.809.669.764,1.241.444a1.576,1.576,0,0,0,.724-1.179,15.283,15.283,0,0,0,.075-4.18c-.235-3.4-.378-6.816,1.006-10.036a7.267,7.267,0,0,0-.262-6.239,9.293,9.293,0,0,1-.82-1.855c-.189-.888-.693-.958-1.449-.957q-13.73.032-27.461.014Z" transform="translate(-182.06 0.001)" fill="#020202"/>
    <path id="Trazado_105827" data-name="Trazado 105827" d="M304.657,52.176a2.981,2.981,0,0,0,1.4-3.046,7.2,7.2,0,0,1,3.1-6.4,2.226,2.226,0,0,1,1.091-.442c3.348-.255,5.429-2.276,7-4.991A2.186,2.186,0,0,1,318.72,36.1a5.592,5.592,0,0,0,2.942-2.348,19.253,19.253,0,0,0,3.534-6.878A2.775,2.775,0,0,1,327.4,24.7a73,73,0,0,0,10.756-3.64,15.59,15.59,0,0,0,3.885-2.557,13.88,13.88,0,0,1,6.313-3.513c2.335-.489,4.332.531,4.891,2.426-6.7,1.476-11.532,5.4-14.859,11.3a10.842,10.842,0,0,0-1.111,3.148,6.52,6.52,0,0,0,3.251,7.442,2.352,2.352,0,0,1,1.333,2.2,21.4,21.4,0,0,0,.131,2.393,7.789,7.789,0,0,0,4.837,6.238,29.242,29.242,0,0,0,9.971,2.358,7.636,7.636,0,0,1,6.329,3.762c1.649,2.866,4.173,3.6,7.133,3.742a36.2,36.2,0,0,1,5.607.487c2.332.48,2.969,1.663,2.223,3.917-.533,1.61-1.679,2.9-2.3,4.457-.209.521-.7.265-1.055.266q-11.035.024-22.071.012-23.269-.007-46.539-.018l.285-5.947c1.691-.324,2.469-1.128,2.433-2.518-.034-1.33-.831-2.09-2.468-2.356a14.834,14.834,0,0,0-1.713-6.122" transform="translate(-206.947 -10.103)" fill="#fdd944"/>
    <path id="Trazado_105828" data-name="Trazado 105828" d="M305.111,150.274c1.637.265,2.434,1.026,2.468,2.356.036,1.39-.741,2.194-2.433,2.518-1.555-.4-2.332-1.2-2.343-2.424s.776-2.056,2.308-2.45" transform="translate(-205.688 -102.078)" fill="#070605"/>
    <path id="Trazado_105829" data-name="Trazado 105829" d="M328.995,198.979c10.678,0,21.356.018,32.034-.029,1.037,0,1.654.209,1.909,1.25a6.6,6.6,0,0,0,.514,1.21,1.587,1.587,0,0,1-.086,1.765A4.68,4.68,0,0,0,362.98,207c.472,2.077,1.543,3.934,2.189,5.945.179.556.72,1.256.063,1.764-.641.5-1.39.186-2.025-.19-1.374-.813-2.692-1.729-4.1-2.47a6.482,6.482,0,0,0-6.106-.163c-2.368,1.143-3.184,2.842-2.537,5.394.226.888.544,1.753.776,2.641s.022,1.551-1.011,1.792a5.953,5.953,0,0,0-3.12,1.679,1.284,1.284,0,0,1-1.1.305q-19.437,0-38.874.01a4.252,4.252,0,0,1-1.511-.306,24.888,24.888,0,0,0-4.367-1.254c-1.487-.262-2.892-.211-3.894,1.145-.384.52-.7.179-.993-.047-1.164-.912-2.311-1.845-3.457-2.778-1.933-1.573-3.909-3.019-6.5-3.368-.957-.129-1.45-1.065-2.043-1.754-.3-.353.086-.578.241-.822a3.143,3.143,0,0,0,.611-2.385c-.344-1.343.422-1.37,1.323-1.4a7.376,7.376,0,0,0,5.874-3.231,13.939,13.939,0,0,0,2.739-7.306c.081-.972.346-1.246,1.326-1.243,10.838.036,21.676.022,32.515.022" transform="translate(-193.087 -135.143)" fill="#0045a0"/>
    <path id="Trazado_105830" data-name="Trazado 105830" d="M382.022,291.045h1.337q13.73,0,27.461-.014c.756,0,1.26.069,1.449.957a9.3,9.3,0,0,0,.82,1.855,7.266,7.266,0,0,1,.262,6.239c-1.384,3.22-1.241,6.632-1.006,10.036a15.285,15.285,0,0,1-.075,4.18,1.576,1.576,0,0,1-.724,1.179c-.572.319-1.038.365-1.241-.444-.446-1.779-.878-3.563-1.394-5.322-1.6-5.452-5.275-7.575-10.782-6.293a17.2,17.2,0,0,1-5.2.694,2.011,2.011,0,0,1-2.125-1.849,3.164,3.164,0,0,0-2.721-2.8c-.851-.173-1.056-.618-1.062-1.42-.015-2.019-.7-2.878-2.663-3.4-.446-.119-.7-.272-.757-.755a4.561,4.561,0,0,0-1.58-2.837" transform="translate(-259.5 -197.691)" fill="#ff1815"/>
    <path id="Trazado_105831" data-name="Trazado 105831" d="M45.555,95.489H87.913c2.695,0,3.227.536,3.228,3.235,0,3.222.041,6.444-.024,9.665-.019.965.3,1.151,1.191,1.147,7.012-.035,14.025.011,21.037-.044a3.252,3.252,0,0,1,3.21,1.8q8.57,14.787,17.248,29.512a3.074,3.074,0,0,1,.409,1.619q-.017,11.015-.033,22.029c0,2.341-.581,2.911-2.945,2.919-1.658,0-3.323.089-4.973-.03-1.123-.081-1.525.307-1.792,1.363a13.9,13.9,0,0,1-20.992,8.37,13.242,13.242,0,0,1-6.045-8.425c-.236-1.02-.657-1.3-1.692-1.3q-26.859.052-53.718,0c-1.056,0-1.526.2-1.8,1.355a13.929,13.929,0,0,1-26.966.216c-.314-1.216-.753-1.646-2.057-1.588-2.837.125-5.684.051-8.527.033-1.957-.012-2.661-.7-2.662-2.666q-.013-33.256,0-66.512c0-2.035.69-2.693,2.764-2.693q21.392-.008,42.785,0m.045,4.146q-19.975,0-39.95-.017c-1,0-1.488.092-1.485,1.34q.071,26.654.013,53.309c0,.968.22,1.307,1.246,1.287,3.268-.065,6.54-.058,9.809,0a3.409,3.409,0,0,0,2.422-.879,13.8,13.8,0,0,1,18.2.082,3.023,3.023,0,0,0,2.159.79q23.742-.03,47.485.014c1.224,0,1.449-.369,1.447-1.51q-.055-26.441,0-52.883c0-1.237-.272-1.57-1.544-1.564-13.269.052-26.538.032-39.808.032m70.5,19.256c-.867-1.492-1.635-2.682-2.265-3.941a2.013,2.013,0,0,0-2.1-1.237c-6.3.051-12.6.068-18.9-.008-1.355-.016-1.727.3-1.722,1.7.056,14.495.026,28.989.049,43.484,0,1.4-.616,3.2.293,4.089.84.817,2.626.1,3.979.258,1.255.146,1.758-.263,2.07-1.554a13.919,13.919,0,0,1,12.488-10.344,14.085,14.085,0,0,1,13.962,8.76c.41,1.025.21,2.54,1.206,3,.938.436,2.236.042,3.366.136s1.565-.225,1.55-1.461q-.1-8.028,0-16.057c.013-1.17-.3-1.518-1.5-1.512-9.616.049-19.233.029-28.85.026-2.328,0-2.9-.585-2.9-2.952q-.005-9.592,0-19.185c0-2.723.482-3.2,3.239-3.2H116.1m-1.4,21.143c4.167,0,8.334-.018,12.5.014.956.007,1.191-.155.65-1.071q-4.436-7.506-8.788-15.061a1.446,1.446,0,0,0-1.459-.816c-5.161.027-10.322.04-15.482-.008-.958-.009-1.19.287-1.182,1.2q.06,7.243,0,14.487c-.01.986.264,1.288,1.265,1.276,4.166-.053,8.333-.022,12.5-.022M110.914,175a9.729,9.729,0,1,0,.154-19.457A9.729,9.729,0,1,0,110.914,175m-74.536-9.735c.437-4.5-3.843-9.811-9.664-9.739a9.748,9.748,0,1,0,.025,19.5c5.5.1,10.053-4.954,9.639-9.758m26.947-5.578H42.3c-2.663,0-2.646,0-1.978,2.595.164.64.4.933,1.129.932q22.23-.033,44.46,0c.834,0,1.1-.283,1.007-1.063a3.643,3.643,0,0,1,0-.992c.183-1.154-.225-1.512-1.438-1.5-7.386.06-14.772.03-22.159.03M8.471,163.2h1.556c2.809,0,2.777-.009,3.559-2.729.2-.7.018-.793-.6-.789-2.641.019-5.283.025-7.923,0-.7-.007-.846.277-.875.922-.114,2.6-.137,2.6,2.442,2.6H8.471" transform="translate(0 -64.864)"/>
    <path id="Trazado_105832" data-name="Trazado 105832" d="M54.42,108.347c13.269,0,26.539.02,39.807-.032,1.273-.005,1.547.328,1.545,1.564q-.065,26.441,0,52.883c0,1.141-.223,1.513-1.447,1.51q-23.742-.066-47.485-.014a3.023,3.023,0,0,1-2.158-.791,13.8,13.8,0,0,0-18.2-.082,3.409,3.409,0,0,1-2.422.879c-3.269-.055-6.54-.062-9.809,0-1.025.021-1.247-.319-1.245-1.287q.04-26.654-.013-53.309c0-1.247.482-1.342,1.485-1.34q19.975.038,39.95.017" transform="translate(-8.821 -73.576)" fill="#23778e"/>
    <path id="Trazado_105833" data-name="Trazado 105833" d="M308.74,157.47H292.7c-2.756,0-3.238.476-3.239,3.2q0,9.592,0,19.185c0,2.367.574,2.951,2.9,2.952,9.617,0,19.234.023,28.85-.026,1.2-.006,1.51.342,1.5,1.512q-.088,8.028,0,16.057c.015,1.237-.41,1.556-1.55,1.461s-2.428.3-3.366-.136c-1-.463-.8-1.978-1.206-3a14.086,14.086,0,0,0-13.962-8.76,13.919,13.919,0,0,0-12.488,10.344c-.312,1.292-.815,1.7-2.07,1.554-1.353-.157-3.139.559-3.979-.258-.91-.885-.291-2.69-.293-4.089-.024-14.495.007-28.989-.05-43.484-.005-1.394.367-1.713,1.722-1.7,6.3.076,12.6.059,18.9.008a2.014,2.014,0,0,1,2.105,1.238c.63,1.259,1.4,2.449,2.264,3.941" transform="translate(-192.64 -103.442)" fill="#22afd6"/>
    <path id="Trazado_105834" data-name="Trazado 105834" d="M328.491,198.5c-4.167,0-8.334-.03-12.5.022-1,.012-1.275-.29-1.265-1.276q.07-7.243,0-14.487c-.007-.914.224-1.21,1.182-1.2,5.16.048,10.322.035,15.482.008a1.447,1.447,0,0,1,1.459.816q4.356,7.552,8.788,15.061c.541.916.307,1.078-.65,1.07-4.166-.032-8.333-.014-12.5-.014" transform="translate(-213.787 -123.328)" fill="#e2e2f3"/>
    <path id="Trazado_105835" data-name="Trazado 105835" d="M325.165,302.195A9.729,9.729,0,1,1,335,292.556a9.683,9.683,0,0,1-9.838,9.639m.008-15.764a6.034,6.034,0,0,0-6.07,6.01,6.1,6.1,0,1,0,12.207.077,6.035,6.035,0,0,0-6.136-6.086" transform="translate(-214.251 -192.058)" fill="#636363"/>
    <path id="Trazado_105836" data-name="Trazado 105836" d="M72.3,292.423c.414,4.8-4.141,9.858-9.639,9.758a9.748,9.748,0,1,1-.025-19.5c5.821-.073,10.1,5.237,9.664,9.739M62.57,286.4a5.977,5.977,0,0,0-6.009,6.044,6.09,6.09,0,0,0,5.974,6.138,6.327,6.327,0,0,0,6.224-6.12A6.089,6.089,0,0,0,62.57,286.4" transform="translate(-35.922 -192.021)" fill="#636363"/>
    <path id="Trazado_105837" data-name="Trazado 105837" d="M147.934,295.6c7.387,0,14.773.03,22.159-.03,1.213-.01,1.621.348,1.438,1.5a3.646,3.646,0,0,0,0,.992c.094.78-.174,1.064-1.007,1.063q-22.23-.035-44.46,0c-.73,0-.965-.292-1.129-.932-.668-2.6-.685-2.595,1.978-2.595h21.023" transform="translate(-84.609 -200.772)" fill="#23778e"/>
    <path id="Trazado_105838" data-name="Trazado 105838" d="M17.263,299.149H15.424c-2.579,0-2.556,0-2.442-2.6.029-.646.176-.93.875-.922,2.641.029,5.282.022,7.923,0,.617,0,.8.089.6.789-.782,2.72-.75,2.729-3.559,2.729Z" transform="translate(-8.792 -200.814)" fill="#23778e"/>
    <path id="Trazado_105839" data-name="Trazado 105839" d="M333,294.253a6.035,6.035,0,0,1,6.136,6.086,6.1,6.1,0,1,1-12.207-.077,6.033,6.033,0,0,1,6.07-6.01m-.014,4.148a1.888,1.888,0,0,0-1.825,1.95,1.873,1.873,0,1,0,3.744-.1,1.887,1.887,0,0,0-1.919-1.853" transform="translate(-222.074 -199.88)"/>
    <path id="Trazado_105840" data-name="Trazado 105840" d="M70.361,294.259a6.089,6.089,0,0,1,6.189,6.062,6.327,6.327,0,0,1-6.225,6.12,6.09,6.09,0,0,1-5.973-6.138,5.977,5.977,0,0,1,6.009-6.043m.12,7.956a1.982,1.982,0,0,0,1.834-1.978,1.934,1.934,0,0,0-1.968-1.827,1.88,1.88,0,0,0-1.814,1.963,1.914,1.914,0,0,0,1.948,1.842" transform="translate(-43.713 -199.884)"/>
    <path id="Trazado_105841" data-name="Trazado 105841" d="M341.942,307.185a1.887,1.887,0,0,1,1.919,1.853,1.873,1.873,0,1,1-3.744.1,1.888,1.888,0,0,1,1.825-1.95" transform="translate(-231.034 -208.664)" fill="#e2e2f3"/>
    <path id="Trazado_105842" data-name="Trazado 105842" d="M79.334,311.005a1.914,1.914,0,0,1-1.948-1.842A1.88,1.88,0,0,1,79.2,307.2a1.934,1.934,0,0,1,1.968,1.827,1.982,1.982,0,0,1-1.834,1.978" transform="translate(-52.566 -208.674)" fill="#e2e2f3"/>
  </g>
</svg>
