<svg id="Grupo_111299" data-name="Grupo 111299" xmlns="http://www.w3.org/2000/svg" xmlns:xlink="http://www.w3.org/1999/xlink" width="70.205" height="100" viewBox="0 0 70.205 100">
  <defs>
    <clipPath id="clip-path">
      <rect id="Rectángulo_37242" data-name="Rectángulo 37242" width="70.205" height="100" fill="none"/>
    </clipPath>
  </defs>
  <g id="Grupo_111298" data-name="Grupo 111298" clip-path="url(#clip-path)">
    <path id="Trazado_105525" data-name="Trazado 105525" d="M9.2,0a2.433,2.433,0,0,1,.57,1.768c-.017,10.546,0,21.092-.022,31.638a20.153,20.153,0,0,0,2.009,9.05c.2.405.431.793.644,1.183.374-.138.286-.449.359-.679a13.476,13.476,0,0,1,2.114-4.247c1.749-2.265,3.413-4.6,5.148-6.872a14.256,14.256,0,0,1,13.4-5.794q7.242.642,14.483,1.3c.57.053.82-.05,1.018-.668a4.823,4.823,0,0,1,9.352.86,1.827,1.827,0,0,1,.066.579c-.4,2.081.66,3.209,2.242,4.483,7.415,5.976,10.505,13.825,9.4,23.29-.975,8.366-1.994,16.726-2.994,25.089-.135,1.13-.253,2.263-.412,3.389a10.509,10.509,0,0,1-2.126,5.064c-1.656,2.133-3.336,4.247-4.945,6.415-2.564,3.453-6.094,4.506-10.158,4.05A19.177,19.177,0,0,1,37.881,94.18c-.512-.5-.727-.5-1.254,0-5.525,5.259-12.027,6.936-19.245,4.5-7.3-2.465-11.534-7.818-12.615-15.432A18.641,18.641,0,0,1,16.555,63.5l.793-.314a33.822,33.822,0,0,1-2.359-3.732c-.121-.229-.446-.358-.69-.513C5.058,53.1.221,44.706.073,33.794-.072,23.087.046,12.377.029,1.668A2.322,2.322,0,0,1,.6,0ZM49.238,42.178l-.3.407a32.961,32.961,0,0,1-2.919,4.82,2.774,2.774,0,0,0,.49,3.83,2.88,2.88,0,0,0,3.932-.6,27.833,27.833,0,0,0,3.611-5.984c2.368-5.293,2.356-10.906,2.194-16.531A2.8,2.8,0,0,0,54.124,25.6a2.561,2.561,0,0,0-2.943,1.339,2.713,2.713,0,0,0-.382,1.77,58.517,58.517,0,0,1-.348,8.951c-.239,1.411-.8,2.733-1.03,4.14l.01-.015c-.216.062-.195.242-.2.407ZM35.587,28.354c-1.133-.085-2.264-.189-3.4-.252a12.106,12.106,0,0,0-12.419,9.036,20.669,20.669,0,0,0,1.173,12.68,21.883,21.883,0,0,0,6.92,9.491c1.86,1.525,3.865,2.865,5.694,4.436,1.761,1.513,2.806,3.568,4.236,5.328a18.209,18.209,0,0,1,4.246,13.494,1.87,1.87,0,0,0,.435,1.338,17.5,17.5,0,0,0,11.7,7.264c5.567.917,9.822-2.169,10.468-7.538,1.145-9.519,2.326-19.035,3.4-28.562a22.679,22.679,0,0,0-6.993-19.461,10.31,10.31,0,0,0-2.6-2.04c-.09,1.284-.122,2.485-.277,3.67a1.663,1.663,0,0,0,.553,1.533,18.653,18.653,0,0,1,5.569,14c-.12,4-.85,7.947-1.3,11.918-.7,6.167-1.5,12.323-2.2,18.49A4.485,4.485,0,0,1,55.6,87.47,13.861,13.861,0,0,1,43.17,75.179,22.93,22.93,0,0,0,32.341,57.845a21.08,21.08,0,0,1-7.81-9.261,20.729,20.729,0,0,1-1.388-7.92c.085-4.841,3.238-8.333,7.948-8.754a35.967,35.967,0,0,1,4.28.242c4.261.41,8.522.814,12.781,1.24.488.049.532-.171.526-.549-.013-.909-.021-1.819,0-2.728.012-.441-.121-.634-.59-.664-.841-.054-1.676-.195-2.516-.266q-4.993-.426-9.988-.83M7.6,25.745,7.59,10.4c.019-2.535.031-5.07.065-7.605.007-.506-.182-.694-.685-.683-1.235.026-2.476.083-3.706,0-.933-.06-1.122.285-1.12,1.153q.042,15.22.014,30.44a26.307,26.307,0,0,0,.8,6.635A26.261,26.261,0,0,0,13.3,55.664a.27.27,0,0,0,.033.066c.009.01.033.008.05.011l-.086-.074a2.64,2.64,0,0,0-.022-.679A22.528,22.528,0,0,1,12.31,47.6a1.341,1.341,0,0,0-.389-.859A22,22,0,0,1,7.646,33.551c0-2.6-.027-5.2-.043-7.805M48.045,38.488a9.311,9.311,0,0,0,.456-2.282c.073-.518-.146-.723-.6-.774-.872-.1-1.743-.194-2.617-.273-4.143-.375-8.293-.684-12.429-1.131-3.884-.419-7.089,1.851-7.586,5.607a14.983,14.983,0,0,0,.241,4.855,17.169,17.169,0,0,0,7.169,10.992c3.108,2.218,6.11,4.538,8.308,7.741a26.926,26.926,0,0,1,4.362,12.367,11.62,11.62,0,0,0,10.934,9.787,2.142,2.142,0,0,0,2.371-1.953q.878-7.011,1.714-14.029c.568-4.709,1.085-9.425,1.7-14.128A17.8,17.8,0,0,0,60.4,44.656a14.817,14.817,0,0,0-2.789-3.931L56.515,44.17a1.435,1.435,0,0,0-.07,1.468,8.168,8.168,0,0,1,.625,3.324,8.823,8.823,0,1,1-10.658-8.669c1.181-.22,1.59-.748,1.632-1.805m-24.615,25.9A16.641,16.641,0,1,0,40.054,81.134,16.657,16.657,0,0,0,23.429,64.389m-6.211-25.1a8.96,8.96,0,0,0-2.529,4.788c-1.2,6.682.535,12.662,4.5,18.08a.956.956,0,0,0,1.121.323,19.258,19.258,0,0,1,4.081-.2,24.217,24.217,0,0,1,4.933.8c-8.3-5.72-12.429-13.53-12.1-23.79m24.224,46.8a20.777,20.777,0,0,1-2.635,5.586c-.246.356.079.54.267.73a16.742,16.742,0,0,0,13.083,5.416c3.079-.141,5.144-1.949,6.594-4.587-7.092.82-12.638-1.966-17.309-7.144M54.82,47.92a27.183,27.183,0,0,1-2.68,3.975,4.871,4.871,0,0,1-5.119,1.821,4.807,4.807,0,0,1-2.665-7.587,18.131,18.131,0,0,0,2.305-3.7,6.685,6.685,0,1,0,3.485,12.9c3.284-.957,5.569-4.546,4.673-7.418" transform="translate(0)"/>
    <path id="Trazado_105526" data-name="Trazado 105526" d="M42.425,246.672a16.641,16.641,0,1,1-16.719,16.572,16.618,16.618,0,0,1,16.719-16.572m1.042,28.2.3-.252c.323.44.622.9.976,1.317.482.565,1.1.8,1.683.212s.281-1.185-.232-1.7q-1.142-1.136-2.276-2.281c-.2-.2-.508-.373-.511-.688-.017-1.827-.008-3.654-.008-5.743,1.412,1.424,2.617,2.649,3.835,3.863a1.245,1.245,0,0,1,.266,1c0,1.172,0,2.344,0,3.516,0,.687.272,1.148,1.015,1.151s1.012-.473,1.013-1.152c0-.635,0-1.271,0-2.061.759.517,1.331,1.331,2.14.52.743-.745.082-1.338-.453-2.032.8,0,1.445.028,2.084-.008a1.045,1.045,0,1,0-.028-2.089,14.721,14.721,0,0,0-2.341.008,3.382,3.382,0,0,1-3.3-1.354c-.783-.955-1.736-1.772-2.73-2.767,2.062,0,3.983-.359,5.666.122,1.186.339,2.052,1.811,3.049,2.789a1.02,1.02,0,0,0,1.55.136.978.978,0,0,0-.05-1.546c-.45-.452-.957-.847-1.438-1.267.9-.3,1.773-.226,1.854-1.254.093-1.182-.919-1.069-1.944-1.252.626-.546,1.085-.908,1.5-1.315.508-.5.658-1.077.072-1.613-.54-.494-1.068-.327-1.545.154q-1.2,1.214-2.415,2.418c-.2.2-.37.466-.71.466H44.87c1.379-1.385,2.594-2.6,3.795-3.82a1.222,1.222,0,0,1,1-.268c1.172,0,2.344-.005,3.516,0,.7,0,1.156-.3,1.159-1.018s-.462-1-1.156-1.021a4.84,4.84,0,0,1-1.943-.165c.442-.617,1.156-1.14.51-1.914-.812-.973-1.457-.005-2.215.369,0-.7-.011-1.287,0-1.868.017-.734-.27-1.234-1.052-1.215-.722.017-.992.5-.983,1.188.015,1.139.007,2.279,0,3.418,0,.287.084.613-.147.842-1.281,1.266-2.573,2.519-3.969,3.882,0-1.872.008-3.591-.006-5.31a1.23,1.23,0,0,1,.505-.9q1.172-1.177,2.345-2.351c.517-.52.785-1.1.152-1.687-.578-.538-1.133-.315-1.612.2-.391.424-.776.854-1.323,1.459-.1-1.03-.034-1.9-1.083-1.959-1.209-.063-1.025.962-1.169,1.908-.587-.619-1.02-1.1-1.477-1.553a1.017,1.017,0,0,0-1.556-.087.974.974,0,0,0,.084,1.538c.849.854,1.706,1.7,2.55,2.559.178.181.443.4.447.609.035,1.828.02,3.656.02,5.695-1.371-1.374-2.556-2.58-3.764-3.761a1.2,1.2,0,0,1-.341-.966c.01-1.107-.008-2.214.007-3.32.011-.773-.19-1.421-1.087-1.407-.834.012-1.049.628-1.031,1.365.013.537,0,1.075,0,1.832-.695-.657-1.3-1.3-2.046-.605-.868.812-.013,1.429.535,2.207-.761,0-1.365,0-1.968,0-.7-.006-1.25.173-1.253,1.005,0,.814.5,1.04,1.225,1.031,1.172-.014,2.344-.005,3.516,0,.289,0,.594-.052.83.187,1.244,1.258,2.487,2.516,3.86,3.907-1.95,0-3.7-.008-5.448.006a1.117,1.117,0,0,1-.824-.446c-.829-.829-1.652-1.662-2.488-2.483a1,1,0,0,0-1.551-.094,1.022,1.022,0,0,0,.079,1.554,7.822,7.822,0,0,1,1.3,1.441c-.823.023-1.663-.006-1.729.969-.081,1.194.931,1.153,1.835,1.34a12.694,12.694,0,0,1-1.36,1.329,1,1,0,0,0-.142,1.547c.526.552,1.108.407,1.62-.107q1.24-1.246,2.487-2.484c.2-.2.378-.452.719-.452,1.77,0,3.54,0,5.535,0-1.4,1.406-2.642,2.637-3.869,3.881a1.122,1.122,0,0,1-.9.256c-1.172,0-2.344,0-3.516,0-.666,0-1.151.251-1.174,1-.024.8.467,1.086,1.18,1.1.6.013,1.2,0,1.986,0-.632.679-1.2,1.255-.562,1.985.79.905,1.409-.043,2.141-.373,0,.783-.043,1.469.013,2.146a.966.966,0,0,0,1.027.965.977.977,0,0,0,1.042-.948,2.845,2.845,0,0,0,.013-.876,5.816,5.816,0,0,1,2.588-6.192c.528-.371.843-1.015,1.536-1.316,0,1.656-.025,3.219.012,4.78a1.827,1.827,0,0,1-.62,1.539c-.817.745-1.573,1.556-2.355,2.34a1.008,1.008,0,0,0-.1,1.55,1,1,0,0,0,1.549-.08c.449-.455.864-.943,1.294-1.416.221.88.155,1.74,1.212,1.788s1.041-.851,1.2-1.569" transform="translate(-18.995 -182.283)" fill="#22afd6"/>
    <path id="Trazado_105527" data-name="Trazado 105527" d="M128.27,143.5c-.042,1.057-.451,1.585-1.632,1.805a8.767,8.767,0,0,0-6.905,9.842,8.827,8.827,0,0,0,17.563-1.173,8.169,8.169,0,0,0-.625-3.324,1.435,1.435,0,0,1,.07-1.468,10.409,10.409,0,0,1,1.462,2.631,13.356,13.356,0,0,1,1.144,6.821c-.27,2.438-.6,4.87-.9,7.305-.287,2.373-.555,4.747-.84,7.12q-.451,3.75-.92,7.5c-.251,2.018-.542,4.032-.75,6.054-.064.624-.313.539-.752.45a8.555,8.555,0,0,1-6.5-6.636c-.223-1.272-.336-2.565-.606-3.826a27.321,27.321,0,0,0-10.044-16.181c-2.125-1.68-4.507-3.049-6.255-5.2a14.164,14.164,0,0,1-3.184-10.237,3.114,3.114,0,0,1,3.34-2.878c.949-.023,1.872.145,2.807.211,1.871.132,3.744.248,5.612.415,2.638.235,5.273.51,7.909.767" transform="translate(-80.225 -105.009)" fill="#f39692"/>
    <path id="Trazado_105528" data-name="Trazado 105528" d="M83.819,143.615a21.078,21.078,0,0,0,7.81,9.261,22.93,22.93,0,0,1,10.829,17.335,13.862,13.862,0,0,0,12.432,12.29,4.485,4.485,0,0,0,5.187-4.288c.7-6.167,1.5-12.323,2.2-18.49.453-3.971,1.183-7.917,1.3-11.918a18.653,18.653,0,0,0-5.569-14,1.664,1.664,0,0,1-.553-1.533c.155-1.185.188-2.386.277-3.669a10.309,10.309,0,0,1,2.6,2.039,22.679,22.679,0,0,1,6.993,19.461c-1.072,9.528-2.252,19.043-3.4,28.563-.646,5.369-4.9,8.455-10.468,7.538a17.5,17.5,0,0,1-11.7-7.264,1.869,1.869,0,0,1-.435-1.338A18.208,18.208,0,0,0,97.08,164.1c-1.43-1.76-2.476-3.815-4.236-5.328-1.829-1.572-3.834-2.911-5.694-4.436a21.884,21.884,0,0,1-6.92-9.492,3.1,3.1,0,0,0,3.589-1.233" transform="translate(-59.288 -95.031)" fill="#f3f0cd"/>
    <path id="Trazado_105529" data-name="Trazado 105529" d="M119.283,134.683c-2.636-.258-5.27-.533-7.909-.767-1.868-.167-3.741-.283-5.612-.415-.936-.066-1.859-.235-2.807-.211a3.114,3.114,0,0,0-3.34,2.878A14.164,14.164,0,0,0,102.8,146.4c1.747,2.146,4.13,3.516,6.255,5.2A27.321,27.321,0,0,1,119.1,167.781c.27,1.26.383,2.554.606,3.826a8.555,8.555,0,0,0,6.5,6.636c.44.089.688.174.752-.45.208-2.022.5-4.036.75-6.054q.467-3.748.92-7.5c.285-2.372.553-4.747.84-7.12.295-2.436.628-4.867.9-7.305A13.356,13.356,0,0,0,129.216,143a10.407,10.407,0,0,0-1.462-2.631l1.092-3.445a14.81,14.81,0,0,1,2.789,3.931,17.8,17.8,0,0,1,1.67,10.613c-.615,4.7-1.133,9.419-1.7,14.128q-.846,7.016-1.714,14.029a2.142,2.142,0,0,1-2.371,1.953,11.62,11.62,0,0,1-10.934-9.787,26.923,26.923,0,0,0-4.362-12.367c-2.2-3.2-5.2-5.523-8.309-7.741a17.169,17.169,0,0,1-7.169-10.992,14.975,14.975,0,0,1-.241-4.855c.5-3.756,3.7-6.027,7.586-5.607,4.135.446,8.286.756,12.429,1.131.873.079,1.745.176,2.617.273.457.051.676.256.6.774a9.3,9.3,0,0,1-.456,2.282" transform="translate(-71.238 -96.195)" fill="#f1697e"/>
    <path id="Trazado_105530" data-name="Trazado 105530" d="M19.371,61.641A27,27,0,0,1,8.231,39.688q.016-15.22-.014-30.44c0-.868.187-1.213,1.12-1.153,1.23.08,2.47.023,3.706,0,.5-.011.691.177.685.683-.034,2.535-.045,5.07-.064,7.6-1.842-.14-2.488.456-2.489,2.308q0,5.356,0,10.712c0,1.988.517,2.466,2.5,2.322.015,2.6.045,5.2.043,7.805a22,22,0,0,0,4.275,13.188,1.343,1.343,0,0,1,.389.859,22.533,22.533,0,0,0,.963,7.391,2.642,2.642,0,0,1,.022.679Z" transform="translate(-6.072 -5.977)" fill="#636363"/>
    <path id="Trazado_105531" data-name="Trazado 105531" d="M179.895,99.209a2.561,2.561,0,0,1,2.943-1.339,2.8,2.8,0,0,1,2.117,2.517c.163,5.624.174,11.238-2.194,16.531a27.832,27.832,0,0,1-3.611,5.984,2.88,2.88,0,0,1-3.932.6,2.775,2.775,0,0,1-.489-3.83,32.961,32.961,0,0,0,2.919-4.82.369.369,0,0,0,.3-.407l-.01.016c.188-.076.21-.234.2-.407l-.01.015c.1-.081.236-.141.289-.245a28.7,28.7,0,0,0,3-13.053,1.449,1.449,0,0,0-1.524-1.563" transform="translate(-128.713 -72.269)" fill="#636363"/>
    <path id="Trazado_105532" data-name="Trazado 105532" d="M79.014,128.087a3.1,3.1,0,0,1-3.589,1.233,20.668,20.668,0,0,1-1.173-12.68A12.106,12.106,0,0,1,86.672,107.6c1.134.063,2.265.167,3.4.252a3.58,3.58,0,0,1-.216,3.8,36.017,36.017,0,0,0-4.28-.242c-4.709.422-7.862,3.913-7.948,8.755a20.728,20.728,0,0,0,1.388,7.919" transform="translate(-54.483 -79.502)" fill="#fdfce8"/>
    <path id="Trazado_105533" data-name="Trazado 105533" d="M57.75,150.519c-.328,10.26,3.8,18.07,12.1,23.79a24.238,24.238,0,0,0-4.934-.8,19.257,19.257,0,0,0-4.081.2.956.956,0,0,1-1.121-.323c-3.96-5.418-5.692-11.4-4.5-18.08a8.957,8.957,0,0,1,2.529-4.788" transform="translate(-40.531 -111.229)" fill="#f1697e"/>
    <path id="Trazado_105534" data-name="Trazado 105534" d="M151.056,329.82c4.671,5.178,10.217,7.965,17.309,7.144-1.45,2.639-3.516,4.447-6.595,4.587a16.741,16.741,0,0,1-13.082-5.416c-.188-.191-.514-.374-.268-.73a20.757,20.757,0,0,0,2.635-5.586" transform="translate(-109.613 -243.727)" fill="#f1697e"/>
    <path id="Trazado_105535" data-name="Trazado 105535" d="M135.5,112.423a3.581,3.581,0,0,0,.216-3.8q4.994.413,9.988.83c.84.072,1.675.212,2.516.266.47.03.6.223.59.664-.024.909-.016,1.819,0,2.728.005.378-.038.6-.526.55-4.259-.426-8.521-.83-12.781-1.24" transform="translate(-100.133 -80.27)" fill="#fdfce8"/>
    <path id="Trazado_105536" data-name="Trazado 105536" d="M172.555,168.046c.9,2.872-1.389,6.46-4.673,7.418a6.685,6.685,0,1,1-3.485-12.9,18.13,18.13,0,0,1-2.305,3.7,4.807,4.807,0,0,0,2.665,7.587,4.871,4.871,0,0,0,5.119-1.821,27.183,27.183,0,0,0,2.68-3.975" transform="translate(-117.734 -120.126)" fill="#fefefe"/>
    <path id="Trazado_105537" data-name="Trazado 105537" d="M22.042,55.14c-1.985.144-2.5-.334-2.5-2.322q0-5.356,0-10.712c0-1.851.647-2.447,2.489-2.308q.006,7.672.013,15.342" transform="translate(-14.438 -29.395)" fill="#636363"/>
    <path id="Trazado_105538" data-name="Trazado 105538" d="M191.092,103.208a1.449,1.449,0,0,1,1.524,1.563,28.7,28.7,0,0,1-3,13.053c-.053.1-.191.164-.289.245.234-1.406.791-2.729,1.03-4.14a58.558,58.558,0,0,0,.349-8.951,2.712,2.712,0,0,1,.382-1.77" transform="translate(-139.911 -76.268)" fill="#636363"/>
    <path id="Trazado_105539" data-name="Trazado 105539" d="M188.793,160.082c.006.173-.016.332-.2.407.009-.165-.012-.346.2-.407" transform="translate(-139.362 -118.296)" fill="#32ccef"/>
    <path id="Trazado_105540" data-name="Trazado 105540" d="M187.771,161.582a.368.368,0,0,1-.3.407l.3-.407" transform="translate(-138.533 -119.404)" fill="#32ccef"/>
    <path id="Trazado_105541" data-name="Trazado 105541" d="M50.937,213.249l.086.074c-.017,0-.041,0-.05-.011a.28.28,0,0,1-.033-.066l0,0" transform="translate(-37.641 -157.582)" fill="#30508d"/>
    <path id="Trazado_105542" data-name="Trazado 105542" d="M53.015,284.252c-.16.717-.138,1.618-1.2,1.568s-.991-.908-1.212-1.788c-.43.474-.845.961-1.294,1.416a1,1,0,0,1-1.549.08,1.008,1.008,0,0,1,.1-1.55c.782-.783,1.538-1.595,2.355-2.34a1.827,1.827,0,0,0,.62-1.539c-.038-1.561-.012-3.124-.012-4.78-.694.3-1.009.944-1.536,1.316a5.816,5.816,0,0,0-2.588,6.192,2.846,2.846,0,0,1-.013.876.977.977,0,0,1-1.042.948.966.966,0,0,1-1.027-.965c-.055-.678-.013-1.364-.013-2.146-.732.33-1.351,1.279-2.141.373-.637-.73-.07-1.306.562-1.985-.788,0-1.387.01-1.986,0-.714-.015-1.2-.3-1.18-1.1.022-.753.508-1,1.174-1,1.172-.008,2.344,0,3.516,0a1.123,1.123,0,0,0,.9-.256c1.227-1.244,2.465-2.475,3.869-3.881-1.995,0-3.765,0-5.535,0-.34,0-.515.25-.719.452q-1.249,1.237-2.487,2.484c-.512.514-1.094.659-1.62.107a1,1,0,0,1,.142-1.547,12.7,12.7,0,0,0,1.36-1.329c-.9-.187-1.916-.146-1.835-1.34.066-.975.907-.946,1.729-.969a7.817,7.817,0,0,0-1.3-1.441,1.022,1.022,0,0,1-.079-1.554,1,1,0,0,1,1.551.094c.836.821,1.66,1.655,2.488,2.483a1.117,1.117,0,0,0,.824.446c1.749-.014,3.5-.006,5.448-.006-1.374-1.39-2.617-2.649-3.86-3.907-.235-.238-.541-.186-.83-.187-1.172,0-2.344-.012-3.516,0-.721.009-1.228-.218-1.225-1.031,0-.832.557-1.012,1.253-1.005.6.006,1.207,0,1.968,0-.548-.779-1.4-1.4-.535-2.207.744-.7,1.351-.052,2.046.605,0-.756.01-1.294,0-1.832-.017-.736.2-1.352,1.031-1.365.9-.014,1.1.634,1.087,1.407-.015,1.106,0,2.214-.007,3.32a1.2,1.2,0,0,0,.341.966c1.208,1.182,2.393,2.387,3.764,3.761,0-2.039.015-3.867-.02-5.695,0-.207-.269-.428-.447-.609-.844-.859-1.7-1.706-2.55-2.559a.974.974,0,0,1-.084-1.538,1.017,1.017,0,0,1,1.556.087c.457.456.891.934,1.477,1.553.144-.946-.04-1.971,1.169-1.908,1.049.054.986.929,1.083,1.959.548-.6.932-1.034,1.323-1.459.479-.519,1.034-.742,1.612-.2.633.59.365,1.167-.152,1.687q-1.171,1.177-2.345,2.351a1.23,1.23,0,0,0-.505.9c.014,1.719.006,3.439.006,5.31,1.4-1.362,2.688-2.616,3.969-3.882.231-.228.145-.555.147-.842.006-1.139.014-2.279,0-3.418-.009-.692.261-1.171.983-1.188.782-.019,1.07.482,1.052,1.215-.014.582,0,1.164,0,1.868.758-.375,1.4-1.342,2.215-.369.646.774-.068,1.3-.51,1.914a4.84,4.84,0,0,0,1.943.165c.694.019,1.159.3,1.156,1.021s-.464,1.021-1.159,1.018c-1.172-.006-2.344,0-3.516,0a1.221,1.221,0,0,0-1,.268c-1.2,1.224-2.416,2.435-3.795,3.82h5.621c.34,0,.508-.266.71-.466q1.215-1.2,2.415-2.418c.476-.481,1-.648,1.545-.154.586.536.436,1.114-.072,1.613-.415.407-.873.77-1.5,1.315,1.026.183,2.037.069,1.944,1.252-.081,1.028-.954.955-1.854,1.254.482.42.989.815,1.438,1.267a.978.978,0,0,1,.05,1.546,1.02,1.02,0,0,1-1.55-.136c-1-.978-1.863-2.45-3.049-2.789-1.682-.481-3.6-.122-5.666-.122.994.995,1.947,1.811,2.73,2.767a3.382,3.382,0,0,0,3.3,1.354,14.714,14.714,0,0,1,2.341-.008,1.045,1.045,0,1,1,.028,2.089c-.639.036-1.281.008-2.084.008.535.695,1.2,1.287.453,2.032-.809.811-1.38,0-2.14-.521,0,.79,0,1.426,0,2.061,0,.68-.263,1.155-1.013,1.152s-1.016-.464-1.015-1.151c0-1.172,0-2.344,0-3.516a1.245,1.245,0,0,0-.266-1c-1.217-1.214-2.423-2.439-3.835-3.863,0,2.089-.009,3.916.008,5.743,0,.315.309.483.511.688q1.132,1.147,2.276,2.281c.513.51.83,1.1.232,1.7s-1.2.353-1.683-.212c-.354-.414-.653-.876-.976-1.317l-.3.252" transform="translate(-28.543 -191.662)" fill="#fefefe"/>
  </g>
</svg>
