<svg id="Grupo_111292" data-name="Grupo 111292" xmlns="http://www.w3.org/2000/svg" xmlns:xlink="http://www.w3.org/1999/xlink" width="100.001" height="95.141" viewBox="0 0 100.001 95.141">
  <defs>
    <clipPath id="clip-path">
      <rect id="Rectángulo_37237" data-name="Rectángulo 37237" width="100.001" height="95.141" fill="none"/>
    </clipPath>
  </defs>
  <g id="Grupo_111292-2" data-name="Grupo 111292" clip-path="url(#clip-path)">
    <path id="Trazado_105439" data-name="Trazado 105439" d="M186.715,7.26l4.019-.009a1.848,1.848,0,0,0,3.668-.009l4.008.02c.519,1.5.694,1.6,2.97,1.62,2.185.021,3.036.859,3.037,3.037q.008,10.1,0,20.2A2.557,2.557,0,0,1,201.553,35q-20.317.014-40.633.009a2.949,2.949,0,0,1-1.594-.409,3.476,3.476,0,0,1-1.127-3.877c.321-1.034,1.3-.444,1.951-.468a4.7,4.7,0,0,0,4.722-4.948c.035-2.111.012-4.223.006-6.334-.011-3.486-1.787-5.311-5.256-5.413-.279-.008-.558-.008-.836-.008-.374,0-.544-.164-.623-.554-.547-2.7.6-4.118,3.379-4.119q11.473,0,22.946.005c1.168,0,2.047-.315,2.228-1.626" transform="translate(-107.521 -4.927)" fill="#c6edff"/>
    <path id="Trazado_105440" data-name="Trazado 105440" d="M180.39,4.143c-.182,1.312-1.06,1.628-2.228,1.626q-11.473-.017-22.946-.005c-2.776,0-3.926,1.419-3.379,4.119.079.39.25.554.623.554.279,0,.558,0,.836.009,3.469.1,5.245,1.927,5.256,5.412.006,2.112.028,4.223-.006,6.334a4.7,4.7,0,0,1-4.722,4.948c-.652.025-1.63-.566-1.951.468A3.477,3.477,0,0,0,153,31.485a2.95,2.95,0,0,0,1.594.409q20.317-.008,40.633-.009A2.557,2.557,0,0,0,198.091,29q.013-10.1,0-20.2c0-2.177-.852-3.015-3.037-3.037-2.276-.022-2.452-.118-2.97-1.62a1.639,1.639,0,0,1,1.837-1.468,11.381,11.381,0,0,1,3.32.246,5.5,5.5,0,0,1,3.926,5.161c.035,7.133.017,14.267.008,21.4a5.111,5.111,0,0,1-1.276,3.394c-.354.412-.39.639-.014,1.071a5.647,5.647,0,0,1,1.312,3.864q-.016,26.542-.011,53.084a5.527,5.527,0,0,1-5.829,5.873q-20.385.036-40.769,0a5.49,5.49,0,0,1-5.844-5.846q-.024-26.6-.012-53.2a5.52,5.52,0,0,1,1.276-3.756c.345-.4.407-.625.026-1.056a5.555,5.555,0,0,1-1.3-3.865c.017-6.815-.007-13.63.013-20.444.011-3.622,2.281-5.912,5.889-5.922,7.891-.022,15.782,0,23.672-.019,1.1,0,1.861.325,2.085,1.483M198.1,64.46q0-13.087,0-26.173c0-2.492-.8-3.3-3.269-3.3H155.153c-2.546,0-3.406.867-3.412,3.461q-.012,4.9,0,9.8c0,2.028-.118,1.759,1.819,1.772,3.052.02,4.957,1.817,4.981,4.872q.068,8.485,0,16.971a4.651,4.651,0,0,1-4.366,4.933,6.661,6.661,0,0,1-1.432.014c-.8-.089-1.021.24-1.016,1.013.03,4.183,0,8.366.02,12.549.012,2.445.968,3.395,3.429,3.4q19.839.015,39.678,0c2.355,0,3.246-.924,3.247-3.255q0-13.027,0-26.054m-46.361-1.088c0,3.1-.007,6.206.01,9.309,0,.355-.2.809.33,1.028a2.309,2.309,0,0,0,3.39-2.2q.011-8,0-15.992c0-2.075-.465-2.478-2.514-2.541-1.053-.033-1.251.384-1.236,1.322.048,3.022.018,6.046.018,9.07m0-44.592c0,1.43-.006,2.86,0,4.291,0,.3-.127.776.221.85a4.722,4.722,0,0,0,2.579-.052,1.539,1.539,0,0,0,.927-1.647q0-3.039,0-6.078c0-2.222-.517-2.681-2.773-2.624-.717.018-.991.242-.971.971.04,1.429.012,2.86.012,4.29" transform="translate(-101.196 -1.81)"/>
    <path id="Trazado_105441" data-name="Trazado 105441" d="M1.464,135.893A1.712,1.712,0,0,1,0,133.919q.04-6.867.006-13.734a9.748,9.748,0,0,1,2.7-6.933c2.549-2.74,5.041-5.536,7.684-8.182a4.932,4.932,0,0,0,1.786-4.485,1.554,1.554,0,0,1,1.472-1.925c1.274.161,1.553,1,1.549,2.132q-.027,9.322,0,18.644a2.171,2.171,0,0,0,.2,1.334c1.1-1.116,2.112-2.212,3.2-3.233.586-.551.749-.849.066-1.547a4.505,4.505,0,0,1-.96-5.185,4.417,4.417,0,0,1,4.1-2.984q6.271-.14,12.547-.009a4.9,4.9,0,0,1-.674,9.782c-1.475,0-.836,1.075-.983,1.667-.232.931.624.478.94.486,2.11.051,4.223-.009,6.333.045.791.02.987-.222.985-1q-.036-17.927-.021-35.854a2.585,2.585,0,0,0-2.893-2.871c-1.633-.02-3.267,0-4.9,0-4.98,0-9.96-.008-14.939,0-1.989,0-2.924.926-3,2.908-.024.637-.035,1.276,0,1.912a1.733,1.733,0,0,1-1.56,2.028,1.751,1.751,0,0,1-1.484-2.089c.044-.674,0-1.354.011-2.031a5.511,5.511,0,0,1,5.569-5.777q10.337-.119,20.676,0a5.54,5.54,0,0,1,5.6,5.765q.025,20.438,0,40.877a5.6,5.6,0,0,1-5.785,5.832c-3.824.037-7.65.039-11.474-.013-.9-.012-1.209.23-1.109,1.129a10.226,10.226,0,0,1-2.82,8.318c-.64.706-1.147,1.529-1.756,2.265a4.493,4.493,0,0,0-1.209,2.987,3.449,3.449,0,0,1-3.474,3.281q-6.393.087-12.788,0a3.652,3.652,0,0,1-3.579-3.731c-.015-.6.025-1.2-.01-1.792a1.673,1.673,0,0,1,1.456-1.977,1.685,1.685,0,0,1,1.631,1.953c-.01.478.024.958-.006,1.434-.048.764.269,1.066,1.047,1.062q5.858-.034,11.716,0c.711,0,1.093-.284,1-.982a4.393,4.393,0,0,1,1.34-3.554c.671-.787,1.193-1.706,1.9-2.455a9.077,9.077,0,0,0,2.521-7.3,7.325,7.325,0,0,1,2.476-5.985c1.152-1.1,2.272-2.237,3.387-3.375,1.518-1.549,1.6-3.425.242-4.753-1.31-1.277-3.13-1.143-4.646.364-2.2,2.191-4.41,4.381-6.59,6.6-1.04,1.057-2.072,2.071-3.727,1.382-1.61-.669-1.609-2.076-1.6-3.518.026-3.865.015-7.731,0-11.6,0-.41.172-.869-.213-1.282a4.75,4.75,0,0,0-.456.378c-2.212,2.351-4.431,4.695-6.625,7.062a6.565,6.565,0,0,0-1.773,4.68c.026,4.582,0,9.165.015,13.748,0,1.16-.4,1.93-1.635,2.075m25.628-9.461c4.062,0,7.747.04,11.43-.02a2.5,2.5,0,0,0,2.417-2.6c.035-.672-.068-.982-.872-.967-2.859.054-5.72.026-8.58.016a1.44,1.44,0,0,0-1.169.415c-.964,1-1.979,1.944-3.226,3.156m1.048-15.616c-1.511,0-3.022,0-4.533,0-.556,0-1.116-.012-1.668.04a1.7,1.7,0,0,0-1.545,1.438,1.662,1.662,0,0,0,.743,1.873c.819.531,1.1-.364,1.531-.713a5.955,5.955,0,0,1,7.682-.012,4.061,4.061,0,0,0,3.3,1.083c1.327-.05,2.171-.763,2.162-1.868s-.838-1.821-2.189-1.836c-1.829-.021-3.658-.005-5.487-.006" transform="translate(0 -52.366)"/>
    <path id="Trazado_105442" data-name="Trazado 105442" d="M42.656,93.511a1.733,1.733,0,0,0,1.56-2.028c-.034-.635-.023-1.275,0-1.912.075-1.982,1.01-2.9,3-2.908,4.98-.012,9.96,0,14.939,0,1.633,0,3.267-.016,4.9,0a2.585,2.585,0,0,1,2.893,2.871q.013,17.927.021,35.854c0,.773-.194,1.016-.985,1-2.11-.054-4.223.006-6.333-.045-.316-.008-1.172.445-.94-.486.147-.592-.491-1.67.983-1.667a4.9,4.9,0,0,0,.674-9.782q-6.272-.124-12.547.009a4.419,4.419,0,0,0-4.1,2.984,4.506,4.506,0,0,0,.96,5.185c.684.7.52,1-.066,1.547-1.086,1.022-2.1,2.118-3.2,3.233a2.171,2.171,0,0,1-.2-1.334q-.013-9.322,0-18.644c0-1.128-.275-1.971-1.549-2.132l0-4a1.735,1.735,0,0,0,1.558-1.892,1.714,1.714,0,0,0-1.569-1.873q0-1.988-.007-3.976M59.68,108.2c.028,2.286.563,3.369,1.974,3.785a7.149,7.149,0,0,0,3.069.112,1.384,1.384,0,0,0,1.264-1.6,1.445,1.445,0,0,0-1.5-1.4c-1.641-.125-1.64-.139-1.712-1.789-.005-.119,0-.239-.015-.356A1.451,1.451,0,0,0,61.35,105.6a1.411,1.411,0,0,0-1.555,1.186,9.006,9.006,0,0,0-.116,1.415m0-10.775c-.038,1.49.062,2.939,1.637,3.668a5.734,5.734,0,0,0,3.63.19,1.316,1.316,0,0,0,1.041-1.534,1.452,1.452,0,0,0-1.39-1.391c-.579-.074-1.362.287-1.687-.2-.282-.42-.106-1.147-.132-1.738,0-.08,0-.16-.013-.238a1.443,1.443,0,0,0-1.411-1.367A1.412,1.412,0,0,0,59.795,96a8.74,8.74,0,0,0-.114,1.421M48.425,108.3c-.01,2.326.585,3.369,2.144,3.738a7.676,7.676,0,0,0,2.732.074,1.4,1.4,0,0,0,1.352-1.643,1.308,1.308,0,0,0-1.513-1.337c-1.5.194-1.884-.458-1.65-1.784a1.162,1.162,0,0,0-.034-.474,1.494,1.494,0,0,0-1.508-1.282,1.454,1.454,0,0,0-1.514,1.394,10.265,10.265,0,0,0-.01,1.312m3.693-6.886a8.422,8.422,0,0,0,.951-.006c.939-.106,1.6-.559,1.563-1.584a1.372,1.372,0,0,0-1.646-1.448c-1.289.151-1.689-.36-1.5-1.555a1.8,1.8,0,0,0-.033-.709,1.48,1.48,0,0,0-1.6-1.3,1.448,1.448,0,0,0-1.431,1.465c-.038.473-.012.951-.012,1.427,0,2.766.944,3.711,3.7,3.705m5.033-10.439c1.349,0,2.065-.562,2.03-1.58-.033-.961-.742-1.484-2.022-1.49q-2.077-.011-2.079,1.54c0,1.035.674,1.535,2.071,1.531" transform="translate(-29.023 -58.959)" fill="#95c4d9"/>
    <path id="Trazado_105443" data-name="Trazado 105443" d="M4.577,201.86c1.24-.145,1.64-.916,1.635-2.075-.018-4.582.011-9.165-.015-13.748a6.566,6.566,0,0,1,1.773-4.68c2.194-2.367,4.413-4.712,6.625-7.062a4.789,4.789,0,0,1,.456-.378c.384.413.211.872.213,1.282.015,3.865.026,7.731,0,11.6-.01,1.442-.011,2.849,1.6,3.518,1.655.688,2.687-.325,3.727-1.382,2.18-2.216,4.386-4.406,6.59-6.6,1.516-1.507,3.336-1.641,4.646-.364,1.362,1.328,1.276,3.2-.242,4.753C30.469,187.861,29.349,189,28.2,190.1a7.326,7.326,0,0,0-2.476,5.985,9.076,9.076,0,0,1-2.521,7.3c-.706.749-1.228,1.669-1.9,2.456a4.392,4.392,0,0,0-1.34,3.554c.094.7-.288.986-1,.982q-5.858-.027-11.716,0c-.778,0-1.1-.3-1.047-1.062.03-.476,0-.956.006-1.434a1.685,1.685,0,0,0-1.631-1.953q0-2.036,0-4.071" transform="translate(-3.113 -118.333)" fill="#fdb89c"/>
    <path id="Trazado_105444" data-name="Trazado 105444" d="M72.959,8.258a1.458,1.458,0,0,1-.774,1.453,1.4,1.4,0,0,1-1.669-.165,5.852,5.852,0,0,1-.7-.8,15.006,15.006,0,0,0-23.473-.049c-.126.154-.237.321-.366.471-.713.826-1.6.992-2.285.369A1.511,1.511,0,0,1,43.553,7.3a17.725,17.725,0,0,1,7.405-5.839A18.052,18.052,0,0,1,72.165,6.78c.368.458.824.887.794,1.478" transform="translate(-29.341 0)"/>
    <path id="Trazado_105445" data-name="Trazado 105445" d="M79.9,28.739a1.441,1.441,0,0,1-.971,1.477,1.51,1.51,0,0,1-1.8-.557,7.574,7.574,0,0,0-4.813-3.041,7.409,7.409,0,0,0-7,2.4c-.109.115-.2.247-.305.366-.818.924-1.624,1.092-2.366.494s-.74-1.548.054-2.518a10.174,10.174,0,0,1,6.31-3.765A10.436,10.436,0,0,1,79.223,27.37a2.069,2.069,0,0,1,.676,1.369" transform="translate(-42.247 -15.932)"/>
    <path id="Trazado_105446" data-name="Trazado 105446" d="M84.362,48.527a2.585,2.585,0,1,1-2.611,2.561,2.625,2.625,0,0,1,2.611-2.561" transform="translate(-55.624 -33.018)"/>
    <path id="Trazado_105447" data-name="Trazado 105447" d="M39.481,120.554a1.715,1.715,0,0,1,1.569,1.873,1.573,1.573,0,1,1-3.07-.048,1.707,1.707,0,0,1,1.5-1.824" transform="translate(-25.841 -82.025)"/>
    <path id="Trazado_105448" data-name="Trazado 105448" d="M264.036,4.135a1.848,1.848,0,0,1-3.668.009,1.881,1.881,0,0,1,3.668-.009" transform="translate(-177.155 -1.82)"/>
    <path id="Trazado_105449" data-name="Trazado 105449" d="M204.477,133.284q0,13.027,0,26.054c0,2.331-.892,3.253-3.247,3.255q-19.839.018-39.679,0c-2.462,0-3.417-.951-3.429-3.4-.02-4.183.01-8.366-.02-12.549-.005-.773.215-1.1,1.016-1.013a6.662,6.662,0,0,0,1.432-.014,4.651,4.651,0,0,0,4.366-4.933q.071-8.485,0-16.971c-.024-3.055-1.929-4.852-4.981-4.872-1.937-.013-1.819.255-1.819-1.772q0-4.9,0-9.8c.006-2.594.866-3.461,3.412-3.461h39.678c2.468,0,3.268.806,3.269,3.3q0,13.087,0,26.173m-18.417-6.721h-.005c0-3.228.024-6.457-.008-9.685a5.89,5.89,0,0,0-3.242-5.348c-4.323-2.4-9.354.7-9.388,5.78-.04,6.058-.025,12.116,0,18.173a4.926,4.926,0,0,1-.9,3.083,8.619,8.619,0,0,0,1.664,11.61A8.748,8.748,0,0,0,186.62,138a2.41,2.41,0,0,1-.57-1.63c.021-3.268.01-6.536.01-9.8m5.989-10.063c.554,0,1.111.036,1.661-.008a1.52,1.52,0,0,0,.133-3.019,18.334,18.334,0,0,0-3.436,0,1.362,1.362,0,0,0-1.3,1.555,1.42,1.42,0,0,0,1.518,1.474c.474.024.95,0,1.424,0m.134,18.613c-.593,0-1.191-.042-1.78.01a1.465,1.465,0,0,0-.071,2.9,24.763,24.763,0,0,0,3.558,0,1.3,1.3,0,0,0,1.241-1.467,1.334,1.334,0,0,0-1.287-1.433,15.565,15.565,0,0,0-1.661-.013m.034-10.753v-.008c-.593,0-1.191-.047-1.779.011a1.345,1.345,0,0,0-1.326,1.512,1.305,1.305,0,0,0,1.308,1.406,29.459,29.459,0,0,0,3.439-.008,1.3,1.3,0,0,0,1.272-1.439,1.332,1.332,0,0,0-1.255-1.46,13.113,13.113,0,0,0-1.659-.013m-1.292-2.413c1.168.006,1.948-.655,1.916-1.624-.03-.889-.79-1.464-1.928-1.457-1.2.006-1.815.522-1.81,1.53.005.983.665,1.545,1.821,1.551m.05,7.7c-1.221-.008-1.853.5-1.872,1.5s.646,1.577,1.805,1.589,1.858-.545,1.874-1.522c.017-1.006-.621-1.559-1.807-1.567" transform="translate(-107.572 -70.634)" fill="#c6edff"/>
    <path id="Trazado_105450" data-name="Trazado 105450" d="M158.09,170.5c0-3.023.03-6.047-.018-9.07-.015-.938.183-1.354,1.236-1.322,2.049.063,2.514.466,2.514,2.541q0,8,0,15.992a2.309,2.309,0,0,1-3.39,2.2c-.53-.218-.328-.673-.33-1.028-.017-3.1-.01-6.206-.01-9.309" transform="translate(-107.547 -108.935)" fill="#2941a0"/>
    <path id="Trazado_105451" data-name="Trazado 105451" d="M158.111,41.888c0-1.43.028-2.861-.012-4.29-.02-.729.254-.953.971-.971,2.256-.057,2.773.4,2.773,2.624q0,3.039,0,6.078a1.54,1.54,0,0,1-.928,1.647,4.721,4.721,0,0,1-2.579.052c-.348-.074-.219-.548-.221-.85-.011-1.43,0-2.86,0-4.291" transform="translate(-107.567 -24.918)" fill="#2941a0"/>
    <path id="Trazado_105452" data-name="Trazado 105452" d="M84.769,224.105c1.247-1.213,2.261-2.16,3.226-3.156a1.439,1.439,0,0,1,1.169-.416c2.86.01,5.721.038,8.58-.016.8-.015.907.3.872.967a2.5,2.5,0,0,1-2.417,2.6c-3.683.06-7.367.02-11.43.02" transform="translate(-57.677 -150.04)" fill="#23778e"/>
    <path id="Trazado_105453" data-name="Trazado 105453" d="M71.44,182.876c1.829,0,3.658-.015,5.487.006,1.351.015,2.18.735,2.189,1.836s-.836,1.819-2.162,1.868a4.063,4.063,0,0,1-3.3-1.083,5.955,5.955,0,0,0-7.682.012c-.432.348-.712,1.243-1.531.713a1.662,1.662,0,0,1-.743-1.873,1.7,1.7,0,0,1,1.545-1.438c.552-.053,1.111-.039,1.668-.04,1.511,0,3.022,0,4.533,0" transform="translate(-43.3 -124.425)" fill="#38d4ff"/>
    <path id="Trazado_105454" data-name="Trazado 105454" d="M95.922,148.514a9,9,0,0,1,.116-1.415,1.41,1.41,0,0,1,1.555-1.186,1.45,1.45,0,0,1,1.415,1.357c.017.117.009.238.015.356.072,1.65.071,1.664,1.712,1.789a1.445,1.445,0,0,1,1.495,1.4,1.383,1.383,0,0,1-1.264,1.6A7.137,7.137,0,0,1,97.9,152.3c-1.411-.416-1.946-1.5-1.974-3.785" transform="translate(-65.265 -99.277)"/>
    <path id="Trazado_105455" data-name="Trazado 105455" d="M95.911,114.785a8.74,8.74,0,0,1,.114-1.421,1.411,1.411,0,0,1,1.56-1.187A1.443,1.443,0,0,1,99,113.544c.011.079.009.159.013.238.027.591-.15,1.318.132,1.738.325.485,1.108.124,1.687.2a1.452,1.452,0,0,1,1.39,1.391,1.316,1.316,0,0,1-1.041,1.534,5.732,5.732,0,0,1-3.63-.19c-1.574-.728-1.675-2.178-1.636-3.668" transform="translate(-65.254 -76.322)"/>
    <path id="Trazado_105456" data-name="Trazado 105456" d="M60.67,148.619a10.265,10.265,0,0,1,.01-1.312,1.454,1.454,0,0,1,1.514-1.394,1.494,1.494,0,0,1,1.508,1.282,1.156,1.156,0,0,1,.033.474c-.234,1.325.152,1.978,1.65,1.784a1.308,1.308,0,0,1,1.513,1.336,1.4,1.4,0,0,1-1.352,1.644,7.675,7.675,0,0,1-2.732-.074c-1.559-.369-2.154-1.413-2.144-3.738" transform="translate(-41.267 -99.279)"/>
    <path id="Trazado_105457" data-name="Trazado 105457" d="M64.362,118.778c-2.759.005-3.7-.939-3.7-3.705,0-.476-.026-.954.012-1.427A1.448,1.448,0,0,1,62.1,112.18a1.481,1.481,0,0,1,1.6,1.3,1.808,1.808,0,0,1,.033.709c-.192,1.195.209,1.705,1.5,1.555a1.373,1.373,0,0,1,1.646,1.448c.035,1.025-.625,1.478-1.563,1.584a8.42,8.42,0,0,1-.951.006" transform="translate(-41.266 -76.325)"/>
    <path id="Trazado_105458" data-name="Trazado 105458" d="M83.6,93.633c-1.4,0-2.072-.5-2.071-1.531s.694-1.547,2.079-1.54c1.28.006,1.989.529,2.022,1.49.035,1.019-.681,1.576-2.03,1.58" transform="translate(-55.474 -61.618)"/>
    <path id="Trazado_105459" data-name="Trazado 105459" d="M213.484,141.239c0,3.268.011,6.536-.01,9.8a2.412,2.412,0,0,0,.57,1.63,8.748,8.748,0,0,1-12.432,12.18,8.619,8.619,0,0,1-1.664-11.61,4.925,4.925,0,0,0,.9-3.083c-.029-6.058-.043-12.116,0-18.173.034-5.081,5.064-8.177,9.388-5.781a5.89,5.89,0,0,1,3.242,5.348c.031,3.228.008,6.456.008,9.684Zm-9.567.693c0,2.867-.043,5.735.017,8.6a5.978,5.978,0,0,1-1.311,4.278,5.466,5.466,0,0,0,.852,7.527,5.719,5.719,0,0,0,7.626-.095,5.564,5.564,0,0,0,.58-7.569,5.044,5.044,0,0,1-1.27-3.816c.057-1.032.011-2.07.011-3.105,0-5.216-.015-10.433.009-15.649a3.328,3.328,0,0,0-1.764-3.27,3.258,3.258,0,0,0-4.738,3.063c-.048,3.344-.012,6.69-.013,10.035" transform="translate(-134.996 -85.309)"/>
    <path id="Trazado_105460" data-name="Trazado 105460" d="M258.051,136.9c-.475,0-.951.022-1.424,0a1.42,1.42,0,0,1-1.518-1.474,1.362,1.362,0,0,1,1.3-1.555,18.33,18.33,0,0,1,3.435,0,1.52,1.52,0,0,1-.132,3.02c-.55.044-1.107.008-1.661.01" transform="translate(-173.574 -91.027)"/>
    <path id="Trazado_105461" data-name="Trazado 105461" d="M258.2,201.717a15.463,15.463,0,0,1,1.661.012,1.335,1.335,0,0,1,1.287,1.433,1.3,1.3,0,0,1-1.242,1.467,24.805,24.805,0,0,1-3.558,0,1.465,1.465,0,0,1,.071-2.9c.589-.052,1.187-.01,1.78-.009" transform="translate(-173.585 -137.236)"/>
    <path id="Trazado_105462" data-name="Trazado 105462" d="M258.235,168.053a13.236,13.236,0,0,1,1.659.013,1.333,1.333,0,0,1,1.255,1.461,1.3,1.3,0,0,1-1.272,1.439,29.462,29.462,0,0,1-3.439.008,1.306,1.306,0,0,1-1.308-1.406,1.344,1.344,0,0,1,1.327-1.512c.587-.058,1.185-.011,1.779-.011v.008" transform="translate(-173.59 -114.326)"/>
    <path id="Trazado_105463" data-name="Trazado 105463" d="M256.927,154c-1.157-.006-1.816-.568-1.821-1.551-.005-1.007.605-1.523,1.81-1.53,1.137-.006,1.9.569,1.928,1.457.032.969-.748,1.63-1.916,1.624" transform="translate(-173.574 -102.684)"/>
    <path id="Trazado_105464" data-name="Trazado 105464" d="M256.975,184.66c1.186.008,1.824.561,1.807,1.567-.016.977-.7,1.533-1.874,1.522s-1.824-.6-1.805-1.589.651-1.508,1.872-1.5" transform="translate(-173.572 -125.643)"/>
    <path id="Trazado_105465" data-name="Trazado 105465" d="M210.477,148.472c0-3.345-.035-6.69.012-10.035a3.258,3.258,0,0,1,4.738-3.063,3.329,3.329,0,0,1,1.764,3.27c-.024,5.216-.009,10.433-.009,15.65,0,1.035.046,2.073-.011,3.105a5.043,5.043,0,0,0,1.27,3.816,5.564,5.564,0,0,1-.58,7.569,5.719,5.719,0,0,1-7.627.095,5.467,5.467,0,0,1-.852-7.527,5.98,5.98,0,0,0,1.311-4.278c-.06-2.866-.017-5.734-.017-8.6m4.759,6.409c0-2.11.013-4.221-.005-6.331-.01-1.151-.559-1.793-1.5-1.748-1.124.055-1.449.794-1.447,1.794.005,4.022-.016,8.044.016,12.066a2.3,2.3,0,0,1-.809,1.958,3.083,3.083,0,0,0-.146,4.4,3.223,3.223,0,0,0,4.512.305c1.276-1.1,1.648-3.262.407-4.369-1.129-1.008-1.023-2.1-1.027-3.3-.005-1.593,0-3.185,0-4.778" transform="translate(-141.556 -91.85)" fill="#38d4ff"/>
    <path id="Trazado_105466" data-name="Trazado 105466" d="M220.448,180.016c0,1.593,0,3.186,0,4.778,0,1.2-.1,2.287,1.028,3.3,1.241,1.108.869,3.27-.407,4.369a3.223,3.223,0,0,1-4.512-.305,3.083,3.083,0,0,1,.146-4.4,2.305,2.305,0,0,0,.809-1.958c-.032-4.022-.011-8.044-.016-12.066,0-1,.324-1.739,1.447-1.794.939-.046,1.489.6,1.5,1.748.018,2.11.005,4.221.005,6.331" transform="translate(-146.768 -116.985)" fill="#2941a0"/>
  </g>
</svg>
