<svg id="Grupo_111305" data-name="Grupo 111305" xmlns="http://www.w3.org/2000/svg" xmlns:xlink="http://www.w3.org/1999/xlink" width="54" height="37.821" viewBox="0 0 54 37.821">
  <defs>
    <clipPath id="clip-path">
      <rect id="Rectángulo_37244" data-name="Rectángulo 37244" width="54" height="37.821" fill="#22afd6"/>
    </clipPath>
  </defs>
  <g id="Grupo_111303" data-name="Grupo 111303" clip-path="url(#clip-path)">
    <path id="Trazado_105577" data-name="Trazado 105577" d="M7.145,11.733c-.759-.136-.97-.384-1.024-1.152C6.033,9.339,5.931,8.1,5.841,6.854c-.024-.326-.151-.518-.506-.542A5.358,5.358,0,0,1,.119,2.06C.1,1.99.081,1.927,0,1.91V.644A1.207,1.207,0,0,1,1.211,0q22.1.016,44.194.01a4.5,4.5,0,0,1,4.717,3.866c.267,1.252.544,2.5.809,3.756.161.762.031,1.036-.621,1.365-.751-.026-.991-.227-1.145-.959-.283-1.338-.56-2.677-.852-4.013a2.679,2.679,0,0,0-2.746-2.215q-21.558,0-43.116,0c-.55,0-.581.04-.338.559A3.606,3.606,0,0,0,5.459,4.525,2.129,2.129,0,0,1,7.612,6.556c.128,1.328.219,2.659.308,3.99.048.727-.076.891-.775,1.187" transform="translate(0 0.001)" fill="#22afd6"/>
    <path id="Trazado_105579" data-name="Trazado 105579" d="M62.755,45.853c.7.1.915.314.969,1.011.247,3.186.469,6.375.733,9.56a56.8,56.8,0,0,0,.519,5.872,5.2,5.2,0,0,0,5.076,4.254q8.752.056,17.5,0a5.342,5.342,0,0,0,5.166-4.965c.37-4.991.759-9.98,1.136-14.971q.431-5.7.846-11.4c.037-.52.233-.9.754-1a.831.831,0,0,1,1,.644c.082.264.253.239.446.239.949,0,1.9-.007,2.847,0a2.609,2.609,0,0,1,2.676,2.153c.993,4.756,1.963,9.516,2.942,14.275.106.515.205,1.032.318,1.546a1,1,0,0,0,1.156.884.971.971,0,0,0,.678-1.278q-.827-3.912-1.656-7.824c-.163-.769-.077-.976.588-1.389.768.037.993.216,1.152.956.573,2.676,1.149,5.35,1.7,8.029a2.728,2.728,0,0,1-2.014,3.231A2.681,2.681,0,0,1,104,53.659c-.663-3.015-1.264-6.043-1.886-9.066-.467-2.268-.925-4.537-1.39-6.806a.938.938,0,0,0-1.089-.894c-.932,0-1.864.02-2.794-.011-.379-.013-.468.13-.492.468-.144,2.05-.3,4.1-.458,6.149q-.408,5.413-.815,10.825c-.184,2.452-.383,4.9-.548,7.357a7.177,7.177,0,0,1-6.761,6.66c-2.493.088-4.991.033-7.487.036-3.287,0-6.574.013-9.861,0a7.145,7.145,0,0,1-7.274-6.037c-.247-1.449-.266-2.937-.379-4.408-.272-3.555-.534-7.112-.811-10.667-.07-.9.068-1.175.8-1.41" transform="translate(-55.375 -30.57)" fill="#22afd6"/>
    <path id="Trazado_105580" data-name="Trazado 105580" d="M129.989,59.668h9.487a3.873,3.873,0,0,1,.526.012.811.811,0,0,1,.742.708.848.848,0,0,1-.474.965,1.471,1.471,0,0,1-.72.114q-9.566,0-19.132,0a2.153,2.153,0,0,1-.572-.054.884.884,0,0,1,.183-1.736c.3-.017.6-.006.9-.006h9.065" transform="translate(-106.568 -53.346)" fill="#22afd6"/>
    <path id="Trazado_105581" data-name="Trazado 105581" d="M137.43,129.34h-8.642a3.145,3.145,0,0,1-.526-.018.893.893,0,0,1,.023-1.766,2.4,2.4,0,0,1,.368-.011q8.773,0,17.547,0a1.018,1.018,0,0,1,.992.461.831.831,0,0,1-.012.9,1.041,1.041,0,0,1-1,.443q-4.374-.01-8.747,0" transform="translate(-114.01 -114.032)" fill="#22afd6"/>
    <path id="Trazado_105582" data-name="Trazado 105582" d="M145.114,197.235h-7.647a3.362,3.362,0,0,1-.579-.022.8.8,0,0,1-.71-.738.844.844,0,0,1,.461-.924,1.362,1.362,0,0,1,.667-.118q7.858,0,15.716,0a1.921,1.921,0,0,1,.367.021.891.891,0,0,1,.749.938.844.844,0,0,1-.851.831c-.474.024-.949.01-1.424.01h-6.751" transform="translate(-121.746 -174.734)" fill="#22afd6"/>
    <path id="Trazado_105583" data-name="Trazado 105583" d="M152.594,263.418h6.637c.141,0,.281,0,.421,0,.632.029,1.029.371,1.04.89a.942.942,0,0,1-1.058.927c-2.107.01-4.214,0-6.321,0h-7.479a3.891,3.891,0,0,1-.474-.01.925.925,0,0,1-.877-.94.881.881,0,0,1,.9-.855c.754-.032,1.509-.017,2.264-.017q2.476,0,4.951,0" transform="translate(-129.18 -235.517)" fill="#22afd6"/>
    <path id="Trazado_105584" data-name="Trazado 105584" d="M234.571,93.638c1.3,0,2.6,0,3.9,0,.677,0,1.054.334,1.047.9a.9.9,0,0,1-1.022.889q-3.9.01-7.8,0c-.667,0-1.054-.354-1.049-.917s.392-.875,1.077-.876c1.282,0,2.565,0,3.847,0" transform="translate(-205.325 -83.72)" fill="#22afd6"/>
    <path id="Trazado_105585" data-name="Trazado 105585" d="M234.006,163.292c-1.142,0-2.284,0-3.426,0-.665,0-1.081-.355-1.077-.891s.414-.9,1.072-.9q3.426-.006,6.852,0c.652,0,1.076.362,1.082.9s-.422.893-1.076.9c-1.142.005-2.284,0-3.426,0" transform="translate(-205.196 -144.389)" fill="#22afd6"/>
    <path id="Trazado_105586" data-name="Trazado 105586" d="M233.508,229.4c.984,0,1.968-.005,2.951,0,.683,0,1.073.33,1.087.883s-.354.926-1.034.931q-3,.023-6.008,0a.932.932,0,0,1-1.049-.933c.02-.536.435-.878,1.1-.883.984-.007,1.967,0,2.951,0" transform="translate(-205.153 -205.106)" fill="#22afd6"/>
    <path id="Trazado_105587" data-name="Trazado 105587" d="M233.092,297.613c.86,0,1.721-.006,2.581,0a.9.9,0,1,1,.036,1.791q-2.633.023-5.267,0a.911.911,0,0,1-.961-.911.9.9,0,0,1,.977-.879c.878-.011,1.755,0,2.633,0" transform="translate(-205.177 -266.09)" fill="#22afd6"/>
  </g>
</svg>
