<svg id="Grupo_111302" data-name="Grupo 111302" xmlns="http://www.w3.org/2000/svg" xmlns:xlink="http://www.w3.org/1999/xlink" width="54.11" height="54" viewBox="0 0 54.11 54">
  <defs>
    <clipPath id="clip-path">
      <rect id="Rectángulo_37243" data-name="Rectángulo 37243" width="54.11" height="54" fill="#22afd6"/>
    </clipPath>
  </defs>
  <g id="Grupo_111300" data-name="Grupo 111300" clip-path="url(#clip-path)">
    <path id="Trazado_105544" data-name="Trazado 105544" d="M43.135,21.669c-.734-.218-.862-.4-.863-1.233q0-8.56,0-17.12c0-1.232-.325-1.56-1.559-1.56H9.706c-1.13,0-1.484.351-1.485,1.464,0,1.354.01,2.707-.007,4.061,0,.328.071.45.422.434.657-.029,1.317-.028,1.975,0,.353.015.451-.117.424-.443a2.437,2.437,0,0,1,.031-.655.818.818,0,0,1,.905-.7.759.759,0,0,1,.842.759q.045,1.782,0,3.566a.923.923,0,0,1-.934.835.886.886,0,0,1-.841-.854c-.105-.952-.105-.952-1.069-.952-.457,0-.915.013-1.372,0-.273-.011-.385.055-.385.359q.013,6.667,0,13.334c0,.294.092.374.374.365.6-.019,1.209-.036,1.81,0,.481.031.7-.086.64-.614a.882.882,0,0,1,.628-1.031.847.847,0,0,1,1.153.806c.027,1.133.022,2.268,0,3.4a.95.95,0,0,1-.909.923.9.9,0,0,1-.879-.93c-.056-.744-.056-.744-.833-.744-.494,0-.99.03-1.481-.009-.419-.033-.513.11-.511.515.018,3.146.01,6.292.01,9.438,0,1.225.013,2.451-.008,3.676-.006.343.1.439.433.427.658-.024,1.317-.019,1.975,0,.309.008.432-.1.412-.411a3.834,3.834,0,0,1,.018-.712.876.876,0,0,1,.943-.8.809.809,0,0,1,.826.848q.032,1.7,0,3.4a.914.914,0,0,1-.909.91.83.83,0,0,1-.865-.919c0-.438-.138-.557-.559-.533-.62.035-1.244.022-1.865,0-.293-.009-.412.053-.411.382.012,3.256,0,6.512.011,9.767a1.109,1.109,0,0,0,1.259,1.191c1.628.01,3.256,0,4.884,0q6.558,0,13.116,0c.818,0,1.071.208,1.2.956-.1.595-.511.747-1.037.747h-18a2.809,2.809,0,0,1-3.109-3.077c0-.768-.016-1.537.006-2.3.011-.353-.085-.478-.458-.471a10.352,10.352,0,0,1-2.569-.117,4.482,4.482,0,0,1,.86-8.857c.6-.023,1.207-.016,1.811-.006.257,0,.354-.083.353-.347q-.011-3.045,0-6.091c0-.341-.187-.321-.42-.328a14.264,14.264,0,0,1-2.463-.08A4.512,4.512,0,0,1,.015,27.672a4.627,4.627,0,0,1,4.363-4.346c.584-.026,1.171-.022,1.756,0,.3.009.416-.064.414-.392q-.022-2.853,0-5.707c0-.36-.13-.415-.447-.417a14.462,14.462,0,0,1-2.3-.065A4.564,4.564,0,0,1,.014,11.959,4.508,4.508,0,0,1,4.431,7.71a15.013,15.013,0,0,1,1.59.006c.47.041.533-.16.527-.561-.021-1.353-.012-2.707-.007-4.06A2.794,2.794,0,0,1,9.572.051q15.668,0,31.336,0a2.921,2.921,0,0,1,3.183,3.166q0,8.588,0,17.175c0,.858-.178,1.091-.956,1.277M6.541,12.136c0-.823-.011-1.647.006-2.47.006-.309-.088-.419-.4-.406-.566.023-1.135-.01-1.7.014a2.761,2.761,0,0,0-2.729,2.789,2.828,2.828,0,0,0,2.669,2.923c.583.035,1.171,0,1.755.024.308.012.417-.089.41-.4-.019-.823-.006-1.646-.006-2.469m0,15.879c0-.822-.01-1.644.005-2.465.005-.291-.055-.436-.388-.422-.62.026-1.243-.013-1.862.026a2.91,2.91,0,0,0-2.572,2.634A2.748,2.748,0,0,0,3.888,30.78a15.657,15.657,0,0,0,2.239.089c.359.026.427-.124.42-.443-.018-.8-.006-1.607-.006-2.41m0,15.786c0-.823-.006-1.645,0-2.468,0-.24-.04-.37-.325-.362-.639.019-1.282-.025-1.919.018A2.9,2.9,0,0,0,1.715,43.9,2.737,2.737,0,0,0,4.422,46.58c.584.017,1.17-.007,1.755.013.292.01.375-.1.37-.379-.016-.8-.006-1.609-.006-2.413" transform="translate(0 -0.042)" fill="#22afd6"/>
    <path id="Trazado_105545" data-name="Trazado 105545" d="M213.367,194.241a3.5,3.5,0,0,1-1.055-2.662q.025-11.414.01-22.828a3.157,3.157,0,0,1,3.416-3.421c2.653-.008,5.305,0,7.958,0,.2,0,.4-.02.6-.03q3.456.016,6.912.034a11.473,11.473,0,0,1,1.151.031,3.118,3.118,0,0,1,2.9,3.154c.02,1.061,0,2.122,0,3.183,0,6.567-.02,13.134.014,19.7a3.431,3.431,0,0,1-3.653,3.647c-5.249-.071-10.5-.029-15.751-.014a3.818,3.818,0,0,1-2.5-.79m20.07-14.1q0-5.624,0-11.248c0-1.313-.432-1.749-1.732-1.749H216.121a3.326,3.326,0,0,1-.547-.02,1.173,1.173,0,0,0-1.366.788,2.44,2.44,0,0,0-.1.866q0,9.821,0,19.642c0,1.1-.011,2.195,0,3.292a1.354,1.354,0,0,0,1.46,1.485q8.2.012,16.407,0a1.337,1.337,0,0,0,1.457-1.425c.009-.183,0-.366,0-.549q0-5.541,0-11.083" transform="translate(-181.164 -141.045)" fill="#22afd6"/>
    <path id="Trazado_105546" data-name="Trazado 105546" d="M318.716,10.342c0-2.487-.018-4.974.005-7.461A2.8,2.8,0,0,1,322.815.322a2.77,2.77,0,0,1,1.531,2.534c.142,2.758.108,5.516.112,8.275,0,2.012-.008,4.024.006,6.035a2.971,2.971,0,0,1-.448,1.751c-.621.962-1.1,2.016-1.639,3.032a.815.815,0,0,1-1.527.058c-.7-1.175-1.359-2.376-2.033-3.568a1.136,1.136,0,0,1-.113-.582q.006-3.758,0-7.516h.01m1.818,1.014c0,1.773.007,3.547-.007,5.32,0,.326.073.459.423.436a10.171,10.171,0,0,1,1.37,0c.362.025.456-.1.454-.453q-.02-5.293,0-10.586c0-.319-.056-.465-.414-.44a10.547,10.547,0,0,1-1.37,0c-.357-.022-.467.1-.463.457.017,1.755.008,3.51.008,5.265" transform="translate(-271.946 0)" fill="#22afd6"/>
    <path id="Trazado_105547" data-name="Trazado 105547" d="M117.165,40.186q-5.458,0-10.916,0c-.776,0-1.184-.368-1.131-1.005a.764.764,0,0,1,.708-.776,4.534,4.534,0,0,1,.6-.028h21.5c.917,0,1.357.3,1.35.912s-.445.9-1.364.9H117.165" transform="translate(-89.692 -32.745)" fill="#22afd6"/>
    <path id="Trazado_105548" data-name="Trazado 105548" d="M117.244,119.887q-5.484,0-10.967,0c-.784,0-1.165-.358-1.107-1.011a.772.772,0,0,1,.722-.762,2.962,2.962,0,0,1,.438-.011H128.1a2.209,2.209,0,0,1,.492.02.844.844,0,0,1,.72.9.818.818,0,0,1-.772.848,4.846,4.846,0,0,1-.6.016H117.244" transform="translate(-89.735 -100.771)" fill="#22afd6"/>
    <path id="Trazado_105549" data-name="Trazado 105549" d="M117.132,79.084H127.88a4.256,4.256,0,0,1,.548.013.815.815,0,0,1,.766.851.847.847,0,0,1-.723.9,1.449,1.449,0,0,1-.328.016q-11.022,0-22.044,0a.926.926,0,0,1-1-.59.846.846,0,0,1,.851-1.189c.987-.015,1.974,0,2.961,0h8.225" transform="translate(-89.619 -67.478)" fill="#22afd6"/>
    <path id="Trazado_105550" data-name="Trazado 105550" d="M112.675,157.092q3.237,0,6.474,0a.982.982,0,0,1,1.064.595.858.858,0,0,1-.584,1.165,1.861,1.861,0,0,1-.488.056q-6.447,0-12.894,0c-.725,0-1.093-.283-1.135-.839-.047-.621.309-.969,1.033-.973,1.591-.008,3.182,0,4.773,0h1.756" transform="translate(-89.688 -134.043)" fill="#22afd6"/>
    <path id="Trazado_105551" data-name="Trazado 105551" d="M111.629,315.712c1.829,0,3.659-.007,5.488,0a.906.906,0,0,1,.92,1.321.94.94,0,0,1-.917.488q-5.488.005-10.975,0c-.679,0-1.048-.367-1.035-.943s.358-.865,1.086-.867q2.716-.005,5.433,0" transform="translate(-89.69 -269.391)" fill="#22afd6"/>
    <path id="Trazado_105552" data-name="Trazado 105552" d="M111.605,198.753h-5.269a1.568,1.568,0,0,1-.647-.084.862.862,0,0,1-.54-.972.759.759,0,0,1,.692-.731,2.308,2.308,0,0,1,.381-.031l10.811,0c.515,0,.961.123,1.1.692.159.651-.276,1.123-1.041,1.126-1.829.008-3.659,0-5.488,0" transform="translate(-89.717 -168.04)" fill="#22afd6"/>
    <path id="Trazado_105553" data-name="Trazado 105553" d="M111.681,278.515c-1.846,0-3.693.005-5.539,0a.87.87,0,0,1-.971-1.03c.055-.5.353-.742.962-.744,1.462-.006,2.925,0,4.387,0,2.212,0,4.424,0,6.636,0,.726,0,1.148.466,1,1.1a.875.875,0,0,1-.987.677c-1.828-.006-3.656,0-5.484,0" transform="translate(-89.735 -236.135)" fill="#22afd6"/>
    <path id="Trazado_105554" data-name="Trazado 105554" d="M111.563,238.7q-2.715,0-5.429,0a.9.9,0,0,1-1.014-.649c-.189-.68.2-1.134.977-1.136q4.387-.008,8.774,0c.749,0,1.5-.008,2.248,0,.625.009.968.325.976.867.008.562-.353.91-.994.913-1.846.008-3.692,0-5.539,0" transform="translate(-89.658 -202.156)" fill="#22afd6"/>
    <path id="Trazado_105557" data-name="Trazado 105557" d="M243.4,194.029q-3.426,0-6.853,0c-.882,0-1.146-.264-1.149-1.14,0-1.1-.007-2.193,0-3.289.005-.758.313-1.072,1.063-1.073q7.017-.006,14.034,0c.744,0,1.068.333,1.071,1.071.006,1.1.008,2.193,0,3.289a1.033,1.033,0,0,1-1.15,1.141q-3.508.005-7.017,0m.006-1.675c1.644,0,3.288.008,4.932,0,.467,0,1.08.211,1.363-.1s.037-.909.088-1.377c.047-.437-.114-.549-.544-.547-3.544.017-7.088.009-10.632.011-.492,0-1.151-.173-1.432.075-.328.288-.056.964-.113,1.467-.043.383.085.488.474.484,1.954-.021,3.909-.01,5.864-.01" transform="translate(-200.862 -160.864)" fill="#22afd6"/>
    <path id="Trazado_105558" data-name="Trazado 105558" d="M237.525,236.931c.4,0,.8-.012,1.2,0a.814.814,0,0,1,.895.834c.04.837.04,1.678.006,2.515a.91.91,0,0,1-.929.9c-.8.03-1.606.031-2.408,0a.853.853,0,0,1-.908-.944c-.015-.8-.017-1.606,0-2.408a.842.842,0,0,1,.934-.9c.037,0,.073,0,.11,0h1.095m.406,2.163c.078-.271-.017-.405-.346-.387-.251.014-.449-.012-.429.352.016.288.021.471.4.443.278-.02.464-.044.379-.409" transform="translate(-200.842 -202.168)" fill="#22afd6"/>
    <path id="Trazado_105559" data-name="Trazado 105559" d="M278.074,236.929c.4,0,.8-.01,1.2,0a.861.861,0,0,1,.945.91c.025.784.022,1.57,0,2.354a.948.948,0,0,1-.961.99c-.8.026-1.607.029-2.409,0a.865.865,0,0,1-.9-.96q-.017-1.15,0-2.3a.872.872,0,0,1,.965-.992c.036,0,.073,0,.11,0h1.041m-.02,1.791c-.278-.043-.453,0-.437.354.013.277.032.445.379.425.267-.015.455-.016.429-.371-.019-.263-.007-.492-.371-.408" transform="translate(-235.466 -202.166)" fill="#22afd6"/>
    <path id="Trazado_105560" data-name="Trazado 105560" d="M318.608,236.934c.421,0,.842-.015,1.262,0a.826.826,0,0,1,.865.868c.021.786.024,1.573,0,2.359a1.013,1.013,0,0,1-1.055,1.03c-.731.015-1.464.018-2.195,0a.917.917,0,0,1-1.017-1.027c-.011-.75-.013-1.5,0-2.249a.882.882,0,0,1,.985-.984c.384-.01.768,0,1.152,0Zm-.01,1.783c-.235-.017-.492-.065-.456.327.022.234-.05.494.341.462.254-.021.524.051.49-.369-.021-.259,0-.5-.375-.42" transform="translate(-270.033 -202.168)" fill="#22afd6"/>
    <path id="Trazado_105561" data-name="Trazado 105561" d="M237.466,319.949c-.4,0-.8.017-1.2,0a.83.83,0,0,1-.864-.867q-.03-1.259,0-2.519a.825.825,0,0,1,.86-.874c.821-.025,1.643-.024,2.464,0a.831.831,0,0,1,.9.835c.034.838.046,1.679.009,2.516a.922.922,0,0,1-1.02.917c-.383.01-.767,0-1.15,0v0m.478-2.084c.082-.331-.095-.381-.387-.39-.323-.011-.391.11-.393.409s.094.4.4.4.441-.1.377-.42" transform="translate(-200.85 -269.355)" fill="#22afd6"/>
    <path id="Trazado_105562" data-name="Trazado 105562" d="M237.531,275.951c.383,0,.767-.009,1.15,0a.846.846,0,0,1,.944.851c.039.837.04,1.679,0,2.516a.924.924,0,0,1-.986.9c-.766.018-1.534.02-2.3,0a.87.87,0,0,1-.957-.955q-.023-1.177,0-2.354c.012-.653.328-.943,1-.961h1.15m-.357,2.05c-.06.284.013.435.355.42.273-.012.447-.026.424-.377-.017-.27-.025-.448-.377-.428-.274.016-.483.025-.4.385" transform="translate(-200.841 -235.463)" fill="#22afd6"/>
    <path id="Trazado_105563" data-name="Trazado 105563" d="M275.966,278.039c0-.4-.013-.8,0-1.205a.842.842,0,0,1,.894-.9q1.233-.026,2.466,0a.854.854,0,0,1,.9.9c.025.8.027,1.608,0,2.411a.952.952,0,0,1-1,.953q-1.15.029-2.3,0a.9.9,0,0,1-.965-1.011c0-.018,0-.037,0-.055v-1.1Zm2.073-.425c-.333-.069-.407.083-.414.387-.007.321.106.4.408.4s.411-.09.4-.4c-.008-.3-.069-.467-.4-.385" transform="translate(-235.475 -235.443)" fill="#22afd6"/>
    <path id="Trazado_105564" data-name="Trazado 105564" d="M275.967,317.753c0-.384-.011-.768,0-1.151a.854.854,0,0,1,.879-.92c.821-.026,1.644-.024,2.466,0a.877.877,0,0,1,.916.9c.026.8.025,1.608,0,2.411a.94.94,0,0,1-.987.958c-.785.015-1.571.017-2.356,0a.868.868,0,0,1-.923-.931c0-.036,0-.073,0-.11q0-.575,0-1.151m2.466.1c.065-.336-.112-.383-.4-.4-.348-.015-.416.126-.417.441s.123.382.413.392c.349.012.457-.124.4-.438" transform="translate(-235.477 -269.352)" fill="#22afd6"/>
    <path id="Trazado_105565" data-name="Trazado 105565" d="M316.482,278.074c0-.383-.011-.766,0-1.149a.9.9,0,0,1,.983-.988q1.149-.018,2.3,0a.877.877,0,0,1,.99.971q.018,1.094,0,2.188a1.041,1.041,0,0,1-1.134,1.114q-1.012.009-2.024,0c-.775-.008-1.1-.333-1.114-1.1-.005-.346,0-.693,0-1.039m2.492-.073c.078-.368-.131-.4-.43-.41-.326-.01-.379.128-.392.414-.017.36.146.408.45.411s.433-.11.372-.415" transform="translate(-270.047 -235.447)" fill="#22afd6"/>
    <path id="Trazado_105566" data-name="Trazado 105566" d="M318.592,319.955c-.384,0-.769.009-1.153,0a.894.894,0,0,1-.98-.945c-.02-.786-.019-1.573,0-2.36a.9.9,0,0,1,.965-.965c.786-.017,1.574-.019,2.36,0a.882.882,0,0,1,.943.976c.011.732.014,1.464,0,2.2a1.034,1.034,0,0,1-1.146,1.1c-.329,0-.659,0-.988,0m-.055-1.676c.353.075.421-.1.426-.419s-.118-.4-.412-.395c-.279,0-.438.044-.426.381.011.3.037.513.412.433" transform="translate(-270.019 -269.357)" fill="#22afd6"/>
  </g>
</svg>
