<svg id="Grupo_111314" data-name="Grupo 111314" xmlns="http://www.w3.org/2000/svg" xmlns:xlink="http://www.w3.org/1999/xlink" width="36.006" height="54" viewBox="0 0 36.006 54">
  <defs>
    <clipPath id="clip-path">
      <rect id="Rectángulo_37246" data-name="Rectángulo 37246" width="36.006" height="54" fill="#2941a0"/>
    </clipPath>
  </defs>
  <g id="Grupo_111313" data-name="Grupo 111313" clip-path="url(#clip-path)">
    <path id="Trazado_105599" data-name="Trazado 105599" d="M52.741,35.911q0,.879,0,1.759c-.7.167-.9.41-.9,1.125,0,1.5.006,3-.006,4.5a12.64,12.64,0,0,1-.74,4.237,14.617,14.617,0,0,1-9.257,9.052c-.45.164-.771.413-.773.909a.937.937,0,0,0,.766.913,14.23,14.23,0,0,1,3.226,1.543A13.831,13.831,0,0,1,51.74,70.51c.277,2.759.049,5.54.1,8.31.006.3-.16.275-.355.274-.73,0-1.461-.006-2.191,0-.673.006-.917.211-1.079.887l-1.755,0c-.167-.708-.4-.886-1.192-.886q-9.949,0-19.9.011c-.445,0-.548-.117-.544-.55.023-2.267.009-4.534.013-6.8a12.264,12.264,0,0,1,.507-3.545,14.536,14.536,0,0,1,9.439-9.783c.463-.171.824-.4.825-.93s-.349-.77-.82-.931A14.436,14.436,0,0,1,31.1,54.7a13.92,13.92,0,0,1-6.172-10.175c-.211-1.9-.05-3.819-.09-5.728-.015-.716-.2-.959-.9-1.126q0-.88,0-1.759c.131-.007.261-.019.392-.019H52.349c.131,0,.261.012.391.019m-14.39,6.283H34.809q-3.514,0-7.028,0c-.833,0-1.16.325-1.131,1.163A11.32,11.32,0,0,0,26.8,44.98a11.7,11.7,0,0,0,23.239-1.544c.016-.944-.275-1.24-1.225-1.241H38.351m-.009,35.1q5.284,0,10.567,0a.946.946,0,0,0,.709-1.713c-.83-.839-1.645-1.693-2.481-2.527a30.948,30.948,0,0,0-5.891-4.742A5.161,5.161,0,0,0,35.48,68.3c-.064.039-.131.073-.194.113A41.17,41.17,0,0,0,26.869,75.8a.818.818,0,0,0-.152.939.869.869,0,0,0,.833.556c.15,0,.3,0,.45,0H38.343m-.9-18.929c0,.336-.02.674,0,1.009a.86.86,0,0,0,.885.829.808.808,0,0,0,.882-.764,14.921,14.921,0,0,0,.005-2.072.89.89,0,0,0-1.77.046,9.358,9.358,0,0,0-.006.953m0,5.393c0,.336-.02.673,0,1.008a.862.862,0,0,0,.881.833.81.81,0,0,0,.885-.76,14.713,14.713,0,0,0,.006-2.069.89.89,0,0,0-1.769.038,8.875,8.875,0,0,0-.007.951" transform="translate(-20.339 -30.496)" fill="#d9e7ec"/>
    <path id="Trazado_105600" data-name="Trazado 105600" d="M3.607,47.726c.7.168.889.41.9,1.126.04,1.909-.121,3.824.09,5.728a13.921,13.921,0,0,0,6.172,10.175,14.431,14.431,0,0,0,3.691,1.864c.471.161.821.405.82.931s-.362.758-.825.93a14.536,14.536,0,0,0-9.439,9.783,12.264,12.264,0,0,0-.507,3.545c0,2.267.01,4.534-.013,6.8,0,.433.1.551.544.55q9.948-.024,19.9-.01c.79,0,1.026.178,1.192.886-.156.723-.394.914-1.169.914H2.917c-1.108,0-1.068,0-1.123,1.117-.029.6.171.694.717.693q15.213-.025,30.426-.012c1.287,0,1.265,0,1.282-1.292.006-.447-.153-.52-.55-.515-1.556.021-3.112.011-4.668.007-.717,0-.961-.207-1.114-.912.162-.675.406-.881,1.079-.887.73-.006,1.461,0,2.191,0,.195,0,.361.022.355-.274-.055-2.77.173-5.551-.1-8.31A13.831,13.831,0,0,0,24.725,70,14.234,14.234,0,0,0,21.5,68.457a.937.937,0,0,1-.766-.913c0-.5.323-.745.773-.909a14.617,14.617,0,0,0,9.257-9.052,12.639,12.639,0,0,0,.74-4.237c.012-1.5,0-3,.006-4.5,0-.716.2-.958.9-1.125.531.073.893.353.888.907a56.4,56.4,0,0,1-.084,6.011,15.837,15.837,0,0,1-8.575,12.595c-.147.081-.3.157-.445.237-.014.008-.023.026-.038.044.027.186.208.188.328.252a15.935,15.935,0,0,1,8.67,11.991,19.046,19.046,0,0,1,.156,3.2c-.008,1.912.008,3.824-.011,5.735,0,.362.082.49.457.462a11.121,11.121,0,0,1,1.349,0,.865.865,0,0,1,.894.89q.03,1.8,0,3.6a.877.877,0,0,1-.884.9c-.149.011-.3,0-.45,0H1.324C.258,94.548.011,94.3.011,93.221c0-.993,0-1.987,0-2.98,0-.769.325-1.084,1.1-1.092.394,0,.789-.027,1.18.007.356.031.432-.09.429-.433-.017-2.062-.01-4.123-.008-6.185,0-6.765,3.08-11.671,9-14.855.06-.032.118-.067.249-.14a16.41,16.41,0,0,1-3.467-2.235A15.776,15.776,0,0,1,2.71,52.961c-.007-1.368,0-2.736,0-4.1,0-.721.2-.96.9-1.13" transform="translate(-0.008 -40.551)" fill="#020202"/>
    <path id="Trazado_105601" data-name="Trazado 105601" d="M32.4,5.416c-.13-.007-.261-.019-.391-.019H3.991c-.13,0-.261.012-.391.019-.843-.007-1.686-.01-2.529-.021C.339,5.386.01,5.06.005,4.328q-.01-1.631,0-3.262A.928.928,0,0,1,1.074,0Q18,0,34.93,0C35.663,0,35.993.334,36,1.066q.011,1.631,0,3.262c0,.733-.335,1.058-1.067,1.067-.843.011-1.686.014-2.529.021M18.059,1.8H2.876C1.8,1.8,1.8,1.8,1.8,2.9c0,.8-.1.7.731.7q15.267,0,30.534,0c1.132,0,1.1,0,1.145-1.15.024-.57-.172-.663-.691-.661-5.155.02-10.309.012-15.464.012" transform="translate(0 0)" fill="#010101"/>
    <path id="Trazado_105602" data-name="Trazado 105602" d="M53.668,77.817H64.126c.951,0,1.241.3,1.225,1.241A11.7,11.7,0,0,1,42.112,80.6a11.343,11.343,0,0,1-.145-1.621c-.029-.838.3-1.162,1.131-1.163q3.514,0,7.028,0Zm0,1.8c-3.11,0-6.22.008-9.33-.01-.419,0-.6.084-.469.518.031.107.036.221.058.331a9.837,9.837,0,0,0,11.091,8.055A9.983,9.983,0,0,0,63.448,80.2c.059-.449,0-.6-.507-.595-3.091.026-6.183.013-9.274.013" transform="translate(-35.656 -66.117)" fill="#020202"/>
    <path id="Trazado_105603" data-name="Trazado 105603" d="M53.574,255.506H43.232c-.15,0-.3,0-.45,0a.869.869,0,0,1-.834-.556.819.819,0,0,1,.152-.939,41.171,41.171,0,0,1,8.418-7.388c.063-.04.13-.073.194-.113a5.161,5.161,0,0,1,5.767.018,30.951,30.951,0,0,1,5.891,4.742c.835.834,1.651,1.688,2.481,2.527a.946.946,0,0,1-.709,1.713q-5.284-.009-10.567,0m8.7-1.813a40.244,40.244,0,0,0-6.214-5.317,3.937,3.937,0,0,0-5.018.041c-.135.1-.282.184-.423.276a35.887,35.887,0,0,0-5.587,4.857c-.029.029-.025.09-.038.143Z" transform="translate(-35.571 -208.708)" fill="#020202"/>
    <path id="Trazado_105604" data-name="Trazado 105604" d="M37.96,329.148c.153.7.4.91,1.114.912,1.556,0,3.112.013,4.668-.007.4-.005.556.068.55.515-.017,1.292.005,1.292-1.282,1.292q-15.213,0-30.426.012c-.546,0-.746-.1-.717-.693.055-1.115.015-1.117,1.123-1.117H35.036c.774,0,1.012-.19,1.169-.914l1.755,0" transform="translate(-10.081 -279.662)" fill="#2941a0"/>
    <path id="Trazado_105605" data-name="Trazado 105605" d="M113.7,175.34a9.317,9.317,0,0,1,.006-.953.89.89,0,0,1,1.77-.046,14.921,14.921,0,0,1-.005,2.072.808.808,0,0,1-.882.764.86.86,0,0,1-.885-.829c-.025-.334,0-.672,0-1.009" transform="translate(-96.602 -147.472)" fill="#020202"/>
    <path id="Trazado_105606" data-name="Trazado 105606" d="M113.7,211.25a8.8,8.8,0,0,1,.007-.951.89.89,0,0,1,1.769-.038,14.735,14.735,0,0,1-.006,2.069.81.81,0,0,1-.885.76.862.862,0,0,1-.881-.833c-.025-.334,0-.672,0-1.008" transform="translate(-96.599 -177.989)" fill="#020202"/>
    <path id="Trazado_105607" data-name="Trazado 105607" d="M28.242,11.909c5.155,0,10.309.008,15.464-.012.52,0,.715.091.691.661-.049,1.148-.013,1.15-1.145,1.15q-15.267,0-30.534,0c-.829,0-.727.1-.731-.7-.006-1.094,0-1.094,1.073-1.094H28.242" transform="translate(-10.183 -10.108)" fill="#2941a0"/>
    <path id="Trazado_105608" data-name="Trazado 105608" d="M64.191,89.721c3.091,0,6.183.013,9.274-.013.507,0,.566.146.507.595a9.983,9.983,0,0,1-8.431,8.314,9.837,9.837,0,0,1-11.091-8.055c-.022-.11-.027-.224-.058-.331-.126-.434.05-.521.469-.518,3.11.018,6.22.01,9.33.01" transform="translate(-46.18 -76.221)" fill="#22afd6"/>
    <path id="Trazado_105609" data-name="Trazado 105609" d="M79.945,264.183H62.665c.013-.053.01-.114.038-.143a35.888,35.888,0,0,1,5.587-4.857c.141-.093.288-.176.423-.276a3.937,3.937,0,0,1,5.018-.041,40.243,40.243,0,0,1,6.214,5.317" transform="translate(-53.244 -219.198)" fill="#22afd6"/>
  </g>
</svg>
