<svg id="Grupo_111320" data-name="Grupo 111320" xmlns="http://www.w3.org/2000/svg" xmlns:xlink="http://www.w3.org/1999/xlink" width="78.209" height="78.264" viewBox="0 0 78.209 78.264">
  <defs>
    <clipPath id="clip-path">
      <rect id="Rectángulo_37248" data-name="Rectángulo 37248" width="78.209" height="78.264" fill="none"/>
    </clipPath>
  </defs>
  <g id="Grupo_111320-2" data-name="Grupo 111320" clip-path="url(#clip-path)">
    <path id="Trazado_105630" data-name="Trazado 105630" d="M27.66,0a1.573,1.573,0,0,1,1.073,1.7c-.02,6.136,0,12.273-.026,18.409,0,.626.137.819.785.8,1.426-.048,1.821.378,1.822,1.783,0,1.019.013,2.037-.006,3.055-.007.359.1.5.468.612a6.464,6.464,0,0,1,4.7,5.45,1.954,1.954,0,0,1-.8,2.137,9.793,9.793,0,0,0-1.346,1.239,1.769,1.769,0,0,0,.008,2.728,19.441,19.441,0,0,0,1.532,1.376,1.662,1.662,0,0,1,.655,1.383q-.012,11.5,0,22.993a1.753,1.753,0,0,1-.7,1.445A20.379,20.379,0,0,0,34.316,66.5a1.749,1.749,0,0,0-.008,2.67,15.992,15.992,0,0,0,1.528,1.378,1.7,1.7,0,0,1,.683,1.52,6.517,6.517,0,0,1-6.373,6.175c-4.429.045-8.859.014-13.289.015H7A6.555,6.555,0,0,1,.179,73.2c-.035-.115-.016-.26-.179-.3V71.377c.572-.917,1.544-1.433,2.238-2.232a1.789,1.789,0,0,0,0-2.658c-.476-.486-1-.921-1.509-1.38-.238-.216-.549-.377-.577-.754q0-12.167-.007-24.334c.02-.382.335-.548.571-.767.448-.415.881-.85,1.358-1.228a1.942,1.942,0,0,0,.016-3.034A11.154,11.154,0,0,1,0,33.014V31.332c.12-.016.155-.1.183-.206a6.48,6.48,0,0,1,4.723-4.812c.377-.108.308-.34.31-.576.006-.992,0-1.985,0-2.977,0-1.489.369-1.9,1.826-1.856.658.021.779-.191.777-.806C7.8,13.967,7.814,7.835,7.8,1.7A1.588,1.588,0,0,1,8.863,0h.611a1.68,1.68,0,0,1,1.008,1.819c-.011,6.058.009,12.116-.024,18.174,0,.744.186.946.922.913,1.234-.056,1.654.4,1.663,1.621.008.993.022,1.986-.007,2.978-.013.451.1.617.588.614q4.657-.034,9.315,0c.428,0,.58-.113.566-.555-.03-.966-.011-1.934-.009-2.9,0-1.39.375-1.8,1.756-1.755.671.023.846-.153.843-.836-.03-6.058-.007-12.116-.029-18.174A2.024,2.024,0,0,1,26.9,0ZM18.33,28.732q-5.921,0-11.842,0a3.731,3.731,0,0,0-3.256,1.806c-.7,1.048-.645,1.322.242,2.171.22.211.425.439.643.653A4.394,4.394,0,0,1,5.35,37.491c-.238,1.4-1.26,2.235-2.207,3.107A1.5,1.5,0,0,0,2.6,41.836c.018,6.5.033,12.99-.008,19.485-.008,1.219.028,2.311,1.213,3.012.187.111.294.35.46.505a4.341,4.341,0,0,1-.033,6c-.388.367-.728.792-1.147,1.118a.776.776,0,0,0-.271.992,3.943,3.943,0,0,0,3.775,2.7c1.961.017,3.922,0,5.883,0q8.671,0,17.343,0a3.892,3.892,0,0,0,3.742-2.3,1.081,1.081,0,0,0-.307-1.564,4.829,4.829,0,0,1-2.1-4.769,5.659,5.659,0,0,1,2.183-3.205,1.669,1.669,0,0,0,.593-1.374c-.017-6.673-.027-13.347.008-20.02a2.15,2.15,0,0,0-.928-2.135,5.42,5.42,0,0,1-.742-.765,4.359,4.359,0,0,1,.038-6c.394-.36.731-.789,1.151-1.112a.789.789,0,0,0,.266-1,3.874,3.874,0,0,0-3.627-2.67q-5.883-.009-11.765,0m-7.943-3.961c0-1.214,0-1.214-1.25-1.215-1.285,0-1.294,0-1.283,1.257.013,1.409-.213,1.226,1.258,1.237,1.275.009,1.275,0,1.275-1.279m15.755-.139c0,1.42,0,1.427.97,1.418,1.774-.017,1.556.193,1.566-1.006.013-1.51,0-1.476-1.891-1.513-1.069-.021-.48.751-.645,1.1" fill="#020202"/>
    <path id="Trazado_105631" data-name="Trazado 105631" d="M275.591,0a10.177,10.177,0,0,0,2.107.44A18.192,18.192,0,0,1,291.8,16.2a17.894,17.894,0,0,1-7.234,16.7,1.047,1.047,0,0,0-.444.951c.016,2.037.009,4.075.007,6.112,0,1.366-.411,1.812-1.772,1.762-.654-.024-.839.125-.836.816.032,7.462-.006,14.925.041,22.386a21.036,21.036,0,0,0,1.5,7.958,7.761,7.761,0,0,0,1.036,1.853,2.171,2.171,0,0,0,1.505.935,1.255,1.255,0,0,1,1.13,1.382,1.3,1.3,0,0,1-1.329,1.2,3.845,3.845,0,0,1-2.984-1.45,12.268,12.268,0,0,1-2.544-5.13,30.129,30.129,0,0,1-1-8.3c0-6.953-.009-13.906.014-20.858,0-.628-.143-.819-.788-.8-1.432.047-1.8-.355-1.8-1.789,0-.993-.022-1.987.009-2.98.014-.458-.079-.646-.586-.567a13.523,13.523,0,0,1-4.109,0c-.459-.069-.556.1-.546.526.025,1.069.017,2.139.005,3.209-.013,1.178-.455,1.671-1.618,1.595-.837-.055-.968.249-.964,1q.043,10.353.011,20.705a27.787,27.787,0,0,1-1.628,10.095,9.8,9.8,0,0,1-2.013,3.378,3.793,3.793,0,0,1-3.028,1.351A1.313,1.313,0,0,1,260.628,77a1.267,1.267,0,0,1,1.038-1.319,2.4,2.4,0,0,0,1.855-1.3,13.932,13.932,0,0,0,1.828-5.04,29.261,29.261,0,0,0,.486-5.766q-.021-10.506.009-21.011c0-.632-.091-.881-.807-.847-1.4.066-1.789-.384-1.79-1.818,0-2.012-.013-4.024.009-6.036a1.128,1.128,0,0,0-.492-1.009c-6.07-4.86-8.443-11.148-6.825-18.745A18.037,18.037,0,0,1,270.564.267c.349-.061.759.035,1.054-.266Zm-9.738,35.626v1.528c0,2.035,0,2.016,2.035,1.99.5-.006.587-.186.579-.625-.024-1.2-.03-2.394,0-3.591a1.329,1.329,0,0,1,1.768-1.417,15.345,15.345,0,0,0,6.884,0c1.1-.25,1.773.32,1.8,1.46.017.738,0,1.477,0,2.216,0,1.975,0,1.954,1.99,1.952.526,0,.629-.182.623-.658-.024-1.757.039-3.516-.028-5.271a2.3,2.3,0,0,1,1.113-2.144c5.149-3.788,7.457-8.921,6.493-15.229a15.518,15.518,0,0,0-18.44-12.937A15.684,15.684,0,0,0,258.262,20.82a15.5,15.5,0,0,0,6.715,10.412,1.755,1.755,0,0,1,.886,1.645c-.039.915-.009,1.833-.009,2.75" transform="translate(-213.701 -0.001)" fill="#030304"/>
    <path id="Trazado_105632" data-name="Trazado 105632" d="M.15,269.232,0,269.224v-24.3a.131.131,0,0,0,.144-.025q0,12.167.007,24.334" transform="translate(0 -204.878)" fill="#030304"/>
    <path id="Trazado_105633" data-name="Trazado 105633" d="M31.6,175.82q5.883,0,11.765,0A3.874,3.874,0,0,1,47,178.492a.789.789,0,0,1-.266,1c-.42.324-.757.752-1.151,1.112a4.36,4.36,0,0,0-.038,6,5.421,5.421,0,0,0,.742.765,2.15,2.15,0,0,1,.927,2.135c-.034,6.673-.025,13.347-.008,20.02a1.669,1.669,0,0,1-.593,1.374,5.66,5.66,0,0,0-2.183,3.205,4.83,4.83,0,0,0,2.1,4.769,1.081,1.081,0,0,1,.308,1.564,3.893,3.893,0,0,1-3.742,2.3q-8.671.009-17.343,0c-1.961,0-3.922.013-5.883,0a3.943,3.943,0,0,1-3.775-2.7.776.776,0,0,1,.27-.992c.419-.325.759-.75,1.147-1.118a4.341,4.341,0,0,0,.033-6c-.167-.155-.273-.395-.46-.505-1.185-.7-1.22-1.793-1.213-3.012.041-6.495.026-12.99.008-19.485a1.5,1.5,0,0,1,.542-1.238c.947-.873,1.969-1.712,2.207-3.107a4.394,4.394,0,0,0-1.233-4.129c-.218-.214-.423-.442-.643-.653-.887-.85-.938-1.123-.242-2.171a3.731,3.731,0,0,1,3.256-1.806q5.921,0,11.842,0m7.781,26.008q0,4.429,0,8.858c0,.96.486,1.6,1.223,1.632.8.035,1.376-.605,1.377-1.582q.011-8.858,0-17.717c0-.947-.535-1.578-1.29-1.589-.808-.012-1.309.6-1.311,1.616q-.005,4.391,0,8.782m0,15.653c0,.458-.018.917,0,1.375a1.272,1.272,0,0,0,1.255,1.277,1.3,1.3,0,0,0,1.31-1.155,22.614,22.614,0,0,0,0-2.9,1.288,1.288,0,0,0-2.568.181c-.015.407,0,.815,0,1.222" transform="translate(-13.273 -147.088)" fill="#22afd6"/>
    <path id="Trazado_105634" data-name="Trazado 105634" d="M50.57,145.371c0,1.281,0,1.288-1.275,1.279-1.47-.011-1.245.173-1.258-1.237-.011-1.257,0-1.257,1.283-1.257,1.25,0,1.25,0,1.25,1.215" transform="translate(-40.182 -120.599)" fill="#22afd6"/>
    <path id="Trazado_105635" data-name="Trazado 105635" d="M159.893,145.1c.165-.35-.423-1.122.645-1.1,1.894.037,1.9,0,1.891,1.513-.01,1.2.208.99-1.566,1.006-.97.009-.971,0-.97-1.418" transform="translate(-133.751 -120.466)" fill="#22afd6"/>
    <path id="Trazado_105636" data-name="Trazado 105636" d="M279.065,49.094c0-.917-.03-1.835.009-2.75a1.755,1.755,0,0,0-.885-1.645,15.5,15.5,0,0,1-6.715-10.412,15.684,15.684,0,0,1,12.411-17.914,15.518,15.518,0,0,1,18.44,12.937c.964,6.309-1.345,11.442-6.493,15.229a2.3,2.3,0,0,0-1.113,2.144c.068,1.755,0,3.514.029,5.271.006.476-.1.658-.623.658-1.99,0-1.99.023-1.99-1.952,0-.739.014-1.478,0-2.216-.027-1.14-.7-1.71-1.8-1.46a15.344,15.344,0,0,1-6.884,0,1.329,1.329,0,0,0-1.768,1.417c-.03,1.2-.023,2.394,0,3.591.009.439-.08.619-.579.625-2.035.025-2.035.044-2.035-1.99q0-.764,0-1.528m20.881-17.948c-.031-.261-.082-.664-.126-1.068a13.092,13.092,0,0,0-12.567-11.386c-1-.013-1.634.48-1.652,1.288-.018.79.531,1.265,1.528,1.318a10.4,10.4,0,0,1,8.118,4.2,10.53,10.53,0,0,1,2.1,6.18,1.267,1.267,0,0,0,1.331,1.351,1.33,1.33,0,0,0,1.267-1.36c.007-.127,0-.254,0-.527" transform="translate(-226.913 -13.468)" fill="#2941a0"/>
    <path id="Trazado_105637" data-name="Trazado 105637" d="M159.787,281.743q0-4.391,0-8.782c0-1.019.5-1.628,1.311-1.616.755.011,1.289.642,1.289,1.589q.01,8.858,0,17.717c0,.977-.58,1.617-1.377,1.582-.737-.032-1.222-.672-1.223-1.632q0-4.429,0-8.858" transform="translate(-133.675 -227.003)" fill="#d3e6fd"/>
    <path id="Trazado_105638" data-name="Trazado 105638" d="M159.778,417.732c0-.407-.014-.815,0-1.222a1.288,1.288,0,0,1,2.568-.181,22.64,22.64,0,0,1,0,2.9,1.3,1.3,0,0,1-1.31,1.155,1.273,1.273,0,0,1-1.255-1.277c-.022-.457,0-.916,0-1.375" transform="translate(-133.663 -347.34)" fill="#d3e6fd"/>
    <path id="Trazado_105639" data-name="Trazado 105639" d="M373.48,44.418c0,.273.006.4,0,.528a1.33,1.33,0,0,1-1.267,1.36,1.267,1.267,0,0,1-1.331-1.351,10.53,10.53,0,0,0-2.1-6.18,10.4,10.4,0,0,0-8.118-4.2c-1-.052-1.546-.528-1.528-1.318.018-.808.65-1.3,1.652-1.288a13.092,13.092,0,0,1,12.567,11.386c.044.4.095.808.126,1.068" transform="translate(-300.447 -26.74)" fill="#d3e6fd"/>
  </g>
</svg>
