<svg id="Grupo_115670" data-name="Grupo 115670" xmlns="http://www.w3.org/2000/svg" xmlns:xlink="http://www.w3.org/1999/xlink" width="147.449" height="147.425" viewBox="0 0 147.449 147.425">
  <defs>
    <clipPath id="clip-path">
      <rect id="Rectángulo_37531" data-name="Rectángulo 37531" width="147.449" height="147.425" fill="#f3f0cd"/>
    </clipPath>
  </defs>
  <g id="Grupo_115669" data-name="Grupo 115669" clip-path="url(#clip-path)">
    <path id="Trazado_171342" data-name="Trazado 171342" d="M147.449,67.669c-.543.469-.511,1.186-.746,1.783a11.014,11.014,0,0,1-5.048,5.867,2.345,2.345,0,0,0-1.331,1.957,23.923,23.923,0,0,1-18.544,20.159,23.414,23.414,0,0,1-15.953-1.8,2.013,2.013,0,0,0-2.207.1A31.868,31.868,0,0,1,66.286,92.5c-.752-.644-1.128-.763-1.964-.06A24.194,24.194,0,0,1,26.69,83.626a1.829,1.829,0,0,0-1.88-1.283C13.635,81.86,3.519,74.14.832,63.859c-2.305-8.822.26-16.352,6.692-22.637a2.433,2.433,0,0,0,.824-2.345A15.378,15.378,0,0,1,19.493,21.828,1.581,1.581,0,0,0,20.765,20.7C24.418,9.369,32.175,2.652,43.809.332c.29-.058.706.14.84-.332h6.911c.091.089.174.247.275.259a28.088,28.088,0,0,1,18.292,9.759c.743.849,1.041.512,1.614-.062A33.46,33.46,0,0,1,88.335.793,14.285,14.285,0,0,0,91.874,0h7.2c.049.23.221.254.419.282,12.6,1.739,21.48,8.488,26.769,20a2.556,2.556,0,0,0,1.775,1.58c9.628,2.857,15.794,9.155,18.578,18.8.324,1.124.246,2.34.834,3.394V50.68c-.817,2.413-1.128,4.984-2.282,7.292a.607.607,0,0,0,.076.678c1.155,1.371,1.473,3.132,2.207,4.7ZM48.358,5.739a18.428,18.428,0,0,0-4.441.47c-9.623,2.268-15.7,8.156-18.055,17.8-.528,2.165-1.19,2.8-3.379,3.053A9.778,9.778,0,0,0,14.3,39.411c.766,2.7.628,3.124-1.6,4.893-7.688,6.114-9.233,16.311-3.451,23.93,4.461,5.878,10.629,8.416,17.914,8.426,2.633,0,3.28.442,4.1,2.882A18.481,18.481,0,0,0,62.447,86.33c2.209-2.365,3.42-2.359,5.691.026a26.188,26.188,0,0,0,33.752,3.627,4.252,4.252,0,0,1,5.23-.194A18.41,18.41,0,0,0,134.8,74.467c.073-2.2.612-2.9,2.769-3.606a5.675,5.675,0,0,0,2.644-9.265c-1.981-2.256-2.013-2.5-.685-5.181a20.609,20.609,0,0,0-14.59-29.367,4.177,4.177,0,0,1-3.41-3.012c-3.834-10-11.09-16.176-21.617-17.863C89.253,4.463,80.4,8.2,73.579,16.6c-2.144,2.64-3.961,2.581-5.866-.262C63.1,9.452,56.569,6.047,48.358,5.739" transform="translate(0)" fill="#030302"/>
    <path id="Trazado_171343" data-name="Trazado 171343" d="M353.96,364.764a11.3,11.3,0,1,1,11.373,11.293,11.346,11.346,0,0,1-11.373-11.293m16.832-.1a5.534,5.534,0,1,0-5.506,5.635,5.577,5.577,0,0,0,5.506-5.635" transform="translate(-251.797 -251.383)" fill="#030302"/>
    <path id="Trazado_171344" data-name="Trazado 171344" d="M286.137,441.693a9.785,9.785,0,0,1-.038-19.57,9.785,9.785,0,1,1,.038,19.57m-.016-13.8a4.053,4.053,0,0,0-4.006,4.03,3.983,3.983,0,0,0,4,4,4.041,4.041,0,0,0,4.033-4,4.1,4.1,0,0,0-4.031-4.033" transform="translate(-196.586 -300.286)" fill="#030302"/>
    <path id="Trazado_171345" data-name="Trazado 171345" d="M251.253,493.73a2.872,2.872,0,1,1-2.811-2.862,2.9,2.9,0,0,1,2.811,2.862" transform="translate(-174.648 -349.189)" fill="#030302"/>
    <path id="Trazado_171346" data-name="Trazado 171346" d="M62.541,19.878c8.211.309,14.743,3.713,19.355,10.6,1.9,2.842,3.722,2.9,5.866.262C94.578,22.343,103.436,18.6,114.1,20.311c10.527,1.687,17.782,7.862,21.617,17.863a4.177,4.177,0,0,0,3.41,3.013,20.609,20.609,0,0,1,14.59,29.367c-1.328,2.681-1.3,2.925.685,5.181A5.675,5.675,0,0,1,151.754,85c-2.156.7-2.7,1.406-2.769,3.606A18.41,18.41,0,0,1,121.3,103.93a4.251,4.251,0,0,0-5.23.193A26.188,26.188,0,0,1,82.321,100.5c-2.271-2.386-3.481-2.391-5.691-.027a18.481,18.481,0,0,1-31.185-6.788c-.815-2.44-1.461-2.878-4.095-2.882-7.285-.01-13.453-2.548-17.914-8.426-5.782-7.618-4.237-17.816,3.451-23.93,2.226-1.77,2.364-2.193,1.6-4.893A9.778,9.778,0,0,1,36.665,41.2c2.189-.255,2.851-.888,3.379-3.053C42.4,28.5,48.477,22.616,58.1,20.348a18.427,18.427,0,0,1,4.441-.47M79.27,64.387l-.287.047c-1.508-2.612-3.009-5.229-4.529-7.835a2.738,2.738,0,0,0-3.143-1.475,2.831,2.831,0,0,0-2.288,2.782c-.016.191-.014.384-.014.576q0,8.349,0,16.7a5.529,5.529,0,0,0,.082,1,2.87,2.87,0,0,0,2.928,2.437,2.757,2.757,0,0,0,2.7-2.662c.087-1.867.027-3.741.061-5.612.006-.318-.216-.755.36-1,1.438,2.5,2.86,4.985,4.3,7.461.871,1.493,2.1,2.091,3.426,1.711a2.971,2.971,0,0,0,2.155-3.179q.017-8.493,0-16.987c0-1.97-1.153-3.278-2.836-3.308-1.736-.031-2.906,1.3-2.918,3.359-.012,1.993,0,3.987,0,5.98M49.291,66.85c0,1.247-.038,2.495.007,3.739a8.375,8.375,0,0,0,16.739-.076q.089-3.666,0-7.335a8.376,8.376,0,0,0-16.745-.068c-.041,1.245-.006,2.493,0,3.739M29.759,66.4c0,1.692-.042,2.941.008,4.186A8.5,8.5,0,0,0,37.422,78.6a8.584,8.584,0,0,0,8.967-6.357c.472-1.919-.281-3.523-1.862-3.966-1.7-.476-3.051.366-3.669,2.283-.526,1.632-1.657,2.485-3.022,2.279-1.471-.222-2.312-1.341-2.324-3.137-.013-1.871-.009-3.742,0-5.614.008-1.915.83-3.048,2.347-3.26,1.408-.2,2.5.64,3.039,2.441a2.766,2.766,0,0,0,2.8,2.229c2.055.035,3.257-1.826,2.69-4.095a8.444,8.444,0,0,0-16.365,0,23.942,23.942,0,0,0-.26,5m57.834.327c0,1.2-.024,2.4,0,3.6A8.407,8.407,0,0,0,104.1,72.481c.594-2.03-.042-3.649-1.642-4.18-1.743-.579-3.175.317-3.851,2.412a2.657,2.657,0,0,1-5.253-.751c-.026-2.015-.018-4.03,0-6.045.013-1.789.876-2.9,2.352-3.094,1.377-.176,2.415.645,2.959,2.342.6,1.857,2.056,2.725,3.73,2.216,1.538-.467,2.275-2.025,1.826-3.858a8.549,8.549,0,0,0-9.025-6.45,8.441,8.441,0,0,0-7.594,8.2c-.03,1.151,0,2.3-.007,3.454m25.566,11.9h3.162a2.211,2.211,0,0,0,.287-.016,2.96,2.96,0,0,0,2.633-2.926,2.891,2.891,0,0,0-2.749-2.794c-.859-.054-1.724-.015-2.587-.02-.335,0-.614.013-.739-.457-.485-1.826.089-2.657,1.94-2.707,1.932-.052,3.235-1.246,3.2-2.937a2.925,2.925,0,0,0-3.155-2.822,2.211,2.211,0,0,0-.431,0c-1.229.219-1.637-.21-1.6-1.518.034-1.239.248-1.879,1.629-1.645a7.4,7.4,0,0,0,1.579.006A2.937,2.937,0,0,0,119.242,58a2.892,2.892,0,0,0-2.9-2.944q-3.016-.086-6.036,0a2.712,2.712,0,0,0-2.858,2.786q-.068,8.983,0,17.966a2.744,2.744,0,0,0,2.842,2.811c.956.049,1.916.009,2.874.009m13.985-23.588c-.785,0-1.265,0-1.745,0-2.592.012-3.584.973-3.589,3.546q-.018,8.35,0,16.7c.006,2.033,1.089,3.292,2.784,3.337,1.727.046,2.924-1.282,2.966-3.342.029-1.439.074-2.884-.017-4.318-.063-1,.25-1.252,1.248-1.306a7.3,7.3,0,0,0,4.024-13.06,7.948,7.948,0,0,0-5.674-1.557m13.178,13.7q0,2.732,0,5.464c0,.479-.015.959.006,1.438a2.929,2.929,0,0,0,2.87,2.976,2.859,2.859,0,0,0,2.869-2.966c.037-4.6.029-9.2,0-13.8,0-.758.131-1.061.993-1.084a2.846,2.846,0,0,0,2.954-2.866,2.9,2.9,0,0,0-3-2.849q-3.809-.066-7.62,0a2.91,2.91,0,0,0-3.008,2.842,2.848,2.848,0,0,0,2.945,2.875c.847.024,1.021.3,1.005,1.073-.045,2.3-.016,4.6-.016,6.9m-29.8-41.912c-2.283-.057-3.579.905-3.654,2.714A2.827,2.827,0,0,0,109.8,32.57c6.944.362,11.676,3.754,14.164,10.268a2.849,2.849,0,0,0,3.76,1.914,2.884,2.884,0,0,0,1.653-3.885A20.79,20.79,0,0,0,110.523,26.83m-7.275,5.5a2.843,2.843,0,0,0-2.892-2.908,2.95,2.95,0,0,0-2.839,2.861,2.9,2.9,0,0,0,2.788,2.887,2.824,2.824,0,0,0,2.944-2.84" transform="translate(-14.183 -14.14)" fill="#38d4ff"/>
    <path id="Trazado_171347" data-name="Trazado 171347" d="M385,378.858a5.534,5.534,0,1,1-5.634-5.519A5.549,5.549,0,0,1,385,378.858" transform="translate(-266.005 -265.582)" fill="#38d4ff"/>
    <path id="Trazado_171348" data-name="Trazado 171348" d="M300.334,442.111a4.1,4.1,0,0,1,4.031,4.033,4.042,4.042,0,0,1-4.033,4,3.983,3.983,0,0,1-4-4,4.053,4.053,0,0,1,4.006-4.03" transform="translate(-210.799 -314.505)" fill="#38d4ff"/>
    <path id="Trazado_171349" data-name="Trazado 171349" d="M200.215,151.059c0-1.994-.009-3.987,0-5.98.012-2.055,1.182-3.391,2.918-3.359,1.683.03,2.831,1.338,2.836,3.308q.02,8.493,0,16.987a2.97,2.97,0,0,1-2.155,3.179c-1.322.38-2.555-.218-3.426-1.711-1.444-2.476-2.865-4.965-4.3-7.461-.576.241-.354.677-.36,1-.034,1.871.026,3.745-.061,5.612a2.757,2.757,0,0,1-2.7,2.662,2.869,2.869,0,0,1-2.929-2.437,5.538,5.538,0,0,1-.082-1q-.007-8.349,0-16.7c0-.192,0-.384.014-.575a2.831,2.831,0,0,1,2.288-2.782,2.738,2.738,0,0,1,3.143,1.475c1.519,2.606,3.02,5.222,4.529,7.835l.287-.047" transform="translate(-135.127 -100.812)" fill="#030201"/>
    <path id="Trazado_171350" data-name="Trazado 171350" d="M121.6,153.469c0-1.247-.036-2.494,0-3.739a8.376,8.376,0,0,1,16.745.068q.081,3.666,0,7.335a8.375,8.375,0,0,1-16.739.076c-.045-1.245-.007-2.493-.008-3.739m11,0h0q0-1.579,0-3.159c0-.1,0-.192-.006-.287a2.622,2.622,0,0,0-2.658-2.619,2.539,2.539,0,0,0-2.568,2.541c-.057,2.3-.054,4.595-.005,6.891A2.594,2.594,0,0,0,130,159.478a2.637,2.637,0,0,0,2.588-2.7c.039-1.1.008-2.2.008-3.3" transform="translate(-86.49 -100.759)" fill="#030201"/>
    <path id="Trazado_171351" data-name="Trazado 171351" d="M53.926,153.065a23.958,23.958,0,0,1,.26-5,8.444,8.444,0,0,1,16.365,0c.566,2.269-.635,4.129-2.69,4.095a2.766,2.766,0,0,1-2.8-2.228c-.535-1.8-1.631-2.638-3.039-2.441-1.516.212-2.338,1.345-2.347,3.26-.008,1.871-.012,3.743,0,5.614.012,1.8.853,2.915,2.324,3.137,1.365.206,2.5-.647,3.022-2.279.618-1.917,1.972-2.759,3.669-2.283,1.58.443,2.333,2.048,1.862,3.967a8.584,8.584,0,0,1-8.966,6.357,8.5,8.5,0,0,1-7.656-8.014c-.05-1.245-.008-2.495-.008-4.187" transform="translate(-38.349 -100.807)" fill="#030201"/>
    <path id="Trazado_171352" data-name="Trazado 171352" d="M254.32,153.364c0-1.152-.025-2.3.005-3.454a8.441,8.441,0,0,1,7.594-8.2,8.55,8.55,0,0,1,9.025,6.45c.449,1.833-.288,3.391-1.826,3.858-1.673.509-3.134-.359-3.73-2.216-.545-1.7-1.582-2.518-2.96-2.342-1.476.189-2.339,1.305-2.352,3.094-.014,2.015-.023,4.031,0,6.046a2.657,2.657,0,0,0,5.254.751c.677-2.095,2.108-2.992,3.851-2.412,1.6.531,2.236,2.15,1.642,4.18a8.407,8.407,0,0,1-16.506-2.157c-.028-1.2,0-2.4,0-3.6" transform="translate(-180.908 -100.778)" fill="#030201"/>
    <path id="Trazado_171353" data-name="Trazado 171353" d="M328.752,165.227c-.958,0-1.919.04-2.874-.009a2.744,2.744,0,0,1-2.842-2.811q-.065-8.983,0-17.966a2.712,2.712,0,0,1,2.859-2.786q3.016-.08,6.036,0a2.892,2.892,0,0,1,2.9,2.944,2.937,2.937,0,0,1-2.911,2.79,7.4,7.4,0,0,1-1.578-.006c-1.381-.234-1.6.406-1.629,1.645-.036,1.307.372,1.736,1.6,1.518a2.211,2.211,0,0,1,.431,0,2.926,2.926,0,0,1,3.156,2.822c.032,1.691-1.271,2.885-3.2,2.937-1.852.049-2.425.881-1.94,2.707.125.47.4.455.739.457.862.005,1.727-.033,2.587.02a2.891,2.891,0,0,1,2.749,2.794,2.96,2.96,0,0,1-2.633,2.926,2.269,2.269,0,0,1-.287.016h-3.162" transform="translate(-229.776 -100.741)" fill="#030201"/>
    <path id="Trazado_171354" data-name="Trazado 171354" d="M378.2,141.62a7.95,7.95,0,0,1,5.674,1.556,7.3,7.3,0,0,1-4.024,13.06c-1,.055-1.312.3-1.248,1.306.091,1.434.046,2.878.017,4.318-.042,2.061-1.239,3.388-2.966,3.342-1.7-.045-2.778-1.3-2.784-3.337q-.025-8.35,0-16.7c.005-2.573,1-3.535,3.59-3.546.48,0,.96,0,1.745,0m.336,7.337c.4.491-.538,1.624.853,1.551a1.556,1.556,0,0,0-.009-3.111c-1.387-.059-.436,1.071-.844,1.56" transform="translate(-265.242 -100.721)" fill="#030201"/>
    <path id="Trazado_171355" data-name="Trazado 171355" d="M427.334,155.357c0-2.3-.029-4.6.016-6.9.015-.774-.158-1.05-1.005-1.073a2.848,2.848,0,0,1-2.945-2.875,2.91,2.91,0,0,1,3.008-2.842q3.81-.063,7.62,0a2.9,2.9,0,0,1,3,2.849,2.847,2.847,0,0,1-2.954,2.866c-.863.023-1,.326-.993,1.084.029,4.6.036,9.2,0,13.8a2.859,2.859,0,0,1-2.869,2.966,2.929,2.929,0,0,1-2.87-2.976c-.021-.478-.006-.959-.006-1.438q0-2.732,0-5.464" transform="translate(-301.195 -100.754)" fill="#030201"/>
    <path id="Trazado_171356" data-name="Trazado 171356" d="M324.775,43.964A20.79,20.79,0,0,1,343.63,58a2.884,2.884,0,0,1-1.653,3.885,2.849,2.849,0,0,1-3.76-1.914C335.728,53.457,331,50.065,324.052,49.7a2.827,2.827,0,0,1-2.931-3.025c.075-1.809,1.37-2.772,3.654-2.714" transform="translate(-228.434 -31.273)" fill="#030201"/>
    <path id="Trazado_171357" data-name="Trazado 171357" d="M294.455,55.848a2.824,2.824,0,0,1-2.944,2.84,2.9,2.9,0,0,1-2.788-2.887,2.95,2.95,0,0,1,2.839-2.861,2.843,2.843,0,0,1,2.892,2.908" transform="translate(-205.39 -37.66)" fill="#030302"/>
    <path id="Trazado_171358" data-name="Trazado 171358" d="M146.763,167.691c0,1.1.031,2.2-.008,3.3a2.637,2.637,0,0,1-2.588,2.7,2.594,2.594,0,0,1-2.638-2.637c-.048-2.3-.051-4.6.005-6.891a2.539,2.539,0,0,1,2.568-2.541,2.622,2.622,0,0,1,2.658,2.619c.006.1.006.191.006.287q0,1.579,0,3.159Z" transform="translate(-100.654 -114.976)" fill="#38d4ff"/>
    <path id="Trazado_171359" data-name="Trazado 171359" d="M392.539,163.27c.408-.49-.544-1.619.844-1.56a1.556,1.556,0,0,1,.009,3.111c-1.391.074-.45-1.06-.853-1.551" transform="translate(-279.241 -115.034)" fill="#38d4ff"/>
  </g>
</svg>
