<svg id="Grupo_115661" data-name="Grupo 115661" xmlns="http://www.w3.org/2000/svg" xmlns:xlink="http://www.w3.org/1999/xlink" width="101.821" height="70" viewBox="0 0 101.821 70">
  <defs>
    <clipPath id="clip-path">
      <rect id="Rectángulo_37506" data-name="Rectángulo 37506" width="101.821" height="70" fill="none"/>
    </clipPath>
  </defs>
  <g id="Grupo_115660" data-name="Grupo 115660" clip-path="url(#clip-path)">
    <path id="Trazado_171256" data-name="Trazado 171256" d="M0,44.564A4.676,4.676,0,0,0,.475,42.9a13.494,13.494,0,0,1,5.744-8.056,17.309,17.309,0,0,0,6.115-6.726c2.494-4.657,5.169-9.217,7.74-13.834A14.381,14.381,0,0,1,33.614,6.38c1.374.01,1.374,0,1.386-1.4A4.766,4.766,0,0,1,40.02.02q20.315-.008,40.631,0c1.371,0,1.761.3,2.105,1.587-.338,1.283-.739,1.594-2.1,1.594q-15.926,0-31.852,0c-2.48,0-4.96.02-7.439.031-.165-.011-.33-.03-.495-.031-2.357-.024-2.691.308-2.691,2.668q0,26.18,0,52.36c0,1.766.472,2.241,2.226,2.242q12.171,0,24.342,0c1.364,0,1.762.311,2.1,1.6-.337,1.25-.743,1.582-2.006,1.582q-12.443.005-24.886.008a5.161,5.161,0,0,1-4.5-2.587,9.233,9.233,0,0,1-.464-3.31c.026-4.039.015-8.078.009-12.116q-.01-6.106-.039-12.212,0-9.551.008-19.1c.011-1.093.027-2.185.031-3.278C35,9.515,35,9.515,33.4,9.6A10.884,10.884,0,0,0,23.1,15.44Q18.66,23.187,14.34,31a15.817,15.817,0,0,1-5.415,5.826,8.671,8.671,0,0,0-2.393,1.9,9.938,9.938,0,0,0-3.31,7.28c-.116,4.231-.044,8.468-.033,12.7A1.54,1.54,0,0,0,4.7,60.455a1.719,1.719,0,0,1,1.695,1.617A1.775,1.775,0,0,1,4.005,63.6,4.78,4.78,0,0,1,.37,60.723C.27,60.5.3,60.188,0,60.075Z" transform="translate(0 -0.012)" fill="#010101"/>
    <path id="Trazado_171257" data-name="Trazado 171257" d="M155.642,7.622c2.48-.011,4.959-.03,7.439-.031q15.926-.005,31.852,0c1.359,0,1.759-.311,2.1-1.594h3.123c.325,1.249.736,1.586,1.984,1.594q4.1.026,8.193.041c-.132.568-.656.963-.617,1.63.06,1.019-.01,2.046.022,3.068a1.578,1.578,0,0,0,2.448,1.386c.227-.125.392-.366.686-.362.013.23.038.461.038.691q0,23.52,0,47.04c0,.2-.02.4-.031.593l-6.4.024a3.053,3.053,0,0,1-.116-.372,11.114,11.114,0,0,0-10.766-9.184,11.242,11.242,0,0,0-8.929,4.169,2.068,2.068,0,0,1-1.115-.358,50.418,50.418,0,0,1-7.534-4.55,54.873,54.873,0,0,1-9.9-9.217,53.761,53.761,0,0,1-7.809-12.58,8.01,8.01,0,0,1-1.058-3.056,69.271,69.271,0,0,0,7.44.117,4.767,4.767,0,1,0-.014-9.531c-1.887-.016-3.776.041-5.662-.017a5.5,5.5,0,0,0-4,1.4c-.367-.039-.337-.318-.386-.584a52.325,52.325,0,0,1-.978-10.313m26.98,19.058c1.094,0,2.188.019,3.28,0a4.768,4.768,0,0,0,.022-9.535q-3.23-.048-6.461,0a4.768,4.768,0,0,0-.022,9.535c1.06.024,2.121,0,3.181,0m19.174,0c1.093,0,2.188.025,3.28-.005a4.766,4.766,0,0,0-.044-9.531c-2.153-.034-4.308-.029-6.461,0a4.768,4.768,0,1,0,.044,9.537c1.06.017,2.121,0,3.181,0" transform="translate(-114.274 -4.401)" fill="#e5e5e5"/>
    <path id="Trazado_171258" data-name="Trazado 171258" d="M150.458,30.959a8.01,8.01,0,0,0,1.058,3.056,53.764,53.764,0,0,0,7.809,12.58,54.877,54.877,0,0,0,9.9,9.217,50.4,50.4,0,0,0,7.533,4.55,2.068,2.068,0,0,0,1.115.358,19.861,19.861,0,0,0-1.4,2.379,11.676,11.676,0,0,0-.582,7.759l-3.557.01c-.334-1.287-.733-1.6-2.1-1.6q-12.171,0-24.342,0c-1.753,0-2.226-.476-2.226-2.242q0-26.18,0-52.36c0-2.36.334-2.692,2.691-2.668.165,0,.33.02.494.031a52.327,52.327,0,0,0,.978,10.313c.049.266.019.545.386.584-2.482,3.155-1.482,6.743,2.24,8.032" transform="translate(-105.485 -8.809)" fill="#cdcdcd"/>
    <path id="Trazado_171259" data-name="Trazado 171259" d="M333.313,3.228q-4.1-.02-8.193-.041c-1.247-.008-1.659-.345-1.984-1.594.332-1.254.736-1.584,2-1.586,3.013-.006,6.026-.014,9.039,0A4.736,4.736,0,0,1,339.071,4.9q.015,26.918,0,53.836a4.792,4.792,0,0,1-4.083,4.869c-1.313.205-1.953-.224-2.306-1.543a1.739,1.739,0,0,1,1.768-1.626,1.5,1.5,0,0,0,1.433-1.587c.022-.522-.014-1.047-.023-1.571.011-.2.031-.4.031-.593q0-23.521,0-47.04c0-.23-.025-.461-.038-.691.013-1.415.05-2.831.03-4.246A1.47,1.47,0,0,0,334.4,3.2c-.36-.019-.723.021-1.084.033" transform="translate(-237.257 0)" fill="#010101"/>
    <path id="Trazado_171260" data-name="Trazado 171260" d="M263.809,193.943a11.677,11.677,0,0,1,.582-7.759,19.914,19.914,0,0,1,1.4-2.379,11.242,11.242,0,0,1,8.929-4.169,11.115,11.115,0,0,1,10.766,9.184,3,3,0,0,0,.116.372,14.8,14.8,0,0,1-.333,4.752,11.82,11.82,0,0,1-4.7,6.175,11.141,11.141,0,0,1-16.387-5.274c-.119-.3-.252-.6-.378-.9m18.686-3.157a7.943,7.943,0,1,0-8.011,7.908,7.976,7.976,0,0,0,8.011-7.908" transform="translate(-193.405 -131.893)" fill="#010101"/>
    <path id="Trazado_171261" data-name="Trazado 171261" d="M57.791,193.927a11.819,11.819,0,0,1-4.7,6.175A11.141,11.141,0,0,1,36.7,194.828c-.119-.3-.252-.6-.378-.9a11.83,11.83,0,0,1,.742-8.157c.119-.2.241-.4.357-.595a11.022,11.022,0,0,1,13.563-4.812c4.052,1.558,6.307,4.628,7.133,8.824a14.6,14.6,0,0,1-.33,4.741m-2.78-3.259a7.943,7.943,0,1,0-7.91,8.01,7.974,7.974,0,0,0,7.91-8.01" transform="translate(-26.375 -131.877)" fill="#010101"/>
    <path id="Trazado_171262" data-name="Trazado 171262" d="M19.412,160.857a11.831,11.831,0,0,0-.742,8.157l-3.557.01a1.72,1.72,0,0,0-1.695-1.617,1.541,1.541,0,0,1-1.509-1.741c-.01-4.234-.083-8.471.034-12.7a9.937,9.937,0,0,1,3.31-7.28c-.188,1.965-.169,3.936-.172,5.906a12.3,12.3,0,0,0,1.908,6.635,5.962,5.962,0,0,0,2.423,2.633" transform="translate(-8.721 -106.965)" fill="#cdcdcd"/>
    <path id="Trazado_171263" data-name="Trazado 171263" d="M118.205,154.389a14.6,14.6,0,0,0,.33-4.741,6.859,6.859,0,0,1,.892-.023c.627.061.783-.23.782-.813q-.03-11.514-.029-23.028l1.57-.021q.02,6.106.039,12.212c.007,4.039.018,8.077-.009,12.116a9.232,9.232,0,0,0,.464,3.31c-.334.877-1.147.9-1.873.972a20.554,20.554,0,0,1-2.165.016" transform="translate(-86.79 -92.339)" fill="#cdcdcd"/>
    <path id="Trazado_171264" data-name="Trazado 171264" d="M345.676,220.281a14.8,14.8,0,0,0,.333-4.752l6.4-.024c.01.524.046,1.048.024,1.571A1.5,1.5,0,0,1,351,218.664a1.739,1.739,0,0,0-1.768,1.626l-3.556-.009" transform="translate(-253.806 -158.231)" fill="#cdcdcd"/>
    <path id="Trazado_171265" data-name="Trazado 171265" d="M50.96,59.914q.01,11.514.029,23.028c0,.584-.155.875-.782.813a6.86,6.86,0,0,0-.892.023c-.826-4.2-3.081-7.265-7.133-8.824A11.022,11.022,0,0,0,28.62,79.767c-.117.2-.238.4-.357.595a5.961,5.961,0,0,1-2.423-2.633,12.3,12.3,0,0,1-1.908-6.635c0-1.971-.016-3.941.171-5.906a8.675,8.675,0,0,1,2.393-1.9,15.821,15.821,0,0,0,5.415-5.826q4.33-7.807,8.756-15.561a10.883,10.883,0,0,1,10.308-5.843q-.008,2.355-.017,4.711l-1.523.02c-.639-1.256-1.279-1.509-2.564-.988a7.8,7.8,0,0,0-3.9,3.386q-4.55,7.8-9.09,15.6c-.884,1.524-.19,2.688,1.589,2.692q5.965.014,11.929,0c1.268,0,1.666-.322,2.023-1.578l1.536.018m-4.828,7.919v0h1.583a1.628,1.628,0,0,0,.2-.008,1.6,1.6,0,0,0,1.47-1.583,1.539,1.539,0,0,0-1.47-1.569c-1.119-.053-2.244-.048-3.364,0A1.547,1.547,0,0,0,43.031,66.2a1.574,1.574,0,0,0,1.518,1.628c.525.04,1.055.007,1.583.007" transform="translate(-17.571 -26.47)" fill="#e5e5e5"/>
    <path id="Trazado_171266" data-name="Trazado 171266" d="M89.736,72.94,88.2,72.922c-.3-1.251-.725-1.611-1.975-1.613-2.913-.007-5.826,0-8.738-.01-.233,0-.517.137-.744-.17q3.975-6.795,7.96-13.589a4.1,4.1,0,0,1,2.2-1.769,1.743,1.743,0,0,0,1.305-1.96l1.523-.019,1.579.027q0,9.551-.008,19.1l-1.57.021" transform="translate(-56.346 -39.495)" fill="#a4ccdd"/>
    <path id="Trazado_171267" data-name="Trazado 171267" d="M127.207,40.725l-1.58-.027q.008-2.356.017-4.711c1.595-.082,1.6-.082,1.594,1.461,0,1.093-.02,2.185-.031,3.278" transform="translate(-92.239 -26.402)" fill="#cdcdcd"/>
    <path id="Trazado_171268" data-name="Trazado 171268" d="M159.261,57.28c-3.721-1.29-4.722-4.877-2.24-8.032a5.5,5.5,0,0,1,4-1.4c1.886.057,3.774,0,5.662.017A4.766,4.766,0,1,1,166.7,57.4a69.136,69.136,0,0,1-7.44-.117m4.334-6.235c-.991,0-1.982-.014-2.972,0a1.6,1.6,0,1,0-.027,3.174q3.022.028,6.044,0a1.59,1.59,0,1,0,.026-3.17c-1.023-.024-2.047-.005-3.071-.006" transform="translate(-114.289 -35.13)" fill="#010101"/>
    <path id="Trazado_171269" data-name="Trazado 171269" d="M235.368,57.41c-1.06,0-2.121.02-3.181,0a4.768,4.768,0,0,1,.022-9.535q3.23-.044,6.461,0a4.768,4.768,0,0,1-.022,9.535c-1.093.022-2.187,0-3.28,0m.032-6.362c-1.024,0-2.048-.022-3.071.006a1.585,1.585,0,1,0,.007,3.166q3.071.038,6.143,0a1.591,1.591,0,1,0-.007-3.17c-1.023-.023-2.048,0-3.071,0" transform="translate(-167.02 -35.132)" fill="#010101"/>
    <path id="Trazado_171270" data-name="Trazado 171270" d="M307.284,57.411c-1.06,0-2.121.015-3.181,0a4.769,4.769,0,1,1-.044-9.537c2.154-.027,4.308-.032,6.461,0a4.766,4.766,0,0,1,.044,9.531c-1.093.03-2.187.005-3.28.006m-.024-3.18c.991,0,1.982.013,2.972,0a1.616,1.616,0,0,0,1.8-1.563,1.591,1.591,0,0,0-1.745-1.61q-3.021-.029-6.044,0a1.587,1.587,0,0,0-1.745,1.608,1.609,1.609,0,0,0,1.793,1.565c.991.017,1.982,0,2.972,0" transform="translate(-219.762 -35.133)" fill="#010101"/>
    <path id="Trazado_171271" data-name="Trazado 171271" d="M359.718,12.041c.361-.012.724-.052,1.084-.033a1.471,1.471,0,0,1,1.486,1.51c.02,1.415-.017,2.83-.03,4.246-.294,0-.459.237-.686.361a1.578,1.578,0,0,1-2.448-1.385c-.032-1.022.037-2.049-.022-3.068-.039-.667.485-1.062.617-1.63" transform="translate(-263.662 -8.813)" fill="#fefefe"/>
    <path id="Trazado_171272" data-name="Trazado 171272" d="M291.329,199.555a7.943,7.943,0,1,1-7.831-7.978,8,8,0,0,1,7.831,7.978m-7.879-4.794a4.78,4.78,0,1,0,4.7,4.806,4.8,4.8,0,0,0-4.7-4.806" transform="translate(-202.24 -140.662)" fill="#788188"/>
    <path id="Trazado_171273" data-name="Trazado 171273" d="M63.86,199.454a7.943,7.943,0,1,1-7.933-7.875,8.006,8.006,0,0,1,7.933,7.875m-8,4.868a4.842,4.842,0,0,0,4.813-4.8,4.792,4.792,0,0,0-4.745-4.755,4.78,4.78,0,1,0-.067,9.559" transform="translate(-35.224 -140.663)" fill="#788188"/>
    <path id="Trazado_171274" data-name="Trazado 171274" d="M75.872,50.431a1.742,1.742,0,0,1-1.305,1.96,4.105,4.105,0,0,0-2.2,1.768q-4,6.783-7.96,13.59c.227.307.512.169.744.17,2.913.012,5.826,0,8.738.01,1.25,0,1.678.362,1.975,1.613-.357,1.256-.755,1.577-2.023,1.578q-5.965.008-11.929,0c-1.779,0-2.473-1.169-1.589-2.693q4.53-7.807,9.09-15.6a7.8,7.8,0,0,1,3.9-3.386c1.285-.521,1.925-.268,2.564.988" transform="translate(-44.007 -36.115)" fill="#010101"/>
    <path id="Trazado_171275" data-name="Trazado 171275" d="M98.9,146.816c-.528,0-1.058.032-1.583-.007A1.574,1.574,0,0,1,95.8,145.18a1.547,1.547,0,0,1,1.518-1.524c1.12-.044,2.244-.049,3.364,0a1.539,1.539,0,0,1,1.47,1.569,1.6,1.6,0,0,1-1.47,1.583,1.631,1.631,0,0,1-.2.008H98.9v0" transform="translate(-70.336 -105.452)" fill="#010101"/>
    <path id="Trazado_171276" data-name="Trazado 171276" d="M172.387,59.866c1.024,0,2.048-.018,3.071.006a1.591,1.591,0,1,1-.026,3.17q-3.022.031-6.044,0a1.6,1.6,0,1,1,.027-3.174c.991-.017,1.982,0,2.972,0" transform="translate(-123.081 -43.951)" fill="#a4ccdd"/>
    <path id="Trazado_171277" data-name="Trazado 171277" d="M244.2,59.865c1.024,0,2.048-.018,3.071,0a1.59,1.59,0,1,1,.007,3.17q-3.071.031-6.143,0a1.585,1.585,0,1,1-.007-3.166c1.023-.028,2.048-.006,3.071-.007" transform="translate(-175.823 -43.949)" fill="#a4ccdd"/>
    <path id="Trazado_171278" data-name="Trazado 171278" d="M316.063,63.041c-.991,0-1.982.013-2.972,0a1.609,1.609,0,0,1-1.793-1.565,1.588,1.588,0,0,1,1.745-1.608q3.021-.029,6.044,0a1.591,1.591,0,0,1,1.744,1.61,1.616,1.616,0,0,1-1.8,1.563c-.99.016-1.982,0-2.972,0" transform="translate(-228.565 -43.944)" fill="#a4ccdd"/>
    <path id="Trazado_171279" data-name="Trazado 171279" d="M292.131,203.558a4.78,4.78,0,1,1-4.865,4.751,4.845,4.845,0,0,1,4.865-4.751m1.51,4.792a1.587,1.587,0,1,0-1.585,1.564,1.6,1.6,0,0,0,1.585-1.564" transform="translate(-210.92 -149.458)" fill="#010101"/>
    <path id="Trazado_171280" data-name="Trazado 171280" d="M64.542,213.118a4.78,4.78,0,1,1,4.813-4.8,4.809,4.809,0,0,1-4.813,4.8m.023-6.377a1.587,1.587,0,1,0,1.6,1.543,1.6,1.6,0,0,0-1.6-1.543" transform="translate(-43.903 -149.459)" fill="#010101"/>
    <path id="Trazado_171281" data-name="Trazado 171281" d="M302.486,217.138a1.587,1.587,0,1,1-1.538-1.61,1.6,1.6,0,0,1,1.538,1.61" transform="translate(-219.765 -158.247)" fill="#e5e5e5"/>
    <path id="Trazado_171282" data-name="Trazado 171282" d="M73.414,215.531a1.587,1.587,0,1,1-1.566,1.581,1.6,1.6,0,0,1,1.566-1.581" transform="translate(-52.753 -158.249)" fill="#e5e5e5"/>
  </g>
</svg>
