<svg xmlns="http://www.w3.org/2000/svg" xmlns:xlink="http://www.w3.org/1999/xlink" width="80" height="80" viewBox="0 0 80 80">
  <defs>
    <clipPath id="clip-path">
      <rect id="Rectángulo_37236" data-name="Rectángulo 37236" width="80" height="80" transform="translate(-0.001 0)" fill="none"/>
    </clipPath>
  </defs>
  <g id="Grupo_111323" data-name="Grupo 111323" transform="translate(0.164 0.006)">
    <g id="Grupo_111291" data-name="Grupo 111291" transform="translate(-0.163 -0.006)" clip-path="url(#clip-path)">
      <path id="Trazado_105431" data-name="Trazado 105431" d="M72.028,79.82H7.483c-.076-.264-.334-.217-.51-.264a9.036,9.036,0,0,1-6.766-6.84c-.049-.181.054-.434-.208-.535V5.3c.24-.057.194-.289.244-.441A6.585,6.585,0,0,1,6.872,0h66.1a6.6,6.6,0,0,1,6.848,6.8q.012,31.957,0,63.914a9.122,9.122,0,0,1-6.577,8.762c-.4.119-.858.057-1.214.34m-.47-2.812a1.645,1.645,0,0,0,.84-.075,6.418,6.418,0,0,0,4.768-6.27q.007-27.6,0-55.2a1.9,1.9,0,0,1,0-.233c.053-.423-.1-.615-.555-.589-.7.039-1.4.026-2.1.035-.233-.01-.466-.029-.7-.029q-35.187,0-70.373-.017c-.66,0-.8.179-.8.816q.027,27.509.015,55.019a6.432,6.432,0,0,0,6.732,6.7q30.511.007,61.021,0a2.554,2.554,0,0,0,1.147-.156M39.878,11.987q13.365,0,26.731,0c3.273,0,6.546-.028,9.819-.005.588,0,.75-.158.734-.741-.041-1.505-.015-3.013-.014-4.52a3.906,3.906,0,0,0-.412-1.8C75.83,3.14,74.3,2.631,72.407,2.633q-32.848.03-65.7.016A3.969,3.969,0,0,0,2.659,6.691C2.644,8.145,2.7,9.6,2.638,11.054c-.031.737.152.953.924.952q18.158-.04,36.316-.019" transform="translate(0.174 0.006)" fill="#000101"/>
      <path id="Trazado_105432" data-name="Trazado 105432" d="M49.888,21.992q-18.158,0-36.316.019c-.772,0-.955-.214-.924-.952.06-1.452.006-2.909.021-4.363a3.969,3.969,0,0,1,4.052-4.042q32.848-.008,65.7-.016c1.891,0,3.422.507,4.328,2.285a3.906,3.906,0,0,1,.412,1.8c0,1.507-.027,3.014.014,4.52.016.583-.146.745-.734.741-3.273-.022-6.546,0-9.819.005q-13.365,0-26.731,0" transform="translate(-9.836 -9.999)" fill="#2941a0"/>
      <path id="Trazado_105433" data-name="Trazado 105433" d="M86.649,70.213c-.7.039-1.4.026-2.1.035-.233-.01-.466-.029-.7-.029q-35.187,0-70.373-.017c-.66,0-.8.179-.8.816q.027,27.509.016,55.019a6.432,6.432,0,0,0,6.732,6.7q30.511.007,61.021,0a2.551,2.551,0,0,0,1.147-.156,1.646,1.646,0,0,0,.84-.075,6.418,6.418,0,0,0,4.768-6.27q.007-27.6,0-55.2a1.852,1.852,0,0,1,0-.233c.053-.423-.1-.615-.555-.589m-53.461,6.6a5.084,5.084,0,0,1,3.351-1.273q13.4-.012,26.807,0a5.3,5.3,0,0,1,.009,10.6c-4.467.04-8.935.01-13.4.01v0c-4.494,0-8.988.023-13.481-.01a5.185,5.185,0,0,1-4.842-3.53,5.322,5.322,0,0,1,1.56-5.8m4.176,30.433a1.319,1.319,0,0,1-1.885-.487c-.653-.937-1.287-1.887-1.913-2.843a.8.8,0,0,0-.749-.436q-1.792.032-3.585,0c-.406-.007-.545.135-.539.54.019,1.221.023,2.443,0,3.663a.8.8,0,0,0,.474.728c.911.6,1.825,1.193,2.724,1.81a1.346,1.346,0,1,1-1.47,2.221c-.539-.343-1.068-.7-1.667-1.1-.171,1.143.329,2.7-1.4,2.709-1.748.006-1.192-1.587-1.408-2.7-.638.414-1.214.8-1.8,1.164a1.33,1.33,0,1,1-1.472-2.2c.922-.629,1.845-1.259,2.8-1.843a1.069,1.069,0,0,0,.567-1.077c-.037-1.09-.03-2.182,0-3.273.012-.471-.148-.646-.621-.641-1.481.016-2.962.011-4.443,0a.738.738,0,0,0-.7.389c-.321.5-.66,1-1.006,1.482a1.368,1.368,0,0,1-1.932.566,1.344,1.344,0,0,1-.324-1.977c.061-.108.121-.216.237-.422-.271-.022-.426-.029-.58-.049a1.318,1.318,0,0,1,.057-2.634c.722-.042,1.449-.009,2.158-.009.126-.33-.1-.485-.219-.666-.579-.893-1.2-1.761-1.756-2.666a1.3,1.3,0,0,1,.374-1.791,1.236,1.236,0,0,1,1.744.259,45.5,45.5,0,0,1,2.947,4.485c.15.273.256.382.553.378.987-.014,1.975-.019,2.962,0,.4.008.548-.126.541-.534q-.03-1.792,0-3.585a.806.806,0,0,0-.425-.757c-.933-.613-1.855-1.243-2.771-1.88-.822-.57-1.015-1.3-.545-1.984a1.391,1.391,0,0,1,2.061-.195c.348.227.686.469,1.036.692.167.107.334.346.539.216.183-.116.087-.383.1-.585.013-.233,0-.469.024-.7a1.33,1.33,0,0,1,1.3-1.3,1.35,1.35,0,0,1,1.338,1.267c.045.435.008.878.008,1.382a5.457,5.457,0,0,0,1.573-.929c.932-.6,1.706-.557,2.182.157.454.681.216,1.428-.654,2.027s-1.706,1.186-2.578,1.748a.963.963,0,0,0-.52.938c.035,1.116.031,2.235,0,3.351-.013.484.1.692.636.673,1.142-.04,2.286-.027,3.429,0a.842.842,0,0,0,.824-.439c.6-.942,1.22-1.869,1.848-2.792a1.338,1.338,0,1,1,2.233,1.438c-.342.55-.7,1.089-1.05,1.635-.009.015.011.049.029.115,1.028.141,2.583-.338,2.616,1.355.033,1.72-1.568,1.22-2.7,1.418.414.629.776,1.159,1.117,1.7a1.347,1.347,0,0,1-.311,1.98m21.729,12.207c.41.614.784,1.16,1.144,1.715a1.343,1.343,0,1,1-2.191,1.5q-.973-1.41-1.913-2.843a.8.8,0,0,0-.748-.441c-1.195.022-2.39.024-3.585,0-.456-.009-.577.169-.569.6.022,1.143.027,2.287,0,3.429a.9.9,0,0,0,.47.885c.9.569,1.782,1.164,2.66,1.764s1.111,1.331.648,2.028-1.226.78-2.113.2c-.512-.333-1.02-.669-1.6-1.05-.186,1.162.378,2.789-1.437,2.73-1.659-.054-1.175-1.573-1.324-2.722-.609.4-1.158.77-1.717,1.123a1.34,1.34,0,0,1-1.988-.255,1.38,1.38,0,0,1,.563-1.985c.905-.608,1.811-1.215,2.727-1.807a.848.848,0,0,0,.47-.808c-.028-1.194-.022-2.39,0-3.585.006-.4-.116-.552-.53-.544q-1.792.032-3.585,0a.8.8,0,0,0-.755.427q-.939,1.433-1.919,2.839a1.343,1.343,0,1,1-2.209-1.478c.3-.457.606-.906.913-1.356.188-.276.15-.426-.214-.425s-.729.014-1.09-.016a1.256,1.256,0,0,1-1.213-1.2A1.28,1.28,0,0,1,39,116.8a4.544,4.544,0,0,1,.849-.072c.257-.011.515,0,.922,0-.4-.607-.744-1.115-1.081-1.625-.579-.875-.526-1.654.142-2.13s1.472-.233,2.083.668c.6.881,1.2,1.758,1.771,2.656a.842.842,0,0,0,.823.438c1.169-.022,2.339-.027,3.507,0,.454.011.573-.151.564-.582q-.037-1.753,0-3.507a.848.848,0,0,0-.448-.819c-.938-.6-1.862-1.231-2.777-1.87a1.344,1.344,0,1,1,1.49-2.2c.535.345,1.063.7,1.729,1.142,0-.574-.022-.98,0-1.384a1.331,1.331,0,1,1,2.658.017c.03.4-.205,1.011.119,1.158.357.163.725-.369,1.1-.585.269-.157.51-.361.781-.512a1.331,1.331,0,0,1,1.79.385,1.287,1.287,0,0,1-.32,1.8c-.941.69-1.909,1.347-2.893,1.976a1.075,1.075,0,0,0-.587,1.065c.042,1.089.04,2.183,0,3.272-.019.534.179.658.673.644,1.142-.031,2.286-.026,3.429,0a.85.85,0,0,0,.823-.446c.588-.918,1.193-1.825,1.8-2.729a1.345,1.345,0,1,1,2.242,1.434c-.33.528-.675,1.046-1.011,1.57-.009.014.013.048.038.128,1.025.156,2.623-.354,2.576,1.444-.045,1.7-1.592,1.106-2.7,1.317M80.67,106.71c-.648-.94-1.289-1.885-1.909-2.844a.845.845,0,0,0-.822-.437c-1.168.025-2.338.027-3.506,0-.449-.01-.576.144-.567.578.025,1.168.022,2.337,0,3.506a.849.849,0,0,0,.458.815c.94.6,1.865,1.225,2.784,1.858a1.343,1.343,0,0,1,.514,1.94,1.368,1.368,0,0,1-1.989.275q-.656-.419-1.295-.864c-.312-.219-.461-.177-.465.227a8.822,8.822,0,0,1-.048,1.165,1.212,1.212,0,0,1-1.2,1.112,1.257,1.257,0,0,1-1.361-1.026,4.778,4.778,0,0,1-.067-.85c-.01-.249,0-.5,0-.913-.67.438-1.2.793-1.737,1.134a1.345,1.345,0,1,1-1.473-2.216c.9-.611,1.809-1.217,2.73-1.8a.9.9,0,0,0,.491-.875q-.046-1.752,0-3.506c.011-.451-.148-.57-.578-.561q-1.752.038-3.506,0a.848.848,0,0,0-.815.452c-.609.935-1.241,1.855-1.876,2.773-.57.822-1.3,1.022-1.983.564a1.366,1.366,0,0,1-.221-2.047c.351-.539.712-1.072,1.153-1.733-.538,0-.964.014-1.388,0a1.326,1.326,0,1,1-.01-2.648c.429-.018.86,0,1.418,0-.455-.69-.845-1.261-1.213-1.847A1.347,1.347,0,0,1,62.454,97a1.32,1.32,0,0,1,1.944.467c.649.939,1.287,1.887,1.9,2.851a.9.9,0,0,0,.883.472c1.116-.028,2.235-.042,3.349,0,.57.024.69-.183.673-.706-.037-1.116-.028-2.234,0-3.35a.91.91,0,0,0-.465-.891c-.938-.6-1.857-1.238-2.775-1.872a1.353,1.353,0,0,1-.532-1.933,1.331,1.331,0,0,1,1.978-.293c.56.356,1.106.735,1.725,1.148.177-1.145-.306-2.7,1.432-2.681,1.7.017,1.174,1.557,1.365,2.608a10.014,10.014,0,0,0,1.659-1.043c.836-.532,1.6-.453,2.053.228s.247,1.413-.572,1.986c-.893.624-1.791,1.244-2.706,1.835a.982.982,0,0,0-.5.957q.042,1.713,0,3.428c-.01.447.145.579.581.57,1.168-.025,2.338-.027,3.506,0a.834.834,0,0,0,.808-.459c.586-.919,1.191-1.826,1.8-2.728a1.362,1.362,0,0,1,1.982-.573c.686.455.776,1.206.235,2.048-.335.521-.682,1.035-1.077,1.634,1,.214,2.23-.308,2.723,1v.8c-.506,1.279-1.669.832-2.717.958.415.626.786,1.176,1.146,1.733a1.368,1.368,0,0,1-.253,2.048,1.336,1.336,0,0,1-1.929-.54" transform="translate(-9.862 -55.57)" fill="#22afd6"/>
      <path id="Trazado_105434" data-name="Trazado 105434" d="M266.449,177.769q0,.4,0,.8c-.506,1.279-1.669.832-2.717.958.415.626.786,1.176,1.146,1.733a1.368,1.368,0,0,1-.253,2.048,1.336,1.336,0,0,1-1.929-.54c-.648-.941-1.289-1.885-1.909-2.844a.845.845,0,0,0-.821-.437c-1.168.025-2.338.027-3.506,0-.449-.011-.577.143-.567.578.025,1.168.022,2.338,0,3.506a.848.848,0,0,0,.458.815c.94.6,1.866,1.225,2.784,1.858a1.343,1.343,0,0,1,.514,1.94,1.369,1.369,0,0,1-1.989.275c-.437-.279-.87-.566-1.295-.864-.312-.219-.461-.177-.465.227a8.851,8.851,0,0,1-.048,1.165,1.213,1.213,0,0,1-1.2,1.112,1.257,1.257,0,0,1-1.361-1.026,4.775,4.775,0,0,1-.067-.85c-.01-.249,0-.5,0-.913-.67.438-1.2.793-1.737,1.134a1.345,1.345,0,1,1-1.473-2.216c.9-.611,1.809-1.217,2.73-1.8a.9.9,0,0,0,.491-.875q-.046-1.752,0-3.505c.011-.451-.147-.57-.578-.561q-1.752.038-3.506,0a.848.848,0,0,0-.815.452c-.609.935-1.241,1.855-1.876,2.772-.57.823-1.3,1.022-1.982.564a1.365,1.365,0,0,1-.221-2.047c.352-.539.712-1.072,1.152-1.733-.538,0-.964.014-1.388,0a1.326,1.326,0,1,1-.011-2.648c.43-.018.861,0,1.418,0-.455-.69-.846-1.261-1.213-1.847a1.347,1.347,0,0,1,.273-1.931,1.32,1.32,0,0,1,1.944.467c.649.939,1.287,1.887,1.9,2.851a.9.9,0,0,0,.883.472c1.116-.028,2.235-.042,3.35,0,.57.024.69-.183.673-.706-.037-1.116-.028-2.234,0-3.35a.91.91,0,0,0-.464-.891c-.939-.6-1.857-1.238-2.775-1.872a1.353,1.353,0,0,1-.531-1.933,1.331,1.331,0,0,1,1.978-.293c.56.356,1.106.735,1.725,1.148.177-1.145-.306-2.7,1.432-2.681,1.7.017,1.173,1.557,1.365,2.609a10.025,10.025,0,0,0,1.659-1.043c.836-.532,1.6-.453,2.053.228s.247,1.413-.572,1.986c-.893.624-1.79,1.244-2.706,1.835a.982.982,0,0,0-.5.957q.042,1.713,0,3.428c-.01.447.145.579.581.57,1.168-.025,2.338-.027,3.506,0a.834.834,0,0,0,.808-.459c.586-.919,1.191-1.826,1.8-2.728a1.362,1.362,0,0,1,1.982-.573c.686.455.776,1.206.235,2.048-.335.521-.682,1.035-1.077,1.634,1,.214,2.23-.308,2.723,1" transform="translate(-191.888 -131.626)" fill="#000303"/>
      <path id="Trazado_105435" data-name="Trazado 105435" d="M27.7,179.578c-.271-.022-.426-.029-.58-.049a1.318,1.318,0,0,1,.057-2.634c.722-.042,1.449-.009,2.158-.009.126-.33-.1-.485-.219-.666-.579-.893-1.2-1.761-1.756-2.666a1.3,1.3,0,0,1,.374-1.791,1.236,1.236,0,0,1,1.744.259,45.45,45.45,0,0,1,2.947,4.485c.15.274.256.382.553.378.987-.014,1.975-.019,2.962,0,.4.008.548-.126.542-.534q-.03-1.792,0-3.585a.806.806,0,0,0-.425-.757c-.933-.613-1.855-1.243-2.772-1.88-.821-.57-1.015-1.3-.545-1.984a1.39,1.39,0,0,1,2.06-.195c.348.226.686.469,1.036.692.167.107.334.346.539.216.183-.117.087-.384.1-.585.013-.233,0-.469.024-.7a1.33,1.33,0,0,1,1.3-1.3,1.35,1.35,0,0,1,1.337,1.267c.045.435.008.878.008,1.382A5.447,5.447,0,0,0,40.714,168c.932-.6,1.706-.556,2.182.158.454.681.216,1.428-.654,2.027s-1.706,1.186-2.578,1.748a.962.962,0,0,0-.521.938c.035,1.116.031,2.235,0,3.351-.013.484.1.691.636.673,1.142-.04,2.286-.027,3.429,0a.842.842,0,0,0,.824-.438c.6-.942,1.22-1.87,1.848-2.792a1.339,1.339,0,1,1,2.233,1.438c-.342.55-.7,1.089-1.05,1.635-.009.015.011.049.029.115,1.028.142,2.583-.338,2.615,1.355.033,1.72-1.568,1.22-2.7,1.418.414.629.776,1.159,1.117,1.7a1.346,1.346,0,0,1-.311,1.98,1.319,1.319,0,0,1-1.885-.487c-.653-.937-1.287-1.887-1.913-2.843a.8.8,0,0,0-.749-.436q-1.792.032-3.585,0c-.406-.006-.545.135-.539.54.019,1.221.023,2.442,0,3.663a.8.8,0,0,0,.474.728c.911.6,1.825,1.193,2.724,1.81a1.365,1.365,0,0,1,.527,1.994,1.351,1.351,0,0,1-2,.227c-.539-.343-1.068-.7-1.667-1.1-.171,1.143.329,2.7-1.4,2.709-1.748.006-1.192-1.587-1.409-2.7-.638.414-1.214.8-1.8,1.164a1.33,1.33,0,1,1-1.472-2.2c.922-.629,1.845-1.259,2.8-1.843a1.068,1.068,0,0,0,.567-1.077c-.037-1.09-.03-2.182,0-3.273.012-.471-.148-.646-.621-.641-1.481.016-2.962.011-4.443,0a.739.739,0,0,0-.7.389c-.321.5-.66,1-1.005,1.482a1.368,1.368,0,0,1-1.932.566A1.343,1.343,0,0,1,27.46,180c.061-.108.121-.216.237-.422" transform="translate(-20.311 -131.628)" fill="#000303"/>
      <path id="Trazado_105436" data-name="Trazado 105436" d="M144.676,245.378c0-.574-.022-.98,0-1.384a1.331,1.331,0,1,1,2.658.017c.03.4-.205,1.011.119,1.158.357.163.725-.369,1.1-.585.269-.157.51-.361.781-.512a1.331,1.331,0,0,1,1.79.385,1.287,1.287,0,0,1-.32,1.8c-.941.69-1.909,1.348-2.893,1.976a1.076,1.076,0,0,0-.587,1.065c.042,1.089.04,2.183,0,3.272-.019.534.179.658.673.644,1.142-.031,2.286-.026,3.429,0a.851.851,0,0,0,.823-.446c.587-.918,1.193-1.825,1.8-2.729a1.345,1.345,0,1,1,2.242,1.434c-.33.528-.676,1.046-1.012,1.57-.009.014.013.048.038.128,1.025.156,2.623-.354,2.576,1.444-.045,1.7-1.592,1.107-2.7,1.317.411.614.784,1.161,1.144,1.715a1.343,1.343,0,1,1-2.191,1.5q-.973-1.41-1.913-2.843a.8.8,0,0,0-.748-.441c-1.194.022-2.39.024-3.585,0-.456-.009-.577.169-.569.6.021,1.143.027,2.286,0,3.429a.9.9,0,0,0,.47.885c.9.569,1.782,1.164,2.66,1.764s1.111,1.331.648,2.028-1.226.78-2.113.2c-.511-.333-1.02-.67-1.6-1.05-.186,1.162.378,2.789-1.437,2.73-1.659-.054-1.174-1.573-1.324-2.723-.609.4-1.158.77-1.717,1.123a1.34,1.34,0,0,1-1.988-.255,1.38,1.38,0,0,1,.563-1.985c.905-.608,1.81-1.216,2.726-1.807a.848.848,0,0,0,.47-.808c-.028-1.194-.022-2.39,0-3.585.006-.4-.116-.552-.53-.544q-1.792.032-3.585,0a.8.8,0,0,0-.755.427q-.939,1.432-1.919,2.839a1.343,1.343,0,1,1-2.209-1.477c.3-.457.606-.906.913-1.356.188-.276.15-.426-.214-.425s-.729.014-1.09-.016a1.256,1.256,0,0,1-1.213-1.2,1.28,1.28,0,0,1,1.022-1.369,4.539,4.539,0,0,1,.849-.072c.257-.011.515,0,.922,0-.4-.607-.744-1.115-1.081-1.625-.579-.876-.526-1.654.142-2.129s1.472-.233,2.083.668c.6.881,1.2,1.758,1.771,2.656a.842.842,0,0,0,.823.438c1.169-.022,2.338-.027,3.507,0,.454.011.573-.151.564-.582q-.037-1.753,0-3.507a.847.847,0,0,0-.448-.819c-.938-.6-1.862-1.231-2.778-1.87a1.344,1.344,0,1,1,1.49-2.2c.535.345,1.063.7,1.729,1.142" transform="translate(-105.961 -192.052)" fill="#000303"/>
      <path id="Trazado_105437" data-name="Trazado 105437" d="M120.825,106.384c-4.494,0-8.988.023-13.481-.01a5.185,5.185,0,0,1-4.842-3.53,5.322,5.322,0,0,1,1.56-5.8,5.084,5.084,0,0,1,3.351-1.273q13.4-.012,26.807.005a5.3,5.3,0,0,1,.009,10.6c-4.467.04-8.935.011-13.4.011Zm-.037-2.654q5.651,0,11.3,0c.676,0,1.351-.01,2.026-.025a2.628,2.628,0,0,0,.032-5.256c-2.39-.04-4.78-.028-7.17-.029q-9.587,0-19.174-.006a2.842,2.842,0,0,0-2.135.767,2.574,2.574,0,0,0-.608,2.872,2.52,2.52,0,0,0,2.477,1.671c4.417.01,8.834,0,13.25.005" transform="translate(-80.735 -75.803)" fill="#000101"/>
      <path id="Trazado_105438" data-name="Trazado 105438" d="M130.9,113.813c-4.417,0-8.834.006-13.25,0a2.52,2.52,0,0,1-2.477-1.672,2.574,2.574,0,0,1,.608-2.872,2.844,2.844,0,0,1,2.135-.767q9.587.013,19.174.006c2.39,0,4.781-.01,7.17.029a2.628,2.628,0,0,1-.032,5.256c-.675.015-1.351.024-2.026.024q-5.651,0-11.3,0" transform="translate(-90.852 -85.885)" fill="#2941a0"/>
    </g>
  </g>
</svg>
