<svg xmlns="http://www.w3.org/2000/svg" xmlns:xlink="http://www.w3.org/1999/xlink" width="136" height="136" viewBox="0 0 136 136">
  <defs>
    <clipPath id="clip-path">
      <rect id="Rectángulo_37508" data-name="Rectángulo 37508" width="90.04" height="90" fill="none"/>
    </clipPath>
  </defs>
  <g id="Grupo_115737" data-name="Grupo 115737" transform="translate(-317 -1931.25)">
    <g id="Elipse_4510" data-name="Elipse 4510" transform="translate(317 1931.25)" fill="#fff" stroke="#22afd6" stroke-width="2">
      <circle cx="68" cy="68" r="68" stroke="none"/>
      <circle cx="68" cy="68" r="67" fill="none"/>
    </g>
    <g id="Grupo_115664" data-name="Grupo 115664" transform="translate(339.979 1954.25)">
      <g id="Grupo_115663" data-name="Grupo 115663" clip-path="url(#clip-path)">
        <path id="Trazado_171283" data-name="Trazado 171283" d="M6,35.923q0-1.458,0-2.917c1.2-.293,1.5-.648,1.5-1.871q.007-8.433,0-16.866c0-1.938.352-2.291,2.283-2.291q29.8,0,59.6,0c.312,0,.623.02.935.03a10.719,10.719,0,0,1,.18,1.37c.018,2.42.013,4.84,0,7.26,0,.324.118.7-.248.932a2.171,2.171,0,0,0-1.695-.609q-28.074.016-56.148.01c-1.409,0-1.908.505-1.908,1.922q0,28.072,0,56.143c0,1.416.507,1.937,1.9,1.937q28.121,0,56.241.01a2.112,2.112,0,0,0,1.6-.605c.34.2.258.538.258.838,0,3.486.015,6.973-.005,10.459a4.153,4.153,0,0,1-1.1,2.7,7.2,7.2,0,0,1-2.27,1.569c-.374.011-.748.031-1.122.031q-28.116,0-56.233,0c-1.92,0-2.275-.359-2.275-2.3q0-24.084,0-48.168c0-1.418-.249-1.754-1.5-2.058V40.5c1.205-.3,1.488-.651,1.5-1.871,0-.312.006-.624,0-.936-.024-1.126-.356-1.516-1.5-1.775M45,88.471a4.5,4.5,0,1,0-4.544,4.5A4.522,4.522,0,0,0,45,88.471m-7.5-70.5c1.433,0,2.866.009,4.3,0,1.129-.01,1.739-.553,1.729-1.5s-.612-1.479-1.761-1.483q-4.3-.017-8.6,0c-1.036,0-1.608.507-1.634,1.388a1.523,1.523,0,0,0,1.665,1.6c1.433.015,2.866,0,4.3,0m12-1.534A1.489,1.489,0,0,0,48,14.981a1.5,1.5,0,1,0,.078,2.989,1.5,1.5,0,0,0,1.426-1.535" transform="translate(-4.496 -8.976)" fill="#dbd8b2"/>
        <path id="Trazado_171284" data-name="Trazado 171284" d="M1.5,34.471c1.252.3,1.5.64,1.5,2.058q0,24.084,0,48.168c0,1.942.354,2.3,2.275,2.3Q33.4,87,61.513,87c.374,0,.749-.02,1.122-.031,1.342.011,2.684.028,4.026.031,2,.005,2.348-.345,2.348-2.322q0-39.348.021-78.695c0-2.966-.5-3.1-3.21-2.947-.311-.01-.623-.03-.935-.03q-29.8,0-59.6,0c-1.931,0-2.282.353-2.282,2.291q0,8.433,0,16.866c0,1.223-.3,1.578-1.5,1.871-1.2-.288-1.5-.642-1.5-1.866Q0,13.4.007,4.636a4.483,4.483,0,0,1,4.6-4.63q31.4-.013,62.805,0a4.481,4.481,0,0,1,4.592,4.642q.008,40.351,0,80.7a4.488,4.488,0,0,1-4.595,4.642q-31.4.014-62.8,0a4.489,4.489,0,0,1-4.6-4.636q-.012-24.51,0-49.021c0-1.224.295-1.578,1.5-1.865" transform="translate(0 0)"/>
        <path id="Trazado_171285" data-name="Trazado 171285" d="M311.31,54.9q0-15.374,0-30.748a6,6,0,0,1,11.982-.489c.018.374.011.75.011,1.125,0,19.561-.031,39.122.031,58.683a21.881,21.881,0,0,1-1.94,9.246,52.3,52.3,0,0,1-2.706,5.33c-.689,1.152-2.013,1.271-2.645.17-2.082-3.629-4.03-7.325-4.651-11.545a12.94,12.94,0,0,1-.083-1.87q-.007-14.952,0-29.9m4.547,36.185a17.911,17.911,0,0,0,1.494,3.178c1.638-3.473,3.019-6.778,3-10.626-.1-16.952-.038-33.906-.05-50.859,0-.922.416-2.228-.177-2.668-.624-.462-1.85-.112-2.813-.117a18.3,18.3,0,0,1-1.964-.045c-.864-.108-1.053.211-1.052,1.052q.039,26.469-.006,52.938a17.536,17.536,0,0,0,1.57,7.146m1.394-64.122v0c.81,0,1.621-.025,2.43.009.475.02.66-.106.632-.614-.043-.808.009-1.62-.018-2.429a2.989,2.989,0,0,0-5.978-.014c-.026.809.019,1.621-.016,2.43-.021.473.1.662.612.634.777-.043,1.557-.011,2.336-.011" transform="translate(-233.298 -13.463)"/>
        <path id="Trazado_171286" data-name="Trazado 171286" d="M1.506,107.535c1.146.259,1.477.648,1.5,1.774.007.312,0,.624,0,.936-.013,1.22-.3,1.571-1.5,1.871-1.373-.331-1.53-.619-1.5-2.754.016-1.185.337-1.575,1.5-1.828" transform="translate(-0.002 -80.588)"/>
        <path id="Trazado_171287" data-name="Trazado 171287" d="M83.711,107.247a2.113,2.113,0,0,1-1.6.605q-28.121-.015-56.242-.01c-1.391,0-1.9-.521-1.9-1.937q0-28.071,0-56.142c0-1.417.5-1.922,1.908-1.922q28.074,0,56.148-.01a2.169,2.169,0,0,1,1.694.608,3.309,3.309,0,0,1,.258,1.455q-.009,27.95,0,55.9a3.2,3.2,0,0,1-.266,1.453m-53.741-2.434c.312.011.623.03.935.03q24.514,0,49.028.022c.851,0,1.06-.208,1.058-1.058q-.041-24.512-.022-49.023c0-.312-.019-.623-.03-.935a18.5,18.5,0,0,1,.045-1.964c.106-.865-.213-1.058-1.056-1.057q-25.961.039-51.922,0c-.851,0-1.061.208-1.059,1.059q.041,25.068.028,50.137c0,.923-.415,2.228.18,2.67.624.463,1.85.115,2.814.122" transform="translate(-17.962 -35.845)"/>
        <path id="Trazado_171288" data-name="Trazado 171288" d="M253.071,80.345a3.2,3.2,0,0,0,.266-1.453q-.009-27.95,0-55.9a3.311,3.311,0,0,0-.258-1.455c.366-.234.247-.608.248-.932.009-2.42.014-4.84,0-7.26a10.715,10.715,0,0,0-.18-1.37c2.706-.157,3.214-.019,3.21,2.947q-.053,39.348-.021,78.7c0,1.978-.35,2.327-2.349,2.322-1.342,0-2.684-.02-4.026-.031a7.2,7.2,0,0,0,2.27-1.569,4.154,4.154,0,0,0,1.1-2.7c.021-3.486.009-6.973.005-10.459,0-.3.082-.637-.258-.838" transform="translate(-187.321 -8.943)" fill="#dbd8b2"/>
        <path id="Trazado_171289" data-name="Trazado 171289" d="M134.737,303.79a4.5,4.5,0,1,1-4.451-4.5,4.537,4.537,0,0,1,4.451,4.5m-3,.005a1.495,1.495,0,0,0-2.988-.056,1.495,1.495,0,1,0,2.988.056" transform="translate(-94.231 -224.295)"/>
        <path id="Trazado_171290" data-name="Trazado 171290" d="M113.888,26.929c-1.433,0-2.866.011-4.3,0a1.523,1.523,0,0,1-1.666-1.6c.026-.881.6-1.384,1.634-1.388q4.3-.014,8.6,0c1.149,0,1.751.532,1.761,1.483s-.6,1.493-1.729,1.5c-1.433.012-2.866,0-4.3,0" transform="translate(-80.879 -17.935)"/>
        <path id="Trazado_171291" data-name="Trazado 171291" d="M170.689,25.421a1.5,1.5,0,0,1-1.426,1.535,1.5,1.5,0,1,1-.078-2.989,1.489,1.489,0,0,1,1.5,1.454" transform="translate(-125.678 -17.961)"/>
        <path id="Trazado_171292" data-name="Trazado 171292" d="M330.912,65.605c.963,0,2.189-.346,2.813.116.593.44.177,1.746.177,2.668.012,16.953-.046,33.906.05,50.859.022,3.849-1.359,7.153-3,10.626a17.929,17.929,0,0,1-1.494-3.179c.1-.065.258-.109.289-.2a15.607,15.607,0,0,0,1.154-5.159q.021-27.867.008-55.734" transform="translate(-246.902 -49.073)" fill="#f3f0cd"/>
        <path id="Trazado_171293" data-name="Trazado 171293" d="M326.218,65.778q0,27.867-.008,55.734a15.607,15.607,0,0,1-1.154,5.159c-.032.089-.19.133-.289.2a17.529,17.529,0,0,1-1.57-7.146q.071-26.469.005-52.938c0-.84.188-1.159,1.052-1.052a18.229,18.229,0,0,0,1.964.045" transform="translate(-242.208 -49.246)" fill="#f3f0cd"/>
        <path id="Trazado_171294" data-name="Trazado 171294" d="M326.2,35.949c-.779,0-1.56-.032-2.336.011-.509.028-.632-.161-.612-.634.035-.809-.01-1.621.016-2.43a2.989,2.989,0,0,1,5.978.014c.026.809-.026,1.622.018,2.429.027.508-.158.634-.632.614-.809-.034-1.62-.009-2.43-.009Z" transform="translate(-242.249 -22.448)" fill="#22afd6"/>
        <path id="Trazado_171295" data-name="Trazado 171295" d="M98.89,71.837c.01.312.03.623.03.935q0,24.512.021,49.023c0,.851-.207,1.06-1.058,1.058q-24.514-.041-49.028-.021c-.312,0-.623-.02-.935-.03q0-24.507,0-49.015c0-1.494.458-1.952,1.952-1.952H98.89M79.859,112.42a6.783,6.783,0,0,0-5.618-3.192,1,1,0,0,1-.919-.624,6.848,6.848,0,0,0-3.732-3.375,6.5,6.5,0,0,0-7.454,2.246,19.264,19.264,0,0,0-3.695,9.179,1.374,1.374,0,0,0,1.207,1.7,1.417,1.417,0,0,0,1.749-1.264,25.633,25.633,0,0,1,1.344-4.761,8.825,8.825,0,0,1,2.348-3.559,3.366,3.366,0,0,1,4.863.218c.388.421.432.631-.173.9a5.219,5.219,0,0,0-3.117,3.514,3.755,3.755,0,0,0,2.316,4.705,3.892,3.892,0,0,0,5.037-2.193,6.537,6.537,0,0,0,.522-2.456c.033-1.3.127-1.352,1.338-.758a3.2,3.2,0,0,1,1.5,1.482,5.778,5.778,0,0,1,.537,2.445c.033.995.48,1.566,1.282,1.691a1.543,1.543,0,0,0,1.716-1.25,11.214,11.214,0,0,1,1.169-2.541,4.415,4.415,0,0,1,2.65-2.093,1.711,1.711,0,0,1,2.374,1.7,9.437,9.437,0,0,1-.144,2.329,1.465,1.465,0,0,0,1.447,1.86c1.53.042,3.062.038,4.592,0a1.486,1.486,0,0,0,.032-2.968,8.744,8.744,0,0,0-1.685,0c-.93.113-1.239-.157-1.257-1.169-.066-3.526-2.631-5.45-6.071-4.678a7.383,7.383,0,0,0-4.159,2.921M69.7,97.335H56.388c-1.812,0-3.624-.017-5.436.01A1.437,1.437,0,0,0,49.445,98.8a1.476,1.476,0,0,0,1.454,1.522c.248.021.5.009.749.009H87.732a6.127,6.127,0,0,0,.842-.019,1.5,1.5,0,0,0,1.108-2.266,1.644,1.644,0,0,0-1.616-.72q-9.185.014-18.37.005m4.525-12.006H92.3a4.955,4.955,0,0,0,.842-.021,1.484,1.484,0,0,0,.026-2.94,4.871,4.871,0,0,0-.934-.031q-18.083,0-36.167,0a3.85,3.85,0,0,0-.932.047,1.409,1.409,0,0,0-1.169,1.489A1.393,1.393,0,0,0,55.3,85.314a6.507,6.507,0,0,0,.842.014H74.221m-7.56,4.506H56.168c-1.749,0-3.5-.017-5.247.007a1.383,1.383,0,0,0-1.512,1.6c.081.953.691,1.395,1.952,1.395q14.569,0,29.138,0c.687,0,1.377.034,2.061-.015a1.473,1.473,0,0,0,1.26-2.108,1.59,1.59,0,0,0-1.7-.882q-7.729.015-15.459.005m5.159-12c3.215,0,6.431.008,9.646,0,1.186,0,1.829-.669,1.709-1.707-.1-.847-.678-1.285-1.748-1.286q-6.79-.007-13.579,0c-1.873,0-3.746-.012-5.619.005A1.408,1.408,0,0,0,60.654,76.3c-.014.976.573,1.523,1.707,1.528,3.153.011,6.306,0,9.458,0m18.844,15c.685,0,1.37.009,2.055,0,1.128-.019,1.726-.556,1.713-1.52-.012-.916-.606-1.46-1.667-1.473q-2.147-.026-4.3,0c-1.023.014-1.571.543-1.565,1.447a1.479,1.479,0,0,0,1.612,1.542c.715.021,1.432,0,2.148.005" transform="translate(-35.91 -53.835)" fill="#c6edff"/>
        <path id="Trazado_171296" data-name="Trazado 171296" d="M89.519,62.8H40.5c-1.494,0-1.952.458-1.952,1.952q0,24.507,0,49.015c-.963-.007-2.19.342-2.814-.122-.6-.442-.18-1.747-.181-2.67q-.017-25.068-.028-50.137c0-.851.208-1.06,1.059-1.059q25.961.04,51.922,0c.843,0,1.163.192,1.056,1.057a18.5,18.5,0,0,0-.045,1.964" transform="translate(-26.54 -44.802)" fill="#c6edff"/>
        <path id="Trazado_171297" data-name="Trazado 171297" d="M140.719,312.779a1.495,1.495,0,1,1-1.465-1.5,1.469,1.469,0,0,1,1.465,1.5" transform="translate(-103.216 -233.279)" fill="#cce2fc"/>
        <path id="Trazado_171298" data-name="Trazado 171298" d="M111.246,211.072a7.384,7.384,0,0,1,4.159-2.921c3.44-.771,6.006,1.152,6.071,4.678.019,1.012.328,1.282,1.257,1.169a8.743,8.743,0,0,1,1.685,0,1.486,1.486,0,0,1-.032,2.968c-1.53.039-3.062.043-4.592,0a1.465,1.465,0,0,1-1.447-1.86,9.439,9.439,0,0,0,.144-2.329,1.711,1.711,0,0,0-2.375-1.7,4.415,4.415,0,0,0-2.65,2.093,11.209,11.209,0,0,0-1.169,2.541,1.543,1.543,0,0,1-1.716,1.25c-.8-.126-1.249-.7-1.282-1.691a5.778,5.778,0,0,0-.537-2.445,3.2,3.2,0,0,0-1.5-1.482c-1.212-.594-1.306-.541-1.338.758a6.541,6.541,0,0,1-.522,2.456,3.893,3.893,0,0,1-5.037,2.193,3.756,3.756,0,0,1-2.316-4.705,5.219,5.219,0,0,1,3.117-3.514c.606-.265.562-.475.173-.9a3.366,3.366,0,0,0-4.862-.218,8.825,8.825,0,0,0-2.348,3.559,25.63,25.63,0,0,0-1.344,4.761A1.417,1.417,0,0,1,91.034,217a1.374,1.374,0,0,1-1.206-1.695,19.266,19.266,0,0,1,3.695-9.179,6.5,6.5,0,0,1,7.454-2.246,6.847,6.847,0,0,1,3.732,3.375,1,1,0,0,0,.919.624,6.784,6.784,0,0,1,5.618,3.192m-8.325.855c-.054-.182.129-.538-.115-.7-.3-.2-.579.1-.829.251a2.273,2.273,0,0,0-.992,1.183.879.879,0,0,0,.44,1.246.9.9,0,0,0,1.214-.546,3.029,3.029,0,0,0,.282-1.431" transform="translate(-67.297 -152.486)"/>
        <path id="Trazado_171299" data-name="Trazado 171299" d="M74.261,173.576q9.185,0,18.37-.005a1.645,1.645,0,0,1,1.617.72,1.5,1.5,0,0,1-1.109,2.266,6.122,6.122,0,0,1-.842.019H56.213c-.25,0-.5.012-.75-.009a1.476,1.476,0,0,1-1.454-1.523,1.436,1.436,0,0,1,1.507-1.458c1.811-.027,3.624-.009,5.436-.01H74.261" transform="translate(-40.475 -130.076)"/>
        <path id="Trazado_171300" data-name="Trazado 171300" d="M92.318,116.711H74.234a6.5,6.5,0,0,1-.842-.014,1.393,1.393,0,0,1-1.325-1.44,1.409,1.409,0,0,1,1.169-1.49,3.863,3.863,0,0,1,.932-.047q18.084,0,36.167,0a4.892,4.892,0,0,1,.934.031,1.484,1.484,0,0,1-.026,2.94,5,5,0,0,1-.841.021H92.318" transform="translate(-54.007 -85.217)"/>
        <path id="Trazado_171301" data-name="Trazado 171301" d="M71.1,143.647q7.73,0,15.459-.005a1.591,1.591,0,0,1,1.7.882A1.473,1.473,0,0,1,87,146.632c-.684.049-1.373.015-2.061.015q-14.569,0-29.138,0c-1.261,0-1.871-.442-1.952-1.4a1.382,1.382,0,0,1,1.512-1.6c1.749-.024,3.5-.007,5.247-.007H71.1" transform="translate(-40.347 -107.646)"/>
        <path id="Trazado_171302" data-name="Trazado 171302" d="M109.909,86.793c-3.153,0-6.306.007-9.458,0-1.134,0-1.721-.552-1.707-1.527a1.408,1.408,0,0,1,1.574-1.463c1.873-.018,3.746-.005,5.619-.005q6.79,0,13.579,0c1.07,0,1.65.439,1.748,1.287.121,1.038-.523,1.7-1.709,1.707-3.215.012-6.431,0-9.646,0" transform="translate(-73.999 -62.793)"/>
        <path id="Trazado_171303" data-name="Trazado 171303" d="M207.257,146.636c-.716,0-1.432.016-2.148,0a1.479,1.479,0,0,1-1.612-1.542c-.005-.9.543-1.433,1.565-1.447q2.147-.029,4.3,0c1.061.013,1.655.557,1.667,1.473.013.964-.586,1.5-1.713,1.52-.685.012-1.37,0-2.055,0" transform="translate(-152.503 -107.637)"/>
        <path id="Trazado_171304" data-name="Trazado 171304" d="M136.09,234.9a3.029,3.029,0,0,1-.282,1.431.9.9,0,0,1-1.214.546.879.879,0,0,1-.44-1.246,2.273,2.273,0,0,1,.992-1.183c.25-.154.527-.454.829-.251.244.164.061.52.115.7" transform="translate(-100.466 -175.459)" fill="#c6edff"/>
      </g>
    </g>
  </g>
</svg>
