<svg id="Grupo_111310" data-name="Grupo 111310" xmlns="http://www.w3.org/2000/svg" xmlns:xlink="http://www.w3.org/1999/xlink" width="54" height="46.739" viewBox="0 0 54 46.739">
  <defs>
    <clipPath id="clip-path">
      <rect id="Rectángulo_37245" data-name="Rectángulo 37245" width="54" height="46.739" fill="#22afd6"/>
    </clipPath>
  </defs>
  <g id="Grupo_111308" data-name="Grupo 111308" clip-path="url(#clip-path)">
    <path id="Trazado_105588" data-name="Trazado 105588" d="M54,2.224c-.2.1-.134.31-.17.464A7.814,7.814,0,0,1,46.1,8.894q-3.769.016-7.539-.007c-.384,0-.507.077-.5.484.029,1.3.033,2.6,0,3.9-.012.428.139.471.5.471a24.666,24.666,0,0,1,3.212.049,4.6,4.6,0,0,1,4.105,3.554c1.774,6.29,3.515,12.589,5.265,18.886.544,1.958,1.127,3.908,1.6,5.883a3.564,3.564,0,0,1-3.669,4.614q-21.59.016-43.179,0a3.608,3.608,0,0,1-3.639-4.821c.623-2.372,1.3-4.73,1.963-7.093.193-.689.536-.9,1.35-.865.721.406.861.727.654,1.507-.09.339-.188.676-.28,1.014-.557,2.029-1.134,4.053-1.664,6.089a1.477,1.477,0,0,0,1.377,2.055c.174.016.351.008.527.008h42.6c1.687,0,2.251-.73,1.838-2.378-.009-.034-.013-.069-.022-.1Q47.254,30.109,43.9,18.074a2.713,2.713,0,0,0-2.959-2.229q-13.446,0-26.891,0a2.742,2.742,0,0,0-2.989,2.263Q9.868,22.363,8.681,26.62c-.225.8-.575,1.03-1.383.943a1.072,1.072,0,0,1-.654-1.46c.81-2.94,1.609-5.883,2.452-8.813a4.765,4.765,0,0,1,4.63-3.548c.755-.022,1.512-.025,2.267,0,.34.012.4-.106.4-.417-.016-1.336-.022-2.672,0-4.007.007-.371-.128-.43-.455-.429-2.707.011-5.414.022-8.12,0A7.839,7.839,0,0,1,0,1.356C-.021.4.356.01,1.319.01Q27,.009,52.679,0A1.372,1.372,0,0,1,54,.748ZM27,2.119H2.9c-.123,0-.247.009-.369,0-.245-.021-.349.025-.263.316a6.083,6.083,0,0,0,.465,1.226A5.753,5.753,0,0,0,8.173,6.8Q27,6.784,45.82,6.793c.193,0,.387-.006.58-.014A5.721,5.721,0,0,0,51.64,2.74c.191-.62.191-.621-.438-.621H27m.214,11.615c1.317,0,2.634-.007,3.951.006.282,0,.394-.051.39-.366q-.026-2.054,0-4.109c0-.312-.1-.376-.393-.374-2.617.01-5.233.014-7.849,0-.374,0-.424.138-.421.458.015,1.317.023,2.634,0,3.951-.008.4.137.45.481.445,1.282-.019,2.564-.008,3.846-.008m8.751-2.388c0-.7-.006-1.405,0-2.108,0-.229-.034-.359-.311-.35-.561.018-1.124.016-1.686,0-.265-.007-.322.108-.321.346.008,1.387.012,2.775,0,4.162,0,.3.12.348.374.341.526-.014,1.055-.023,1.58,0,.317.015.375-.113.368-.394-.017-.667-.005-1.335-.006-2M20.79,11.317c0-.666-.021-1.332.008-2,.016-.361-.114-.45-.448-.433a12.872,12.872,0,0,1-1.418,0c-.343-.02-.456.086-.452.438.018,1.331.016,2.663,0,3.994,0,.309.066.442.4.424.507-.027,1.016-.022,1.523,0,.291.012.4-.067.389-.375-.022-.682-.007-1.366-.007-2.049" transform="translate(0.001 0)" fill="#22afd6"/>
    <path id="Trazado_105590" data-name="Trazado 105590" d="M51.751,283.26c.635.415.819.771.683,1.316s-.5.762-1.346.814c-.107-.085-.217-.168-.322-.256a1.013,1.013,0,0,1-.325-1.18.971.971,0,0,1,.945-.7c.122,0,.244,0,.365,0" transform="translate(-45.046 -253.31)" fill="#22afd6"/>
    <path id="Trazado_105594" data-name="Trazado 105594" d="M168.184,182.036a12.308,12.308,0,1,1-12.142-12.346,12.288,12.288,0,0,1,12.142,12.346M148,175.518a10.194,10.194,0,0,0-2.226,5.015c-.05.341.045.438.375.413a5.121,5.121,0,0,1,.895.015,1.03,1.03,0,0,1,.106,2.037,2.946,2.946,0,0,1-.89.042c-.488-.061-.544.15-.471.56a10.4,10.4,0,0,0,1.533,3.94c.589.9.588.9,1.33.176.038-.037.074-.075.113-.111a1.069,1.069,0,0,1,1.513-.049,1.05,1.05,0,0,1-.04,1.548c-.251.262-.54.489-.839.756A10.379,10.379,0,0,0,153.915,192c.918.189.916.2.918-.706,0-.088,0-.176,0-.264a1.065,1.065,0,0,1,1.04-1.15,1.076,1.076,0,0,1,1.063,1.139c.013.281.009.562,0,.843-.005.206.061.264.279.235a10.115,10.115,0,0,0,4.852-2c.183-.138.222-.229.036-.4a7.5,7.5,0,0,1-.668-.673,1.046,1.046,0,0,1,1.481-1.477,6.759,6.759,0,0,1,.674.666c.168.191.258.144.394-.035A10.3,10.3,0,0,0,166,183.325c.032-.225-.039-.275-.24-.277a7.711,7.711,0,0,1-1.155-.05.985.985,0,0,1-.822-1.061,1,1,0,0,1,.925-.976,6.386,6.386,0,0,1,.947-.016c.3.016.376-.057.329-.384a10.261,10.261,0,0,0-1.775-4.451c-.392-.561-.4-.558-.863-.092-.137.136-.267.28-.413.406a1.047,1.047,0,0,1-1.475-1.487c.21-.236.44-.454.668-.674.12-.115.169-.2,0-.326a10.074,10.074,0,0,0-4.89-2.044c-.236-.031-.3.04-.3.273a4.22,4.22,0,0,1-.052,1.154,1.047,1.047,0,0,1-1.053.784,1.036,1.036,0,0,1-.979-.931,4.336,4.336,0,0,1-.011-.842c.037-.377-.088-.488-.466-.427a10.36,10.36,0,0,0-4.979,2.227c.314.276.626.51.888.791a1.046,1.046,0,1,1-1.477,1.481c-.282-.261-.52-.57-.8-.884" transform="translate(-128.391 -151.749)" fill="#22afd6"/>
    <path id="Trazado_105596" data-name="Trazado 105596" d="M232.192,238.9a2.825,2.825,0,0,1,1.572-2.4.53.53,0,0,0,.328-.568,12.663,12.663,0,0,1,0-1.316,1.034,1.034,0,0,1,2.061-.092,8.011,8.011,0,0,1,.027,1.366.614.614,0,0,0,.38.65,3.022,3.022,0,0,1-.793,5.55,3.013,3.013,0,0,1-3.58-3.192m2.964,1.14a.867.867,0,0,0,.8-.923.879.879,0,0,0-.828-.855.853.853,0,0,0-.818.906.831.831,0,0,0,.841.873" transform="translate(-207.644 -208.917)" fill="#22afd6"/>
  </g>
</svg>
