<svg xmlns="http://www.w3.org/2000/svg" width="136" height="136" viewBox="0 0 136 136">
  <g id="Grupo_115739" data-name="Grupo 115739" transform="translate(-1150 -1931.25)">
    <g id="Elipse_4512" data-name="Elipse 4512" transform="translate(1150 1931.25)" fill="#fff" stroke="#22afd6" stroke-width="2">
      <circle cx="68" cy="68" r="68" stroke="none"/>
      <circle cx="68" cy="68" r="67" fill="none"/>
    </g>
    <g id="Grupo_115667" data-name="Grupo 115667" transform="translate(1161.785 1965.131)">
      <path id="Trazado_105828" data-name="Trazado 105828" d="M304.767,150.274c-1.3.211-1.937.816-1.964,1.874-.028,1.106.59,1.745,1.936,2,1.237-.318,1.855-.957,1.864-1.928s-.617-1.635-1.836-1.949" transform="translate(-277.092 -136.295)" fill="#070605"/>
      <path id="Trazado_105833" data-name="Trazado 105833" d="M294.708,156.409h12.764c2.193,0,2.576.378,2.576,2.545q0,7.631,0,15.262c0,1.883-.457,2.348-2.309,2.349-7.651,0-15.3.018-22.952-.021-.954,0-1.2.272-1.191,1.2q.07,6.387,0,12.775c-.012.984.326,1.238,1.233,1.162s1.932.239,2.678-.108c.792-.368.633-1.573.959-2.389a11.206,11.206,0,0,1,11.107-6.969,11.073,11.073,0,0,1,9.935,8.229c.249,1.027.649,1.352,1.647,1.236,1.077-.125,2.5.445,3.165-.205.724-.7.231-2.14.233-3.253.019-11.531-.005-23.062.04-34.593,0-1.109-.292-1.363-1.37-1.35-5.012.06-10.025.047-15.037.007a1.6,1.6,0,0,0-1.675.985c-.5,1-1.112,1.948-1.8,3.135" transform="translate(-280.301 -137.79)" fill="#38d4ff"/>
      <path id="Trazado_105834" data-name="Trazado 105834" d="M325.414,195.035c3.315,0,6.63-.024,9.944.018.8.01,1.014-.231,1.006-1.015q-.056-5.762,0-11.525c.006-.727-.178-.963-.94-.956-4.105.039-8.211.028-12.317.007a1.151,1.151,0,0,0-1.161.649q-3.465,6.008-6.991,11.982c-.43.728-.244.857.517.851,3.315-.026,6.63-.011,9.944-.011" transform="translate(-309.896 -159.596)" fill="#e2e2f3"/>
      <path id="Trazado_105835" data-name="Trazado 105835" d="M323.236,298.217a7.74,7.74,0,1,0-7.826-7.668,7.7,7.7,0,0,0,7.826,7.668m-.006-12.541a4.8,4.8,0,0,1,4.829,4.781,4.856,4.856,0,1,1-9.711.061,4.8,4.8,0,0,1,4.882-4.842" transform="translate(-304.702 -234.962)" fill="#636363"/>
      <path id="Trazado_105839" data-name="Trazado 105839" d="M331.808,294.253a4.8,4.8,0,0,0-4.882,4.842,4.856,4.856,0,1,0,9.711-.061,4.8,4.8,0,0,0-4.829-4.781m.011,3.3a1.5,1.5,0,0,1,1.452,1.552,1.49,1.49,0,1,1-2.979-.078,1.5,1.5,0,0,1,1.527-1.474" transform="translate(-313.28 -243.539)"/>
      <path id="Trazado_105841" data-name="Trazado 105841" d="M341.644,307.184a1.5,1.5,0,0,0-1.527,1.474,1.49,1.49,0,1,0,2.979.078,1.5,1.5,0,0,0-1.452-1.552" transform="translate(-323.105 -253.17)" fill="#e2e2f3"/>
      <path id="Trazado_105831" data-name="Trazado 105831" d="M70.53,95.489h-33.7c-2.144,0-2.568.426-2.568,2.573,0,2.563-.032,5.127.019,7.689.015.768-.237.916-.947.913-5.578-.028-11.157.009-16.736-.035a2.587,2.587,0,0,0-2.554,1.43Q7.229,119.824.325,131.538A2.446,2.446,0,0,0,0,132.826q.014,8.763.026,17.525c0,1.863.462,2.316,2.343,2.322,1.319,0,2.644.071,3.956-.024.893-.065,1.213.244,1.426,1.084a11.061,11.061,0,0,0,16.7,6.659,10.534,10.534,0,0,0,4.809-6.7c.188-.811.523-1.038,1.346-1.036q21.367.041,42.735,0c.84,0,1.214.158,1.434,1.078a11.081,11.081,0,0,0,21.453.172c.25-.968.6-1.309,1.636-1.263,2.257.1,4.522.041,6.783.027,1.557-.01,2.117-.557,2.118-2.121q.01-26.457,0-52.914c0-1.619-.549-2.142-2.2-2.143q-17.019-.007-34.037,0m-.035,3.3q15.891,0,31.782-.013c.8,0,1.184.073,1.181,1.066q-.057,21.2-.01,42.41c0,.77-.175,1.04-.991,1.024-2.6-.052-5.2-.046-7.8,0a2.712,2.712,0,0,1-1.927-.7,10.981,10.981,0,0,0-14.481.066,2.4,2.4,0,0,1-1.717.629q-18.888-.024-37.776.011c-.974,0-1.153-.293-1.151-1.2q.044-21.035,0-42.071c0-.984.216-1.249,1.229-1.245,10.556.042,21.113.026,31.669.026M14.407,114.107c.69-1.187,1.3-2.134,1.8-3.136a1.6,1.6,0,0,1,1.675-.984c5.012.04,10.025.054,15.037-.007,1.078-.013,1.374.24,1.37,1.349-.045,11.531-.021,23.062-.039,34.594,0,1.113.49,2.548-.233,3.253-.668.65-2.089.08-3.165.205-1,.116-1.4-.209-1.647-1.236a11.073,11.073,0,0,0-9.935-8.229,11.206,11.206,0,0,0-11.107,6.969c-.326.815-.167,2.021-.959,2.389-.746.347-1.779.034-2.678.108s-1.245-.179-1.233-1.162q.08-6.386,0-12.775c-.01-.931.237-1.208,1.191-1.2,7.65.039,15.3.023,22.952.021,1.852,0,2.308-.465,2.309-2.348q0-7.631,0-15.262c0-2.166-.384-2.544-2.576-2.545H14.407m1.111,16.82c-3.315,0-6.63-.015-9.944.011-.761.006-.947-.123-.517-.852q3.529-5.971,6.991-11.982a1.151,1.151,0,0,1,1.161-.649c4.106.021,8.212.032,12.317-.007.762-.007.946.229.94.956q-.048,5.762,0,11.525c.008.784-.21,1.025-1.007,1.015-3.314-.042-6.629-.018-9.944-.018m3.015,27.817a7.74,7.74,0,1,1-.122-15.479,7.74,7.74,0,1,1,.122,15.479M77.831,151c-.348-3.581,3.057-7.805,7.688-7.748a7.755,7.755,0,1,1-.02,15.51c-4.374.079-8-3.941-7.668-7.763m-21.437-4.437H73.118c2.119,0,2.1,0,1.574,2.064-.131.509-.318.742-.9.741q-17.685-.026-35.37,0c-.663,0-.876-.225-.8-.845a2.9,2.9,0,0,0,0-.789c-.145-.918.179-1.2,1.144-1.2,5.876.048,11.752.024,17.628.024m43.639,2.793H98.794c-2.234,0-2.209-.007-2.831-2.171-.16-.557-.014-.631.477-.628,2.1.015,4.2.02,6.3,0,.556-.006.673.22.7.734.09,2.068.109,2.067-1.943,2.067h-1.463" transform="translate(0 -95.488)"/>
      <path id="Trazado_105832" data-name="Trazado 105832" d="M45.884,108.341c-10.556,0-21.113.016-31.669-.026-1.013,0-1.231.261-1.229,1.245q.052,21.035,0,42.071c0,.908.177,1.2,1.151,1.2q18.888-.053,37.777-.011a2.4,2.4,0,0,0,1.717-.629,10.981,10.981,0,0,1,14.481-.066,2.712,2.712,0,0,0,1.927.7c2.6-.044,5.2-.049,7.8,0,.816.016.992-.254.991-1.024q-.032-21.2.01-42.41c0-.992-.383-1.067-1.181-1.066q-15.891.03-31.782.013" transform="translate(24.611 -105.042)" fill="#dbd8b2"/>
      <path id="Trazado_105836" data-name="Trazado 105836" d="M52.907,290.432c-.329,3.822,3.295,7.842,7.668,7.763a7.755,7.755,0,1,0,.02-15.51c-4.631-.058-8.036,4.166-7.688,7.748m7.741-4.795a4.755,4.755,0,0,1,4.78,4.808,4.845,4.845,0,0,1-4.752,4.883,5.033,5.033,0,0,1-4.952-4.869,4.844,4.844,0,0,1,4.924-4.822" transform="translate(24.923 -234.921)" fill="#636363"/>
      <path id="Trazado_105837" data-name="Trazado 105837" d="M143.363,295.591c-5.876,0-11.753.024-17.628-.024-.965-.008-1.29.277-1.144,1.2a2.9,2.9,0,0,1,0,.789c-.075.62.138.846.8.845q17.685-.028,35.37,0c.581,0,.768-.232.9-.741.531-2.068.545-2.064-1.574-2.064H143.363" transform="translate(-86.969 -244.516)" fill="#dbd8b2"/>
      <path id="Trazado_105838" data-name="Trazado 105838" d="M17.076,298.429h1.463c2.052,0,2.033,0,1.943-2.067-.023-.514-.14-.74-.7-.734-2.1.023-4.2.017-6.3,0-.491,0-.637.071-.477.628.622,2.164.6,2.171,2.831,2.171Z" transform="translate(82.957 -244.563)" fill="#dbd8b2"/>
      <path id="Trazado_105840" data-name="Trazado 105840" d="M69.276,294.259a4.844,4.844,0,0,0-4.924,4.822A5.034,5.034,0,0,0,69.3,303.95a4.845,4.845,0,0,0,4.752-4.883,4.755,4.755,0,0,0-4.78-4.808m-.1,6.329a1.576,1.576,0,0,1-1.459-1.574,1.539,1.539,0,0,1,1.566-1.453,1.5,1.5,0,0,1,1.443,1.562,1.522,1.522,0,0,1-1.55,1.465" transform="translate(16.296 -243.543)"/>
      <path id="Trazado_105842" data-name="Trazado 105842" d="M78.845,310.227a1.522,1.522,0,0,0,1.55-1.465,1.5,1.5,0,0,0-1.443-1.562,1.538,1.538,0,0,0-1.566,1.453,1.576,1.576,0,0,0,1.459,1.573" transform="translate(6.631 -253.181)" fill="#e2e2f3"/>
    </g>
  </g>
</svg>
