<svg xmlns="http://www.w3.org/2000/svg" xmlns:xlink="http://www.w3.org/1999/xlink" width="100" height="100" viewBox="0 0 100 100">
  <defs>
    <clipPath id="clip-path">
      <rect id="Rectángulo_37504" data-name="Rectángulo 37504" width="59.79" height="59.791" fill="none"/>
    </clipPath>
  </defs>
  <g id="Grupo_115736" data-name="Grupo 115736" transform="translate(-815.473 -762.777)">
    <path id="Trazado_171680" data-name="Trazado 171680" d="M50,0A50,50,0,1,1,0,50,50,50,0,0,1,50,0Z" transform="translate(815.473 762.777)" fill="#ebf9ff"/>
    <g id="Grupo_115655" data-name="Grupo 115655" transform="translate(839.764 780.695)">
      <g id="Grupo_115654" data-name="Grupo 115654" clip-path="url(#clip-path)">
        <path id="Trazado_171239" data-name="Trazado 171239" d="M0,4.555c.2-.091.155-.3.2-.453A5.554,5.554,0,0,1,5.543.01Q15.7-.015,25.861.008A4.578,4.578,0,0,1,29.167,1.5Q34.689,7,40.237,12.477c.678.671,1.352,1.346,2.035,2.011a4.506,4.506,0,0,1,1.408,3.4c-.014,2.432,0,4.864,0,7.353a4.69,4.69,0,0,1,1.591-.281,2.343,2.343,0,0,1,1.568.674q4.45,4.468,8.894,8.941a2.569,2.569,0,0,1,.516,2.872,3.281,3.281,0,0,1-3.97,2.1.431.431,0,0,0-.49.161c-.483.48-.969.956-1.491,1.47,1.472,1.164,2.917,2.307,4.361,3.45,1.144.906,2.295,1.8,3.426,2.722a4,4,0,0,1,.147,6.449l-.044.038c-2.25,1.977-4.346,1.873-6.25-.437-2-2.43-3.914-4.938-5.866-7.411-.072-.091-.147-.181-.292-.359-.5.531-.987,1.056-1.489,1.565-.144.146-.09.262-.042.415a2.912,2.912,0,0,1-.385,2.56,1.235,1.235,0,0,0-.188.708,10.161,10.161,0,0,1-.2,2.724,5.588,5.588,0,0,1-5.227,4.088c-.428.01-.857.013-1.284,0-.249-.008-.418.02-.383.336A1.633,1.633,0,0,1,35.5,59.791H23.94a1.175,1.175,0,0,1-.68-.891c.271-.755.424-.864,1.236-.865,3.269,0,6.538-.007,9.807.007.389,0,.547-.073.535-.5A1.471,1.471,0,0,0,33.2,55.921q-7.589-.006-15.177,0a1.5,1.5,0,0,0-1.656,1.612c-.014.367.073.514.476.5.972-.028,1.946-.008,2.918-.005.809,0,.965.113,1.233.867a1.177,1.177,0,0,1-.679.888H15.648a1.708,1.708,0,0,1-1.017-1.729c.058-.489-.174-.513-.56-.511q-4.171.02-8.343,0A5.6,5.6,0,0,1,.187,53.411c-.039-.133,0-.325-.187-.393V12.612A1.123,1.123,0,0,1,.813,12c.763.132.939.365.939,1.257q0,19.108,0,38.215c0,.233,0,.467.005.7a3.755,3.755,0,0,0,3.031,3.511,3.174,3.174,0,0,0,.98.124q4.408,0,8.817,0a.674.674,0,0,0,.672-.322A2.439,2.439,0,0,1,16.5,54.468c.428-.147.529-.366.529-.8A3.16,3.16,0,0,1,20.4,50.323q5.2-.006,10.393,0a3.192,3.192,0,0,1,3.414,3.432c0,.351.052.563.43.676a1.7,1.7,0,0,1,1.035.722,1.672,1.672,0,0,0,1.9.787c.251-.023.506,0,.759-.009a3.791,3.791,0,0,0,3.535-4.24,2.727,2.727,0,0,1-2.688-.7q-4.365-4.388-8.75-8.756a2.508,2.508,0,0,1-.678-1.136,3.337,3.337,0,0,1,3.988-3.9.574.574,0,0,0,.663-.145q3.664-3.685,7.346-7.351c.1-.1.3-.2.222-.374a5.271,5.271,0,0,1-.062-2.354c0-3.095-.046-6.189-.045-9.283,0-.471-.145-.568-.589-.566-3.5.018-7.007.014-10.51.009A4.093,4.093,0,0,1,26.4,12.74c0-3.464-.007-6.929.009-10.393,0-.4-.083-.525-.5-.526Q15.778,1.8,5.648,1.757a2.025,2.025,0,0,0-.86.123,3.719,3.719,0,0,0-3.03,3.565c-.023,1.031,0,2.062-.007,3.093,0,.763-.179.979-.935,1.16A1.384,1.384,0,0,1,0,9.109ZM46.241,32.79a.978.978,0,0,1-1.3-.263c-.467-.5-.97-.956-1.431-1.457-.235-.255-.373-.284-.639-.016Q39.318,34.64,35.734,38.2c-.2.2-.256.312-.022.544q3.522,3.493,7.017,7.013c.223.224.348.185.551-.018q3.562-3.577,7.143-7.134c.247-.245.212-.373-.015-.593-.74-.718-1.461-1.455-2.186-2.188-.564-.57-.6-.793-.228-1.482a1.007,1.007,0,0,1,1.445.207c.987,1.022,2,2.023,3,3.023.553.548,1.148.491,1.77-.146a1.16,1.16,0,0,0,.135-1.744q-4.255-4.291-8.52-8.573a1.137,1.137,0,0,0-1.781.071,1.19,1.19,0,0,0-.128,1.832c.751.762,1.513,1.514,2.264,2.277.552.56.56.91.056,1.506M28.28,3.044l-.124.076v.5q0,4.582,0,9.165a2.342,2.342,0,0,0,2.558,2.586q4.7.01,9.4,0c.132,0,.31.1.216.081L28.28,3.044M55.489,53.4A3.056,3.056,0,0,0,57.5,51.97a2.083,2.083,0,0,0-.339-3.1c-2.587-2.088-5.21-4.131-7.811-6.2-.238-.189-.383-.162-.581.048-.468.494-.954.971-1.443,1.444-.182.176-.222.306-.044.531,2.088,2.636,4.157,5.288,6.251,7.92a2.2,2.2,0,0,0,1.952.794M42.63,48.494a.932.932,0,0,0-.349-.709q-4.315-4.311-8.627-8.625a.907.907,0,0,0-.544-.308,1.688,1.688,0,0,0-1.541.965,1.069,1.069,0,0,0,.325,1.393q4.183,4.154,8.336,8.338a1.121,1.121,0,0,0,1.343.37,1.774,1.774,0,0,0,1.058-1.425M25.574,54.161c2.12,0,4.241-.015,6.36.012.459.006.555-.144.534-.563a1.466,1.466,0,0,0-1.55-1.53q-5.31-.01-10.621,0a1.444,1.444,0,0,0-1.526,1.483c-.034.5.139.613.617.607,2.062-.026,4.124-.011,6.186-.011" transform="translate(0 0)" fill="#030302"/>
        <path id="Trazado_171240" data-name="Trazado 171240" d="M21.831,11.381a2.023,2.023,0,0,1,.86-.123q10.13.036,20.26.064c.422,0,.506.13.5.526-.016,3.464-.01,6.929-.009,10.393a4.093,4.093,0,0,0,4.368,4.387c3.5.005,7.007.009,10.51-.009.444,0,.589.095.589.566,0,3.095.042,6.189.045,9.284a5.268,5.268,0,0,0,.062,2.353c.078.171-.118.27-.222.374q-3.674,3.675-7.346,7.351a.574.574,0,0,1-.663.145A3.337,3.337,0,0,0,46.8,50.6a2.508,2.508,0,0,0,.678,1.136q4.376,4.377,8.75,8.756a2.726,2.726,0,0,0,2.688.7,3.792,3.792,0,0,1-3.535,4.24c-.252.013-.508-.015-.759.009a1.672,1.672,0,0,1-1.9-.787,1.7,1.7,0,0,0-1.035-.722c-.378-.113-.431-.325-.43-.676a3.191,3.191,0,0,0-3.414-3.432q-5.2-.005-10.393,0a3.16,3.16,0,0,0-3.37,3.346c0,.432-.1.651-.529.8A2.438,2.438,0,0,0,32.3,64.99a.674.674,0,0,1-.672.322q-4.408-.012-8.817,0a3.176,3.176,0,0,1-.98-.124.5.5,0,0,0-.193-.346A5.08,5.08,0,0,1,20.2,61.032q-.017-22.691,0-45.382a5.27,5.27,0,0,1,1.042-3.493c.2-.247.539-.406.582-.776m14.13,29.346q4.875,0,9.75,0a3.919,3.919,0,0,0,.64-.028.859.859,0,0,0,.1-1.67,2.355,2.355,0,0,0-.634-.064q-9.9,0-19.792,0a2.3,2.3,0,0,0-.633.068.794.794,0,0,0-.61.88.8.8,0,0,0,.73.788,4.49,4.49,0,0,0,.641.024q4.9,0,9.808,0m-1.82,14.013q4.057,0,8.115,0a3.153,3.153,0,0,0,.639-.037.784.784,0,0,0,.664-.775.813.813,0,0,0-.544-.871,1.746,1.746,0,0,0-.691-.081q-8.144,0-16.289,0a2.4,2.4,0,0,0-.633.066.8.8,0,0,0-.621.873.806.806,0,0,0,.721.8,3.726,3.726,0,0,0,.582.026q4.028,0,8.057,0m-1-7.007q3.471,0,6.941,0a2.92,2.92,0,0,0,.638-.041.774.774,0,0,0,.636-.737.819.819,0,0,0-.509-.893,1.611,1.611,0,0,0-.688-.093q-6.97,0-13.941,0a2.179,2.179,0,0,0-.575.064.857.857,0,0,0,.092,1.671,3.68,3.68,0,0,0,.581.027q3.412,0,6.825,0m-.57-21.02q3.179,0,6.357,0a3.088,3.088,0,0,0,.581-.032.86.86,0,0,0,.1-1.656,2.427,2.427,0,0,0-.69-.073q-6.3-.006-12.6,0a1.866,1.866,0,0,0-.748.081.827.827,0,0,0-.553.87.8.8,0,0,0,.673.776,3.425,3.425,0,0,0,.639.036q3.12,0,6.241,0m-.528,7c2.062,0,4.124,0,6.186,0,.755,0,1.167-.439,1.021-1.065-.124-.533-.525-.684-1.013-.685-.992,0-1.984,0-2.976,0h-9.1c-.156,0-.312-.008-.467.005a.91.91,0,0,0-.915.874.883.883,0,0,0,.965.869c2.1.01,4.2,0,6.3,0m15.187,0c1.556,0,3.112,0,4.668,0a.97.97,0,0,0,.986-.479c.333-.639-.141-1.272-.982-1.274q-4.58-.013-9.161,0c-.726,0-1.12.339-1.1.909.015.544.391.839,1.1.841,1.5,0,3,0,4.493,0" transform="translate(-17.042 -9.501)" fill="#f3f0cd"/>
        <path id="Trazado_171241" data-name="Trazado 171241" d="M240.268,201.229c-.368.689-.336.912.228,1.482.725.733,1.446,1.47,2.186,2.188.227.22.262.349.015.593q-3.585,3.554-7.143,7.134c-.2.2-.328.243-.551.018q-3.5-3.518-7.017-7.013c-.235-.232-.176-.347.022-.544q3.578-3.561,7.136-7.141c.266-.269.4-.239.639.016.461.5.964.962,1.431,1.457a.978.978,0,0,0,1.3.264c.236.021.358.208.509.352q.624.6,1.245,1.195" transform="translate(-192.273 -166.892)" fill="#dbd8b2"/>
        <path id="Trazado_171242" data-name="Trazado 171242" d="M180.52,19.5l12.048,12.408c.095.015-.083-.081-.216-.081q-4.7.01-9.4,0a2.342,2.342,0,0,1-2.558-2.586q0-4.582,0-9.165v-.5l.124-.076" transform="translate(-152.24 -16.459)" fill="#fdfce8"/>
        <path id="Trazado_171243" data-name="Trazado 171243" d="M9.187,12.048c-.043.369-.379.528-.582.776a5.271,5.271,0,0,0-1.042,3.493q-.027,22.691,0,45.382A5.08,5.08,0,0,0,8.995,65.5a.5.5,0,0,1,.193.346,3.755,3.755,0,0,1-3.031-3.511c-.009-.233-.005-.467-.005-.7q0-19.108,0-38.216c0-.892-.175-1.125-.939-1.257q0-1.15,0-2.3c.756-.181.932-.4.935-1.16,0-1.031-.015-2.063.007-3.093a3.718,3.718,0,0,1,3.03-3.565" transform="translate(-4.399 -10.168)" fill="#f3f0cd"/>
        <path id="Trazado_171244" data-name="Trazado 171244" d="M310.543,283.412a2.2,2.2,0,0,1-1.952-.793c-2.094-2.632-4.163-5.283-6.251-7.92-.178-.225-.138-.355.044-.531.489-.473.975-.951,1.443-1.444.2-.21.344-.237.582-.048,2.6,2.07,5.224,4.113,7.811,6.2a2.083,2.083,0,0,1,.339,3.1,3.057,3.057,0,0,1-2.015,1.432" transform="translate(-255.054 -230.009)" fill="#c5845a"/>
        <path id="Trazado_171245" data-name="Trazado 171245" d="M283.464,178.746q-.622-.6-1.245-1.195c-.151-.144-.273-.331-.509-.351.5-.6.5-.946-.056-1.506-.751-.763-1.513-1.515-2.264-2.277a1.19,1.19,0,0,1,.128-1.832,1.137,1.137,0,0,1,1.781-.072q4.264,4.282,8.52,8.573a1.159,1.159,0,0,1-.135,1.744c-.622.637-1.216.695-1.77.146-1.009-1-2.018-2-3-3.023a1.007,1.007,0,0,0-1.445-.207" transform="translate(-235.468 -144.409)" fill="#c5845a"/>
        <path id="Trazado_171246" data-name="Trazado 171246" d="M111.772,361.259l-2.261,0c-.268-.754-.424-.865-1.233-.868-.973,0-1.946-.022-2.918.005-.4.012-.49-.136-.476-.5a1.5,1.5,0,0,1,1.656-1.612q7.589-.011,15.177,0a1.471,1.471,0,0,1,1.633,1.618c.012.431-.146.506-.535.5-3.269-.014-6.538-.009-9.807-.008-.812,0-.965.11-1.236.865" transform="translate(-88.512 -302.358)" fill="#c5845a"/>
        <path id="Trazado_171247" data-name="Trazado 171247" d="M212.558,258.538a1.776,1.776,0,0,1-1.058,1.425,1.121,1.121,0,0,1-1.343-.37q-4.149-4.188-8.336-8.338a1.069,1.069,0,0,1-.325-1.393,1.688,1.688,0,0,1,1.541-.965.906.906,0,0,1,.544.308q4.313,4.313,8.627,8.625a.934.934,0,0,1,.349.708" transform="translate(-169.928 -210.043)" fill="#c5845a"/>
        <path id="Trazado_171248" data-name="Trazado 171248" d="M127.052,335.735c-2.062,0-4.124-.015-6.186.011-.478.006-.651-.109-.616-.607a1.444,1.444,0,0,1,1.526-1.483q5.31-.014,10.621,0a1.466,1.466,0,0,1,1.55,1.531c.021.42-.075.569-.534.563-2.12-.027-4.24-.012-6.36-.012" transform="translate(-101.479 -281.574)" fill="#c5845a"/>
        <path id="Trazado_171249" data-name="Trazado 171249" d="M60.75,190.529q-4.9,0-9.808,0a4.494,4.494,0,0,1-.641-.024.805.805,0,0,1-.73-.788.794.794,0,0,1,.61-.88,2.306,2.306,0,0,1,.633-.068q9.9,0,19.792,0a2.354,2.354,0,0,1,.634.064.859.859,0,0,1-.1,1.67,3.922,3.922,0,0,1-.64.028q-4.875,0-9.75,0" transform="translate(-41.832 -159.303)" fill="#030302"/>
        <path id="Trazado_171250" data-name="Trazado 171250" d="M58.931,280.309q-4.028,0-8.057,0a3.758,3.758,0,0,1-.582-.026.806.806,0,0,1-.721-.8.8.8,0,0,1,.62-.873,2.4,2.4,0,0,1,.633-.065q8.144-.005,16.289,0a1.754,1.754,0,0,1,.691.081.813.813,0,0,1,.544.871.784.784,0,0,1-.664.775,3.156,3.156,0,0,1-.639.036q-4.057,0-8.115,0" transform="translate(-41.833 -235.069)" fill="#030302"/>
        <path id="Trazado_171251" data-name="Trazado 171251" d="M59.209,235.414q-3.412,0-6.825,0a3.7,3.7,0,0,1-.581-.027.857.857,0,0,1-.092-1.671,2.18,2.18,0,0,1,.575-.064q6.97,0,13.941,0a1.615,1.615,0,0,1,.688.093.819.819,0,0,1,.509.893.774.774,0,0,1-.636.737,2.938,2.938,0,0,1-.638.041q-3.471,0-6.941,0" transform="translate(-43.112 -197.181)" fill="#030302"/>
        <path id="Trazado_171252" data-name="Trazado 171252" d="M58.631,100.734q-3.12,0-6.241,0a3.424,3.424,0,0,1-.638-.036.8.8,0,0,1-.673-.776.827.827,0,0,1,.553-.87,1.866,1.866,0,0,1,.748-.081q6.3,0,12.6,0a2.432,2.432,0,0,1,.69.073.86.86,0,0,1-.1,1.656,3.1,3.1,0,0,1-.581.032q-3.179,0-6.357,0" transform="translate(-43.103 -83.521)" fill="#030302"/>
        <path id="Trazado_171253" data-name="Trazado 171253" d="M56.807,145.643c-2.1,0-4.2.005-6.3,0a.883.883,0,0,1-.965-.869.91.91,0,0,1,.915-.874c.155-.014.311-.005.467-.005h9.1c.992,0,1.984,0,2.976,0,.488,0,.889.152,1.013.686.145.626-.266,1.062-1.021,1.065-2.062.007-4.124,0-6.186,0" transform="translate(-41.807 -121.43)" fill="#030302"/>
        <path id="Trazado_171254" data-name="Trazado 171254" d="M163.164,145.643c-1.5,0-3,0-4.493,0-.71,0-1.085-.3-1.1-.841-.016-.57.379-.908,1.1-.909q4.581-.008,9.161,0c.841,0,1.314.636.982,1.274a.97.97,0,0,1-.986.479c-1.556-.008-3.112,0-4.668,0" transform="translate(-132.977 -121.43)" fill="#030302"/>
      </g>
    </g>
  </g>
</svg>
