<svg id="Grupo_111296" data-name="Grupo 111296" xmlns="http://www.w3.org/2000/svg" xmlns:xlink="http://www.w3.org/1999/xlink" width="100" height="81.219" viewBox="0 0 100 81.219">
  <defs>
    <clipPath id="clip-path">
      <rect id="Rectángulo_37240" data-name="Rectángulo 37240" width="100" height="81.219" fill="none"/>
    </clipPath>
  </defs>
  <g id="Grupo_111295" data-name="Grupo 111295" clip-path="url(#clip-path)">
    <path id="Trazado_105484" data-name="Trazado 105484" d="M0,38.825c2.363-3.769,6.342-5.109,10.156-6.635.859-.344,1.094-.647,1.09-1.518Q11.194,19.2,11.23,7.735a7.316,7.316,0,0,1,14.587-1.11c.048.55.06,1.1.06,1.657,0,8.556.023,17.113-.026,25.67-.005.976.351,1.066,1.114.947a11.126,11.126,0,0,0,3.865-1.262,13.392,13.392,0,0,1,12.345-.844c.617.256.726-.128.953-.448q4.878-6.878,9.752-13.759c1.662-2.343,3.707-2.578,5.833-.667q1.887,1.7,3.755,3.414c1.023.934,1.021.938,1.816-.145q3.028-4.127,6.056-8.254c1.8-2.444,4.238-2.473,6.114-.056q7.8,10.055,15.581,20.13a4.676,4.676,0,0,0,1.442,1.272q1.658.926,3.282,1.91a4.374,4.374,0,0,1,2.23,3.965c0,5.628-.008,11.257.01,16.886a1.628,1.628,0,0,1-1.385,1.815c-1.249-.272-1.554-.64-1.555-1.931,0-4.872.014-9.745-.007-14.617-.015-3.563.455-2.859-2.729-4.733-1.343-.791-1.345-.786-2.173.6-1.951,2.637-3.912,5.266-5.85,7.912Q78.867,56.233,71.455,66.4a3.668,3.668,0,0,1-2.963,1.785,3.576,3.576,0,0,1-3.1-1.7Q54.561,51.63,43.711,36.788a3.685,3.685,0,0,0-1.642-1.3,10.43,10.43,0,0,0-9.387.493A13.674,13.674,0,0,1,26.5,37.843c-.559.018-.624.271-.62.726.015,1.952.056,3.906-.013,5.856a3.212,3.212,0,0,0,1.206,2.784,12.554,12.554,0,0,1,3.347,13.9,12.7,12.7,0,0,1-23.731,0A12.6,12.6,0,0,1,10.25,47a2.606,2.606,0,0,0,.987-2.192c-.037-2.96-.013-5.922-.014-8.883,0-1.111-.016-1.147-1.045-.747a46.865,46.865,0,0,0-6.636,3.674,1.606,1.606,0,0,0-.616,1.553q.012,15.57-.01,31.139c0,.688.18.864.862.856,3.091-.038,6.182-.02,9.274-.015,1.272,0,1.565.231,1.931,1.457-.358,1.173-.735,1.469-1.943,1.472-2.9.007-5.791,0-8.687,0-1.421,0-1.421,0-1.421,1.425,0,1.5,0,1.5,1.487,1.5q45.287,0,90.575-.008c2.352,0,2.009.254,2.079-2.1.021-.72-.229-.84-.879-.83-2.407.036-4.815.009-7.222.009H20.942c-1.414,0-1.762-.244-2.138-1.473.375-1.263.656-1.459,2.125-1.459q35.331,0,70.663,0c.389,0,.779-.026,1.168-.04,1.167.014,2.337,0,3.5.055.634.033.824-.157.814-.8-.039-2.337-.02-4.674-.014-7.011,0-1.222.292-1.571,1.507-1.879,1.206.38,1.422.684,1.422,2.039q0,6.247,0,12.493c0,2.6-1.35,3.938-3.981,3.938H6.6c-.651,0-1.306-.051-1.951.009A4.158,4.158,0,0,1,0,78.662Zm48.222-1.053a1.569,1.569,0,0,0,.084.353q9.727,13.31,19.453,26.621c.459.629.812.627,1.261,0,1.155-1.612,2.336-3.206,3.506-4.808q8.691-11.894,17.394-23.777c.468-.637.418-.84-.34-1.061a10.1,10.1,0,0,0-8.037.715,14.014,14.014,0,0,1-14.55.018,9.584,9.584,0,0,0-9.368-.165c-2.962,1.529-5.966,2.536-9.4,2.1M22.934,26.367q0-9.126,0-18.252a10.713,10.713,0,0,0-.082-1.557,4.362,4.362,0,0,0-5.009-3.548c-2.35.441-3.675,2.141-3.676,4.771q-.008,18.448.015,36.9a5.517,5.517,0,0,1-2.064,4.6,9.1,9.1,0,0,0-3.3,6.719,9.752,9.752,0,0,0,18.28,5.29,9.632,9.632,0,0,0-2.154-12.045,5.5,5.5,0,0,1-2.02-4.519c.045-6.116.017-12.233.017-18.35m65.394,5.457c-.136-.238-.172-.325-.228-.4q-6.508-8.41-13.01-16.825c-.554-.72-.9-.618-1.383.057-2.055,2.846-4.141,5.671-6.224,8.5-1.633,2.217-3.714,2.422-5.724.581q-1.944-1.78-3.9-3.547c-.886-.8-.959-.8-1.623.138q-4.68,6.6-9.353,13.213c-.161.228-.414.416-.416.737a10.014,10.014,0,0,0,8.558-.609,13.765,13.765,0,0,1,14.194-.022,9.9,9.9,0,0,0,9.809.127,14.927,14.927,0,0,1,9.3-1.951" transform="translate(0 0)" fill="#030404"/>
    <path id="Trazado_105485" data-name="Trazado 105485" d="M359.5,167.591c-1.215.307-1.5.657-1.507,1.879-.006,2.337-.025,4.675.014,7.011.011.646-.179.835-.814.8-1.165-.06-2.334-.041-3.5-.055q0-15,.013-29.994a10.2,10.2,0,0,0-.62-4.181c.828-1.382.83-1.386,2.173-.6,3.184,1.874,2.714,1.17,2.729,4.733.021,4.872,0,9.744.007,14.617,0,1.29.306,1.658,1.555,1.931q-.024,1.927-.047,3.854" transform="translate(-260.927 -104.883)" fill="#38d4ff"/>
    <path id="Trazado_105486" data-name="Trazado 105486" d="M100.405,136.145a10.2,10.2,0,0,1,.62,4.181q-.028,15-.013,29.994c-.389.014-.778.04-1.168.04q-35.331,0-70.663,0c-1.469,0-1.75.2-2.125,1.458H23.235c-.366-1.226-.66-1.455-1.931-1.457-3.091,0-6.183-.023-9.274.015-.682.008-.864-.168-.862-.856q.034-15.569.01-31.139a1.607,1.607,0,0,1,.616-1.553,46.862,46.862,0,0,1,6.636-3.674c1.029-.4,1.045-.364,1.045.747,0,2.961-.023,5.922.014,8.882a2.607,2.607,0,0,1-.987,2.192,12.6,12.6,0,0,0-3.564,14.1,12.7,12.7,0,0,0,23.731,0,12.554,12.554,0,0,0-3.347-13.9,3.212,3.212,0,0,1-1.206-2.784c.068-1.95.027-3.9.013-5.856,0-.455.062-.708.62-.726a13.676,13.676,0,0,0,6.186-1.865,10.431,10.431,0,0,1,9.387-.493,3.686,3.686,0,0,1,1.642,1.3q10.83,14.857,21.682,29.7a3.575,3.575,0,0,0,3.1,1.7,3.666,3.666,0,0,0,2.963-1.785q7.41-10.168,14.846-20.318c1.938-2.646,3.9-5.275,5.85-7.912m-58,3.371a1.925,1.925,0,0,0-1.923,1.909,1.948,1.948,0,1,0,3.9.046,1.925,1.925,0,0,0-1.974-1.954m12.8,10.377a1.935,1.935,0,1,0-3.87-.061,1.935,1.935,0,1,0,3.87.061m42.406.177a1.923,1.923,0,0,0-1.944,1.882,1.936,1.936,0,1,0,3.87.116,1.925,1.925,0,0,0-1.925-2m-53.12,8.592a1.923,1.923,0,0,0-1.944,1.882,1.936,1.936,0,1,0,3.87.116,1.926,1.926,0,0,0-1.925-2m16.186,5.85a1.959,1.959,0,0,0,1.948-1.9,1.936,1.936,0,1,0-3.869-.124,1.961,1.961,0,0,0,1.921,2.019m33-1.916a1.935,1.935,0,1,0-3.87-.082,1.935,1.935,0,1,0,3.87.082" transform="translate(-8.253 -97.975)" fill="#38d4ff"/>
    <path id="Trazado_105487" data-name="Trazado 105487" d="M184.763,135.534c3.438.432,6.442-.575,9.4-2.1a9.585,9.585,0,0,1,9.368.165,14.014,14.014,0,0,0,14.55-.018,10.105,10.105,0,0,1,8.037-.715c.758.221.808.424.34,1.061q-8.721,11.871-17.394,23.778c-1.17,1.6-2.351,3.2-3.506,4.808-.449.627-.8.629-1.261,0q-9.718-13.317-19.453-26.621a1.558,1.558,0,0,1-.084-.353" transform="translate(-136.541 -97.761)" fill="#22afd6"/>
    <path id="Trazado_105488" data-name="Trazado 105488" d="M47.839,34.7c0,6.117.028,12.234-.017,18.35a5.5,5.5,0,0,0,2.02,4.519A9.632,9.632,0,0,1,52,69.61a9.753,9.753,0,0,1-18.28-5.29,9.1,9.1,0,0,1,3.3-6.719,5.518,5.518,0,0,0,2.064-4.6q-.052-18.448-.015-36.9c0-2.63,1.326-4.331,3.676-4.772a4.362,4.362,0,0,1,5.009,3.548,10.753,10.753,0,0,1,.082,1.557q.008,9.126,0,18.252m-2.9,2.01q0-10.105,0-20.211a5.579,5.579,0,0,0-.08-1.164,1.43,1.43,0,0,0-2.79.042,7.221,7.221,0,0,0-.068,1.263q0,20.26.011,40.519c0,.725-.112,1.1-.917,1.371a6.739,6.739,0,0,0-4.382,7.426,6.838,6.838,0,0,0,13.521-.038A6.773,6.773,0,0,0,45.8,58.507a1.107,1.107,0,0,1-.883-1.3c.028-6.835.017-13.669.017-20.5" transform="translate(-24.905 -8.329)" fill="#e1fafd"/>
    <path id="Trazado_105489" data-name="Trazado 105489" d="M219.9,71.762a14.927,14.927,0,0,0-9.3,1.951,9.9,9.9,0,0,1-9.809-.127,13.765,13.765,0,0,0-14.194.022,10.014,10.014,0,0,1-8.558.609c0-.321.256-.509.416-.737q4.669-6.612,9.353-13.213c.664-.937.736-.942,1.623-.138q1.952,1.771,3.9,3.547c2.01,1.841,4.091,1.636,5.724-.581,2.082-2.827,4.168-5.651,6.224-8.5.488-.675.829-.777,1.383-.057q6.485,8.427,13.01,16.825c.056.072.092.159.228.4" transform="translate(-131.573 -39.938)" fill="#c6edff"/>
    <path id="Trazado_105490" data-name="Trazado 105490" d="M23.28,282.939H27.1c.375,1.229.724,1.473,2.138,1.473H97.269c2.407,0,4.815.027,7.222-.009.649-.01.9.11.879.831-.07,2.349.273,2.095-2.079,2.1q-45.287.007-90.575.008c-1.486,0-1.486,0-1.487-1.5,0-1.425,0-1.425,1.421-1.425,2.9,0,5.791,0,8.687,0,1.208,0,1.585-.3,1.943-1.472" transform="translate(-8.298 -209.093)" fill="#f3f0cd"/>
    <path id="Trazado_105491" data-name="Trazado 105491" d="M125.4,159.163a1.925,1.925,0,0,1,1.974,1.954,1.948,1.948,0,1,1-3.9-.046,1.926,1.926,0,0,1,1.922-1.909" transform="translate(-91.252 -117.622)" fill="#030404"/>
    <path id="Trazado_105492" data-name="Trazado 105492" d="M168.929,193.348a1.935,1.935,0,1,1-3.87-.061,1.935,1.935,0,1,1,3.87.061" transform="translate(-121.98 -141.43)" fill="#030404"/>
    <path id="Trazado_105493" data-name="Trazado 105493" d="M336.858,199.6a1.925,1.925,0,0,1,1.925,2,1.936,1.936,0,1,1-3.87-.116,1.923,1.923,0,0,1,1.944-1.882" transform="translate(-247.502 -147.508)" fill="#030404"/>
    <path id="Trazado_105494" data-name="Trazado 105494" d="M133.33,232.526a1.925,1.925,0,0,1,1.925,2,1.936,1.936,0,1,1-3.87-.116,1.923,1.923,0,0,1,1.944-1.882" transform="translate(-97.094 -171.838)" fill="#030404"/>
    <path id="Trazado_105495" data-name="Trazado 105495" d="M195.415,243.905a1.961,1.961,0,0,1-1.921-2.019,1.935,1.935,0,1,1,3.869.124,1.958,1.958,0,0,1-1.948,1.9" transform="translate(-142.992 -177.367)" fill="#030404"/>
    <path id="Trazado_105496" data-name="Trazado 105496" d="M316.336,241.993a1.935,1.935,0,1,1-3.87-.082,1.935,1.935,0,1,1,3.87.082" transform="translate(-230.914 -177.371)" fill="#030404"/>
    <path id="Trazado_105497" data-name="Trazado 105497" d="M53.163,45.1c0,6.835.011,13.669-.017,20.5a1.107,1.107,0,0,0,.883,1.3,6.773,6.773,0,0,1,4.425,7.408,6.838,6.838,0,0,1-13.521.038,6.739,6.739,0,0,1,4.382-7.426c.805-.275.918-.646.917-1.371q-.027-20.26-.01-40.519a7.222,7.222,0,0,1,.068-1.263,1.43,1.43,0,0,1,2.79-.042,5.579,5.579,0,0,1,.08,1.164q.007,10.105,0,20.211M51.747,69.424a3.888,3.888,0,0,0-3.95,3.837,3.889,3.889,0,0,0,7.776.124,3.89,3.89,0,0,0-3.826-3.961" transform="translate(-33.133 -16.726)" fill="#030404"/>
    <path id="Trazado_105498" data-name="Trazado 105498" d="M60.135,201.913a3.89,3.89,0,0,1,3.826,3.961,3.889,3.889,0,0,1-7.776-.124,3.888,3.888,0,0,1,3.95-3.837" transform="translate(-41.521 -149.215)" fill="#2941a0"/>
  </g>
</svg>
