<svg id="Grupo_111319" data-name="Grupo 111319" xmlns="http://www.w3.org/2000/svg" xmlns:xlink="http://www.w3.org/1999/xlink" width="80" height="80.015" viewBox="0 0 80 80.015">
  <defs>
    <clipPath id="clip-path">
      <rect id="Rectángulo_37247" data-name="Rectángulo 37247" width="80" height="80.015" fill="none"/>
    </clipPath>
  </defs>
  <g id="Grupo_111318" data-name="Grupo 111318" clip-path="url(#clip-path)">
    <path id="Trazado_105610" data-name="Trazado 105610" d="M63.285,80.015H53.753c-.026-.042-.043-.11-.079-.121-2.242-.73-3.059-2.366-3.026-4.612.038-2.653-.005-5.307.021-7.961.005-.514-.139-.645-.645-.64-2.6.025-5.2.042-7.8-.008-.733-.014-1,.163-1.108.919a14.454,14.454,0,0,1-10.987,12c-.612.151-1.228.283-1.843.424H24.689a12.491,12.491,0,0,0-2.126-.577c-5.888-1.961-9.376-5.978-10.384-12.114-.076-.462-.2-.666-.723-.646-1.142.045-2.288.028-3.431.011A6.736,6.736,0,0,1,1.072,60.4C.687,57.464.326,54.527.158,51.567.151,51.443.172,51.3,0,51.262V42.2c.168-.045.148-.185.155-.31.154-3.069.534-6.114.942-9.157a6.632,6.632,0,0,1,4.855-5.775c.637-.155.743-.415.738-.993q-.039-4.881-.007-9.763a2.667,2.667,0,0,1,2.808-2.868c.234-.009.469,0,.7,0,.6-.014,1.3.162,1.756-.1s.244-1.051.38-1.6C13.813,5.648,17.508,1.738,23.5.406c6.035-1.342,11.051.682,14.915,5.518A21.51,21.51,0,0,1,40.02,8.546c.145-.284.233-.468.331-.646A14.321,14.321,0,0,1,52.332.057,14.6,14.6,0,0,1,67.614,11.323c.154.65-.045,1.584.453,1.892.514.317,1.358.108,2.059.112,2.21.011,3.2.988,3.2,3.187q0,4.8,0,9.607c0,.385,0,.653.5.784a6.256,6.256,0,0,1,4.94,5.222,81.7,81.7,0,0,1,1.187,11.95A92.689,92.689,0,0,1,78.881,60.8a6.626,6.626,0,0,1-6.15,5.834c-1.8.094-3.591.046-5.386.038-.56,0-.681.16-.675.7.028,2.733.013,5.468.013,8.2a4.177,4.177,0,0,1-3.4,4.442m-7.03-53.77a1.3,1.3,0,0,0,.829-.156,11.646,11.646,0,0,0,8.029-9.168A11.555,11.555,0,0,0,60.954,5.4a9.251,9.251,0,0,0-4.543-2.256A7.85,7.85,0,0,0,54.12,2.7,11.989,11.989,0,0,0,45.774,23.97a11.426,11.426,0,0,0,10.481,2.275M39.989,29.357q-15.939,0-31.877,0a4.033,4.033,0,0,0-4.347,3.6c-.187,1.366-.354,2.734-.519,4.1A86.25,86.25,0,0,0,3.779,60.49a3.88,3.88,0,0,0,3.653,3.464c1.294.107,2.6.016,3.9.086.637.034.785-.231.852-.788A14.623,14.623,0,0,1,31.019,51.346,14.242,14.242,0,0,1,41.135,63.2c.1.617.269.856.956.842,2.473-.052,4.948-.021,7.422-.021,1.094,0,1.094,0,1.144-1.089s.668-1.691,1.6-1.529c.7.122,1.059.629,1.062,1.579.008,2.761.015,5.522-.007,8.282,0,.537.072.782.707.775,3.1-.035,6.2-.028,9.3,0,.539,0,.715-.14.709-.694-.027-2.474-.013-4.948-.011-7.423,0-.442-.011-.887.026-1.327a1.206,1.206,0,0,1,1.2-1.206,1.223,1.223,0,0,1,1.377,1.088,4.254,4.254,0,0,1,.063,1.008c-.019.4.114.557.531.546,1.769-.048,3.542.083,5.308-.095a3.923,3.923,0,0,0,3.69-3.514q.542-3.863.854-7.752A87.616,87.616,0,0,0,76.2,32.9a3.91,3.91,0,0,0-3.171-3.431,10.375,10.375,0,0,0-1.945-.111q-15.548-.009-31.1,0M38.57,65.316a11.944,11.944,0,1,0-11.9,12.021,11.885,11.885,0,0,0,11.9-12.021m.038-50.627a11.963,11.963,0,1,0-11.948,12,11.955,11.955,0,0,0,11.948-12m-20.6,11.967a2.126,2.126,0,0,0-.173-.265c-.1-.088-.2-.171-.3-.252a14.681,14.681,0,0,1-5.228-8.359c-.134-.57.095-1.388-.424-1.659-.495-.258-1.221-.045-1.84-.1-.577-.052-.68.194-.675.713.024,2.524.007,5.048.013,7.571,0,.751-.253,1.757.128,2.187.442.5,1.47.148,2.242.156,2.047.023,4.095.008,6.255.008m43.9,0c2.775,0,5.377-.016,7.979.013.567.006.758-.119.749-.726-.036-2.655-.015-5.31-.015-7.966,0-1.98,0-1.96-2-1.961-.533,0-.716.175-.783.689a14.1,14.1,0,0,1-4.219,8.407c-.512.5-1.067.963-1.713,1.543M58.636,74.718V74.69c-1.562,0-3.123-.006-4.685.006-.225,0-.518-.137-.628.259a1.744,1.744,0,0,0,1.814,2.4c2.29,0,4.58-.017,6.87-.023,1.564,0,1.983-.451,1.991-1.99,0-.541-.194-.639-.678-.631-1.561.027-3.123.01-4.684.01M40,20.8a15.4,15.4,0,0,1-4.817,5.825h9.648A15.4,15.4,0,0,1,40,20.8" transform="translate(0 0)" fill="#020203"/>
    <path id="Trazado_105611" data-name="Trazado 105611" d="M51.008,149.933q15.548,0,31.1,0a10.373,10.373,0,0,1,1.944.111,3.91,3.91,0,0,1,3.171,3.431,87.629,87.629,0,0,1,.862,19.767q-.312,3.892-.854,7.752a3.923,3.923,0,0,1-3.69,3.514c-1.766.177-3.539.046-5.308.095-.417.011-.55-.146-.531-.546a4.243,4.243,0,0,0-.063-1.008,1.223,1.223,0,0,0-1.377-1.088,1.206,1.206,0,0,0-1.2,1.206c-.037.44-.026.884-.026,1.327,0,2.474-.016,4.948.011,7.423.006.554-.17.7-.708.694-3.1-.023-6.2-.031-9.3,0-.635.007-.712-.237-.707-.775.022-2.76.015-5.521.007-8.282,0-.95-.36-1.458-1.062-1.579-.935-.162-1.552.427-1.6,1.529s-.05,1.089-1.144,1.089c-2.474,0-4.949-.032-7.422.02-.687.014-.851-.225-.956-.842a14.243,14.243,0,0,0-10.116-11.857A14.623,14.623,0,0,0,23.2,183.828c-.067.557-.215.823-.852.788-1.3-.07-2.607.021-3.9-.086a3.88,3.88,0,0,1-3.653-3.464,86.25,86.25,0,0,1-.534-23.427c.165-1.369.332-2.737.52-4.1a4.033,4.033,0,0,1,4.347-3.6q15.938-.007,31.877,0m4.707,6.656q10.579,0,21.158,0a6.821,6.821,0,0,0,1.011-.052,1.294,1.294,0,0,0,.062-2.549,3.684,3.684,0,0,0-.772-.077q-21.47-.005-42.94,0a3.469,3.469,0,0,0-.924.107,1.3,1.3,0,0,0,.082,2.5,5.23,5.23,0,0,0,1.087.071q10.618.006,21.236,0m-29.393-.014v.012h1.789c.052,0,.1,0,.155-.008.865-.075,1.361-.532,1.386-1.277a1.257,1.257,0,0,0-1.287-1.363c-1.345-.059-2.7-.06-4.042,0a1.268,1.268,0,0,0-1.277,1.379,1.284,1.284,0,0,0,1.332,1.248c.646.041,1.3.008,1.944.008" transform="translate(-11.019 -120.576)" fill="#22afd6"/>
    <path id="Trazado_105612" data-name="Trazado 105612" d="M98.87,284.537a11.944,11.944,0,1,1-11.889-11.944A11.971,11.971,0,0,1,98.87,284.537m-5.262-.014a6.652,6.652,0,1,0-6.67,6.708,6.679,6.679,0,0,0,6.67-6.708" transform="translate(-60.301 -219.221)" fill="#5f7c8a"/>
    <path id="Trazado_105613" data-name="Trazado 105613" d="M226.115,37.239a11.425,11.425,0,0,1-10.481-2.275A11.989,11.989,0,0,1,223.981,13.7a7.851,7.851,0,0,1,2.291.442c.013.289.263.361.451.488a12.579,12.579,0,0,1,3.8,3.958,10.96,10.96,0,0,1,1.823,5.222c-.543-.747-1.117-.989-1.758-.742s-.892.827-.789,1.745c.026.231.052.463.059.695a1.355,1.355,0,0,0,.9,1.4,1.3,1.3,0,0,0,1.6-.6c.438.449.1.933.026,1.381a12.809,12.809,0,0,1-4.378,7.991c-.621.534-1.262,1.044-1.895,1.564m-3-7.588a3.954,3.954,0,0,0,3.882-5.105.892.892,0,0,1,.283-1.075c.681-.644,1.336-1.315,1.993-1.984.729-.743.8-1.538.2-2.119s-1.325-.507-2.057.208c-.689.673-1.378,1.347-2.039,2.048a.841.841,0,0,1-1.007.27,3.956,3.956,0,0,0-4.8,5.386,3.8,3.8,0,0,0,3.548,2.371M223.18,16.3c-.475.052-.94.1-1.4.155a9.324,9.324,0,0,0-7.892,9.074,1.294,1.294,0,0,0,1.143,1.424,1.279,1.279,0,0,0,1.471-1.162c.045-.228.042-.465.074-.7a6.509,6.509,0,0,1,4-5.512,6.607,6.607,0,0,1,3.651-.5,1.317,1.317,0,0,0,1.585-1.134,1.3,1.3,0,0,0-1.238-1.49c-.461-.069-.928-.105-1.388-.156" transform="translate(-169.86 -10.994)" fill="#f3f0cd"/>
    <path id="Trazado_105614" data-name="Trazado 105614" d="M98.909,25.657A11.963,11.963,0,1,1,86.989,13.639,11.984,11.984,0,0,1,98.909,25.657M87.8,31.214c0-.008-.137-.356.2-.357.479,0,.909-.61,1.434-.073a7.21,7.21,0,0,0,2.527,1.659,1.324,1.324,0,1,0,1.151-2.38,9.554,9.554,0,0,1-1.21-.7c-.227-.178-.79-.294-.545-.692.274-.444.274-1.194,1.151-1.147a6.319,6.319,0,0,0,3.014-.688,1.322,1.322,0,0,0,.7-1.641,1.337,1.337,0,0,0-1.652-.805c-.5.133-1,.312-1.5.4-.287.049-.77.332-.857-.143-.09-.495-.668-.991-.039-1.565a6.457,6.457,0,0,0,1.607-2.464,1.306,1.306,0,0,0-.639-1.836,1.291,1.291,0,0,0-1.749.7,8.558,8.558,0,0,1-.65,1.151c-.2.256-.349.827-.762.6-.459-.248-1.164-.3-1.14-1.168a6.538,6.538,0,0,0-.637-2.872,1.313,1.313,0,0,0-2.466.9,8.76,8.76,0,0,1,.425,1.817c.007.151.078.3-.058.438a1.826,1.826,0,0,1-1.711.046,7.791,7.791,0,0,0-2.558-1.615,1.3,1.3,0,0,0-1.71.652,1.28,1.28,0,0,0,.591,1.725,14.616,14.616,0,0,1,1.342.789c.223.169.777.295.488.718s-.263,1.164-1.1,1.117a6.426,6.426,0,0,0-2.879.6,1.319,1.319,0,1,0,.874,2.489,11.487,11.487,0,0,1,1.349-.377c.311-.041.8-.306.943.178s.594,1-.009,1.565A6.55,6.55,0,0,0,80.1,30.785a1.292,1.292,0,0,0,.611,1.66,1.3,1.3,0,0,0,1.749-.529,13.857,13.857,0,0,1,.739-1.281c.19-.248.316-.826.756-.579.46.258,1.2.292,1.15,1.158a6.241,6.241,0,0,0,.555,2.733,1.328,1.328,0,1,0,2.5-.86,5.39,5.39,0,0,1-.368-1.873" transform="translate(-60.302 -10.969)" fill="#2941a0"/>
    <path id="Trazado_105615" data-name="Trazado 105615" d="M293.546,25.731a10.959,10.959,0,0,0-1.823-5.222,12.576,12.576,0,0,0-3.8-3.958c-.188-.126-.438-.2-.451-.488a9.25,9.25,0,0,1,4.543,2.256,11.555,11.555,0,0,1,4.159,11.52,11.645,11.645,0,0,1-8.03,9.168,1.3,1.3,0,0,1-.829.156c.632-.521,1.274-1.03,1.895-1.564a12.811,12.811,0,0,0,4.378-7.991c.07-.448.412-.932-.027-1.381.314-.835-.059-1.664-.019-2.5" transform="translate(-231.064 -12.919)" fill="#f3f0cd"/>
    <path id="Trazado_105616" data-name="Trazado 105616" d="M56.217,92.332c-2.16,0-4.208.015-6.255-.008-.772-.009-1.8.342-2.242-.156-.381-.43-.126-1.436-.128-2.188-.007-2.524.011-5.048-.013-7.571,0-.519.1-.765.675-.713.619.056,1.346-.158,1.84.1.519.271.29,1.089.424,1.659a14.682,14.682,0,0,0,5.228,8.359c.1.081.2.164.3.252a2.127,2.127,0,0,1,.173.265" transform="translate(-38.208 -65.676)" fill="#22afd6"/>
    <path id="Trazado_105617" data-name="Trazado 105617" d="M316.2,92.442c.646-.58,1.2-1.04,1.713-1.544a14.1,14.1,0,0,0,4.219-8.407c.068-.514.251-.69.784-.689,2,0,2-.019,2,1.961,0,2.655-.02,5.311.015,7.966.008.606-.182.732-.749.726-2.6-.029-5.2-.013-7.979-.013" transform="translate(-254.294 -65.786)" fill="#22afd6"/>
    <path id="Trazado_105618" data-name="Trazado 105618" d="M277.245,381.437c1.561,0,3.123.017,4.684-.01.483-.008.68.09.678.631-.008,1.539-.427,1.986-1.991,1.99-2.29.007-4.58.022-6.87.023a1.744,1.744,0,0,1-1.814-2.4c.11-.4.4-.257.629-.259,1.561-.013,3.123-.007,4.685-.007v.028" transform="translate(-218.61 -306.719)" fill="#0f1e5a"/>
    <path id="Trazado_105619" data-name="Trazado 105619" d="M184.515,106.225a15.4,15.4,0,0,0,4.831,5.825H179.7a15.4,15.4,0,0,0,4.817-5.825" transform="translate(-144.514 -85.427)" fill="#22afd6"/>
    <path id="Trazado_105620" data-name="Trazado 105620" d="M132.485,172.907q-10.618,0-21.236,0a5.23,5.23,0,0,1-1.087-.071,1.3,1.3,0,0,1-.082-2.5,3.469,3.469,0,0,1,.924-.107q21.47-.007,42.94,0a3.681,3.681,0,0,1,.772.077,1.294,1.294,0,0,1-.062,2.549,6.771,6.771,0,0,1-1.011.052q-10.579,0-21.158,0" transform="translate(-87.79 -136.895)" fill="#020203"/>
    <path id="Trazado_105621" data-name="Trazado 105621" d="M64.693,172.848c-.648,0-1.3.033-1.944-.008a1.284,1.284,0,0,1-1.332-1.248,1.268,1.268,0,0,1,1.277-1.379c1.345-.061,2.7-.06,4.042,0a1.257,1.257,0,0,1,1.287,1.363c-.024.745-.52,1.2-1.386,1.277-.052,0-.1.008-.155.008H64.693v-.012" transform="translate(-49.391 -136.849)" fill="#020203"/>
    <path id="Trazado_105622" data-name="Trazado 105622" d="M115.473,306.338a6.652,6.652,0,1,1-13.3.094,6.652,6.652,0,1,1,13.3-.094m-2.659.025a3.961,3.961,0,0,0-3.961-3.961,4,4,0,0,0-4.019,4,3.99,3.99,0,1,0,7.98-.04" transform="translate(-82.165 -241.036)" fill="#020203"/>
    <path id="Trazado_105623" data-name="Trazado 105623" d="M255.841,51.469a3.8,3.8,0,0,1-3.548-2.371,3.956,3.956,0,0,1,4.8-5.386.841.841,0,0,0,1.007-.27c.661-.7,1.35-1.374,2.039-2.048.732-.716,1.463-.783,2.057-.208s.532,1.375-.2,2.118c-.656.669-1.312,1.34-1.993,1.984a.892.892,0,0,0-.283,1.075,3.954,3.954,0,0,1-3.882,5.105m1.417-3.967a1.357,1.357,0,0,0-1.328-1.341,1.333,1.333,0,0,0-1.314,1.267,1.282,1.282,0,0,0,1.275,1.36,1.312,1.312,0,0,0,1.367-1.286" transform="translate(-202.591 -32.813)" fill="#020203"/>
    <path id="Trazado_105624" data-name="Trazado 105624" d="M234.141,27.12c.46.051.927.088,1.388.156a1.3,1.3,0,0,1,1.238,1.49,1.317,1.317,0,0,1-1.585,1.134,6.606,6.606,0,0,0-3.651.5,6.509,6.509,0,0,0-4,5.512c-.032.231-.029.468-.074.7a1.279,1.279,0,0,1-1.471,1.162,1.294,1.294,0,0,1-1.143-1.424,9.324,9.324,0,0,1,7.892-9.074c.463-.06.928-.1,1.4-.155" transform="translate(-180.821 -21.81)" fill="#020203"/>
    <path id="Trazado_105625" data-name="Trazado 105625" d="M308.571,62.007c-.04.833.333,1.662.019,2.5a1.3,1.3,0,0,1-1.6.6,1.355,1.355,0,0,1-.9-1.4c-.007-.232-.034-.464-.059-.695-.1-.918.162-1.5.79-1.745s1.215,0,1.758.742" transform="translate(-246.089 -49.195)" fill="#020203"/>
    <path id="Trazado_105626" data-name="Trazado 105626" d="M98.724,42.27a5.391,5.391,0,0,0,.368,1.873,1.328,1.328,0,1,1-2.5.86,6.245,6.245,0,0,1-.555-2.733c.052-.866-.69-.9-1.15-1.158-.44-.247-.566.331-.756.579a13.852,13.852,0,0,0-.739,1.281,1.305,1.305,0,0,1-1.75.529,1.292,1.292,0,0,1-.611-1.66,6.555,6.555,0,0,1,1.619-2.549c.6-.56.149-1.074.009-1.565s-.631-.218-.943-.178a11.459,11.459,0,0,0-1.349.377,1.319,1.319,0,1,1-.874-2.489,6.427,6.427,0,0,1,2.879-.6c.834.047.811-.7,1.1-1.117S93.2,33.17,92.978,33a14.589,14.589,0,0,0-1.342-.789,1.28,1.28,0,0,1-.591-1.725,1.3,1.3,0,0,1,1.71-.652,7.793,7.793,0,0,1,2.558,1.615,1.826,1.826,0,0,0,1.711-.046c.136-.138.065-.287.058-.438a8.748,8.748,0,0,0-.425-1.817,1.313,1.313,0,0,1,2.466-.9,6.543,6.543,0,0,1,.637,2.872c-.025.867.681.92,1.14,1.168.413.223.563-.347.762-.6a8.541,8.541,0,0,0,.65-1.151,1.291,1.291,0,0,1,1.749-.7,1.306,1.306,0,0,1,.639,1.836,6.459,6.459,0,0,1-1.607,2.464c-.629.573-.051,1.07.039,1.565.086.474.57.192.857.142.509-.088,1-.267,1.5-.4a1.336,1.336,0,0,1,1.652.805,1.322,1.322,0,0,1-.7,1.641,6.318,6.318,0,0,1-3.014.688c-.877-.047-.877.7-1.151,1.147-.246.4.318.514.545.692a9.575,9.575,0,0,0,1.21.7,1.324,1.324,0,1,1-1.151,2.38,7.209,7.209,0,0,1-2.527-1.659c-.525-.537-.955.072-1.435.073-.339,0-.2.349-.2.357m-.874-8.219a2.62,2.62,0,0,0-2.6,2.653,2.649,2.649,0,0,0,2.688,2.661,2.7,2.7,0,0,0,2.624-2.668,2.669,2.669,0,0,0-2.71-2.645" transform="translate(-71.224 -22.024)" fill="#020203"/>
    <path id="Trazado_105627" data-name="Trazado 105627" d="M123.758,317.384a3.99,3.99,0,1,1-3.961-3.961,3.961,3.961,0,0,1,3.961,3.961" transform="translate(-93.11 -252.057)" fill="#ccd5d9"/>
    <path id="Trazado_105628" data-name="Trazado 105628" d="M268.354,69.52a1.312,1.312,0,0,1-1.367,1.286,1.282,1.282,0,0,1-1.275-1.36,1.333,1.333,0,0,1,1.314-1.267,1.357,1.357,0,0,1,1.328,1.341" transform="translate(-213.687 -54.83)" fill="#0f1e5a"/>
    <path id="Trazado_105629" data-name="Trazado 105629" d="M125.3,61.424a2.669,2.669,0,0,1,2.71,2.645,2.7,2.7,0,0,1-2.624,2.668,2.649,2.649,0,0,1-2.688-2.661,2.62,2.62,0,0,1,2.6-2.653" transform="translate(-98.675 -49.398)" fill="#ccd5d9"/>
  </g>
</svg>
