<svg xmlns="http://www.w3.org/2000/svg" xmlns:xlink="http://www.w3.org/1999/xlink" width="136" height="136" viewBox="0 0 136 136">
  <defs>
    <clipPath id="clip-path">
      <rect id="Rectángulo_37509" data-name="Rectángulo 37509" width="89.851" height="90" fill="none"/>
    </clipPath>
  </defs>
  <g id="Grupo_115738" data-name="Grupo 115738" transform="translate(-732 -1931.25)">
    <g id="Elipse_4511" data-name="Elipse 4511" transform="translate(732 1931.25)" fill="#fff" stroke="#22afd6" stroke-width="2">
      <circle cx="68" cy="68" r="68" stroke="none"/>
      <circle cx="68" cy="68" r="67" fill="none"/>
    </g>
    <g id="Grupo_115666" data-name="Grupo 115666" transform="translate(755.074 1947.25)">
      <g id="Grupo_115665" data-name="Grupo 115665" clip-path="url(#clip-path)">
        <path id="Trazado_171305" data-name="Trazado 171305" d="M74.9,89.852H71.924c0-.373-.011-.746-.011-1.12,0-7.279-.011-14.558.016-21.837,0-.758-.171-1.038-.971-1-1.428.071-2.86.033-4.291.041-2.314-.094-2.314-.094-2.215,2.031-.009.4-.026.81-.026,1.215q-.008,10.334-.012,20.668H61.438c0-.686-.01-1.371-.011-2.057q-.015-8.6-.028-17.2c.009-1.339,0-2.678.037-4.016.017-.56-.222-.674-.72-.669q-3.037.03-6.074,0c-.507-.005-.719.127-.713.677.029,2.834.025,5.668.033,8.5q-.017,7.383-.034,14.767H50.953q-.02-6.447-.039-12.894c.009-3.459.008-6.918.037-10.378,0-.553-.212-.68-.716-.675q-3.039.032-6.078,0c-.508-.006-.716.129-.713.678.026,4.519.027,9.038.036,13.557q-.019,4.855-.037,9.711H40.467q-.022-4.107-.044-8.214c.011-5.019.015-10.037.042-15.056,0-.551-.209-.681-.715-.676q-3.039.032-6.079,0c-.509-.006-.715.13-.713.678Q33,75.235,33,83.885l-.038,5.967H29.982l-.044-4.843c.011-.4.031-.809.031-1.214q0-13.746,0-27.491c0-1.512,0-1.535-1.48-1.236-1.886.382-3.8.672-5.37,1.967a1.542,1.542,0,0,0-.65,1.337c.028,2.4-.013,4.8.019,7.2a4.6,4.6,0,0,1-2.514,4.36.775.775,0,0,0-.5.775q.03,8.275.034,16.55c-.039.971.135,2.021-.974,2.589-4.149.012-8.3.035-12.447.027-1.052,0-1.581-.623-1.583-1.769q-.011-6.458,0-12.917,0-8.986,0-17.972a4.451,4.451,0,0,1,3.977-4.737c.472-.08.524-.239.523-.636C9,46.755,8.982,41.669,9.018,36.583c.006-.8-.459-.635-.89-.625a7.5,7.5,0,1,1-.761-14.968c5.085-.06,10.172-.048,15.257,0a7.48,7.48,0,0,1-.036,14.959c-1.341.025-2.683.022-4.025,0-.431-.008-.588.091-.586.559q.025,7.675,0,15.351c0,.418.073.571.54.62a4.266,4.266,0,0,1,2.829,1.485c.179.2.3.473.665.208,2.1-1.522,4.624-1.754,7.045-2.282,3.315-.723,6.639-1.409,9.964-2.082a3.016,3.016,0,0,0,1.708-.988c.787-.849,1.29-2.031,2.551-2.375.209-.057.164-.232.167-.377.006-.312-.028-.627.007-.936A4.785,4.785,0,0,0,41.4,40.207c-2.913-2.2-4.014-5.531-3.927-9.191.016-.674-.013-1.015-.9-1.154a5.923,5.923,0,0,1-3.957-9.374,1.927,1.927,0,0,0,.364-1.2q-.02-3.65,0-7.3A11.859,11.859,0,0,1,44.958.007C48.733-.006,52.509.018,56.284,0A6.913,6.913,0,0,1,61.7,2.29a.942.942,0,0,0,.978.31,6.516,6.516,0,0,1,7.737,6.622q.026,4.446-.005,8.892a1.082,1.082,0,0,0,.479,1,5.96,5.96,0,0,1-2.664,10.772c-.714.091-.83.307-.815.945a11.754,11.754,0,0,1-5.58,10.747.769.769,0,0,0-.407.747c.022,1.185,0,2.371.015,3.557,0,.19-.135.47.169.557,1.254.358,1.769,1.526,2.551,2.378a3,3,0,0,0,1.708.987c4.451.917,8.9,1.835,13.343,2.805a10.4,10.4,0,0,1,8.275,9.512q1.146,13.423,2.357,26.839c.051.571-.025.892-.669.87a11.669,11.669,0,0,1-2.28.054c-.426-4.734-.861-9.468-1.275-14.2-.4-4.52-.752-9.043-1.159-13.562a7.259,7.259,0,0,0-2.6-5c-1.59-1.367-3.576-1.659-5.524-2.069-1.625-.343-1.416-.356-1.416,1.219Q74.9,73.06,74.9,89.852M70.224,62.884c2.132.082,1.624.147,1.686-1.57a4.5,4.5,0,0,0-.029-.459c.011-1.965-.016-3.932.051-5.9.024-.7-.281-.911-.872-1.03q-2.972-.6-5.933-1.246a.8.8,0,0,0-.894.29c-2.245,2.632-4.531,5.23-6.754,7.879a6.709,6.709,0,0,0-1.554,2.031Zm-17.2-52.39v0H47.038c-2.814,0-4.208,1.127-4.9,3.88a14.921,14.921,0,0,1-1.567,4.763,1.213,1.213,0,0,0-.112.626c0,4.055-.055,8.111.019,12.164a8.842,8.842,0,0,0,7.279,8.341,48.1,48.1,0,0,0,7.564.166,8.923,8.923,0,0,0,9.094-9.04c.017-3.65,0-7.3.008-10.949a2.863,2.863,0,0,0-.217-1.178c-1.174-2.712-2.351-5.422-3.5-8.147a.859.859,0,0,0-.948-.639c-2.245.035-4.492.015-6.737.015M7.5,61.42c0,1.4-.009,2.809,0,4.213.01,1.223.551,1.771,1.773,1.775q4.212.014,8.425,0c1.222,0,1.771-.553,1.776-1.774q.016-4.212,0-8.425c0-1.221-.554-1.766-1.777-1.77q-4.213-.016-8.425,0c-1.222,0-1.76.55-1.771,1.775-.012,1.4,0,2.808,0,4.213M52.6,7.508V7.5c2.182,0,4.363.006,6.545-.008.274,0,.627.155.782-.286A3.128,3.128,0,0,0,58.6,3.561a4.11,4.11,0,0,0-2.138-.57c-3.958,0-7.916-.024-11.874.005a8.826,8.826,0,0,0-8.464,7.221c-.407,2.38-.081,4.789-.186,7.182-.027.6.107.694.774.682,1.236-.023,1.591-.79,1.856-1.7.3-1.044.524-2.112.79-3.167a7.229,7.229,0,0,1,7.251-5.7c1.994-.008,3.989,0,5.984,0M49.073,62.917c-.21-.308-.311-.494-.446-.651q-4.012-4.677-8.027-9.352a.689.689,0,0,0-.739-.255q-3.143.673-6.288,1.336a.655.655,0,0,0-.617.751q.037,3.739,0,7.479c0,.52.153.7.689.7,5.078-.016,10.157-.01,15.426-.01M16.46,23.973c-3.02,0-5.884,0-8.748,0A4.493,4.493,0,1,0,7.7,32.951c2.651.013,5.3.006,7.953,0,.226,0,.482.086.719-.119a7.586,7.586,0,0,1,.093-8.858M16.5,81.641c0-1.495-.016-2.99.009-4.484.009-.526-.09-.787-.706-.78-2.553.03-5.107.021-7.66.006-.474,0-.659.137-.657.636q.026,4.624,0,9.248c0,.5.187.637.659.634,2.553-.016,5.107-.025,7.66.006.619.007.713-.259.7-.782-.025-1.494-.009-2.989-.009-4.484M26.957,28.425a4.476,4.476,0,1,0-4.533,4.515,4.544,4.544,0,0,0,4.533-4.515M46.449,43.185c0,1.2.019,2.445-.011,3.688a.585.585,0,0,0,.489.653q2.569.845,5.132,1.708a1.264,1.264,0,0,0,.824-.014q2.52-.839,5.039-1.68c.258-.087.523-.144.517-.537-.02-1.292-.008-2.586-.008-3.815a59.215,59.215,0,0,1-11.982,0M67.426,13.121c0-1.4.03-2.8-.007-4.2a3.613,3.613,0,0,0-3.568-3.483c-.626,0-.951.176-.953.909a8.964,8.964,0,0,0,.734,4.067c1.045,2.184,1.912,4.452,2.885,6.671.144.328.156.959.683.841.442-.1.21-.641.217-.978.027-1.275.011-2.551.008-3.827M12,47.124V50.3c0,2.191,0,2.167,2.226,2.148.622-.005.788-.2.781-.8-.029-2.49-.012-4.981-.012-7.471,0-2.336,0-2.318-2.319-2.239-.535.018-.694.19-.684.707.026,1.494.009,2.989.009,4.483M7.516,70.266c0,.743.053,1.46-.015,2.167-.071.746.116,1,.931.979,2.207-.067,4.417-.023,6.626-.023,1.418,0,1.418,0,1.418-1.386,0-1.583,0-1.559-1.595-1.588a70.446,70.446,0,0,1-7.366-.149M50.925,57.772c0,2.753.039,2.832,1.1,3.915.316.322.512.344.82,0a3.132,3.132,0,0,0,1.131-2.7,8.492,8.492,0,0,1,0-2.514c.191-1.271-.613-2.008-1.283-2.846-.183-.229-.321-.24-.507,0-.666.84-1.522,1.577-1.276,2.843a6.961,6.961,0,0,1,.013,1.305m-1.031-6.09c-1.924-.639-3.768-1.274-5.628-1.859-.693-.218-.786.566-1.182.852-.308.222-.081.421.083.612,1.1,1.277,2.2,2.551,3.283,3.839.26.309.425.369.7.01.873-1.132,1.776-2.242,2.741-3.454m10.949-1.927c-.173.044-.266.061-.355.09-1.681.559-3.36,1.126-5.045,1.672-.415.134-.371.3-.141.577.789.965,1.59,1.923,2.333,2.923.346.465.537.431.884.012,1.012-1.226,2.067-2.417,3.091-3.633.153-.182.549-.35.226-.678s-.536-.838-.993-.963M37.454,24.039c0-.842-.025-1.685.01-2.526.02-.491-.157-.572-.6-.481a3,3,0,0,0,.049,5.888c.4.071.563,0,.547-.449-.03-.81-.009-1.622-.009-2.432m29.973-.113c0,.838.025,1.676-.01,2.512-.021.5.17.559.6.468a3,3,0,0,0,0-5.874c-.431-.089-.619-.022-.6.474.035.805.009,1.613.01,2.419M13.532,35.972c-1.534,0-1.46,0-1.565,1.994-.059,1.118.557,1,1.254.988,1.974-.034,1.753.2,1.763-1,.017-1.979,0-1.979-1.453-1.979" transform="translate(0 0)" fill="#010101"/>
        <path id="Trazado_171306" data-name="Trazado 171306" d="M299.307,254.228q0-16.792.01-33.584c0-1.575-.209-1.562,1.416-1.219,1.948.411,3.934.7,5.524,2.069a7.256,7.256,0,0,1,2.6,5c.407,4.519.764,9.042,1.16,13.562.414,4.735.849,9.469,1.275,14.2l-5.059-.036c.852-.233.563-.921.533-1.451-.29-5.125-.607-10.248-.911-15.372-.136-2.3-.235-4.6-.4-6.9-.126-1.769-.159-1.767-1.866-1.725a4.08,4.08,0,0,1-.561.007c-.595-.068-.767.214-.716.766.08.867.134,1.736.181,2.606.139,2.548.253,5.1.408,7.645.292,4.813.606,9.624.911,14.436l-4.51-.013" transform="translate(-224.408 -164.376)" fill="#374559"/>
        <path id="Trazado_171307" data-name="Trazado 171307" d="M259.659,263.365c1.431-.008,2.864.029,4.291-.042.8-.04.974.24.971,1-.027,7.279-.017,14.558-.016,21.837,0,.373.007.746.01,1.12h-7.51q.005-10.334.012-20.668c0-.4.017-.81.026-1.215a6.618,6.618,0,0,0,2.215-2.031" transform="translate(-192.992 -197.426)" fill="#374559"/>
        <path id="Trazado_171308" data-name="Trazado 171308" d="M222.976,282.1q.014,8.6.028,17.2c0,.686.007,1.371.011,2.057H215.5q.017-7.384.035-14.767A8.793,8.793,0,0,0,218,285.3c1.677-1.041,3.322-2.135,4.98-3.208" transform="translate(-161.576 -211.505)" fill="#374559"/>
        <path id="Trazado_171309" data-name="Trazado 171309" d="M181.075,307.538q.019,6.447.039,12.893H173.6q.019-4.855.037-9.711a1.4,1.4,0,0,0,.715-.177q3.357-1.508,6.719-3" transform="translate(-130.16 -230.579)" fill="#374559"/>
        <path id="Trazado_171310" data-name="Trazado 171310" d="M92.8,282.833c-1,.3-1.991-.135-2.989-.043-.122-1.058.185-2.1.133-3.153.133-2.018.283-4.035.4-6.055.211-3.761.393-7.523.606-11.283.083-1.459.214-2.916.328-4.373.016-.207-.033-.52.244-.538a8.648,8.648,0,0,1,2.511.085c.349.081.255.462.241.729-.048.963-.121,1.925-.176,2.888-.138,2.455-.262,4.911-.409,7.366-.209,3.477-.434,6.952-.652,10.429l-.233,3.948" transform="translate(-67.313 -192.942)" fill="#010101"/>
        <path id="Trazado_171311" data-name="Trazado 171311" d="M312.812,282.8c-.3-4.812-.619-9.623-.911-14.435-.155-2.547-.268-5.1-.407-7.646-.048-.869-.1-1.739-.181-2.606-.051-.552.122-.835.716-.766a4.084,4.084,0,0,0,.561-.007c1.707-.042,1.74-.044,1.866,1.725.163,2.3.262,4.6.4,6.9.3,5.124.621,10.247.912,15.372.03.53.319,1.218-.533,1.451l-2.421.016" transform="translate(-233.403 -192.936)" fill="#010101"/>
        <path id="Trazado_171312" data-name="Trazado 171312" d="M131.7,334.453l.038-5.966a48.441,48.441,0,0,0,5.389-1.676,5.869,5.869,0,0,1,2.039-.572q.022,4.107.044,8.214H131.7" transform="translate(-98.745 -244.601)" fill="#374559"/>
        <path id="Trazado_171313" data-name="Trazado 171313" d="M101.839,344.589q.117-1.974.233-3.948c1.44-.16,2.752-.9,4.221-.935l.044,4.843-4.5.039" transform="translate(-76.355 -254.698)" fill="#374559"/>
        <path id="Trazado_171314" data-name="Trazado 171314" d="M78.173,346.445c.052,1.055-.255,2.1-.133,3.153l-3.957,0c1.109-.568.936-1.618.974-2.589a17.3,17.3,0,0,0,3.115-.562" transform="translate(-55.545 -259.75)" fill="#374559"/>
        <path id="Trazado_171315" data-name="Trazado 171315" d="M174.195,41.891c2.246,0,4.492.02,6.737-.015a.859.859,0,0,1,.948.639c1.144,2.724,2.321,5.435,3.5,8.147a2.863,2.863,0,0,1,.217,1.178c-.008,3.65.009,7.3-.008,10.949a8.923,8.923,0,0,1-9.094,9.04,48.1,48.1,0,0,1-7.564-.166,8.842,8.842,0,0,1-7.279-8.341c-.074-4.054-.022-8.11-.019-12.165a1.213,1.213,0,0,1,.112-.626,14.921,14.921,0,0,0,1.567-4.763c.69-2.753,2.084-3.879,4.9-3.88h5.989Zm-2.147,22.466a20.094,20.094,0,0,0,4.458-.4c2.074-.381,2.073-.388,1.466-2.366-.055-.178-.116-.356-.153-.538-.08-.389-.256-.468-.657-.356a20.63,20.63,0,0,1-5.822.672c-2.263-.024-2.244-.006-2.239,2.267,0,.547.093.793.705.736.649-.06,1.308-.013,2.242-.013m8.283-14.982a2.25,2.25,0,1,0,2.267,2.206,2.215,2.215,0,0,0-2.267-2.206m-11.218,2.278a2.246,2.246,0,1,0-2.279,2.218,2.216,2.216,0,0,0,2.279-2.218" transform="translate(-121.167 -31.397)" fill="#fcc8a2"/>
        <path id="Trazado_171316" data-name="Trazado 171316" d="M80.992,251.233a17.3,17.3,0,0,1-3.115.562q-.013-8.275-.034-16.55a.776.776,0,0,1,.5-.776,4.6,4.6,0,0,0,2.514-4.36c-.032-2.4.009-4.8-.019-7.2a1.542,1.542,0,0,1,.65-1.337c1.568-1.294,3.484-1.585,5.37-1.967,1.475-.3,1.48-.276,1.48,1.236q0,13.746,0,27.491c0,.4-.02.809-.031,1.214-1.468.035-2.781.775-4.221.935.219-3.476.444-6.952.653-10.429.148-2.455.271-4.911.409-7.366.054-.963.127-1.925.176-2.888.013-.267.108-.647-.241-.728a8.641,8.641,0,0,0-2.511-.085c-.277.018-.228.331-.244.538-.114,1.457-.245,2.914-.328,4.373-.213,3.761-.395,7.523-.606,11.284-.114,2.019-.263,4.036-.4,6.054" transform="translate(-58.363 -164.538)" fill="#3d4d63"/>
        <path id="Trazado_171317" data-name="Trazado 171317" d="M29.973,227.486c0-1.4-.009-2.808,0-4.213.01-1.225.549-1.771,1.77-1.775q4.213-.014,8.425,0c1.224,0,1.773.549,1.777,1.77q.016,4.213,0,8.425c0,1.221-.554,1.769-1.775,1.774q-4.213.017-8.425,0c-1.221,0-1.762-.553-1.772-1.775-.012-1.4,0-2.808,0-4.213" transform="translate(-22.47 -166.065)" fill="#fcc8a2"/>
        <path id="Trazado_171318" data-name="Trazado 171318" d="M160.214,16.445c-1.995,0-3.989-.007-5.984,0a7.229,7.229,0,0,0-7.251,5.7c-.266,1.055-.487,2.123-.79,3.167-.265.914-.62,1.682-1.856,1.7-.667.012-.8-.078-.774-.682.1-2.393-.221-4.8.186-7.181a8.826,8.826,0,0,1,8.464-7.221c3.958-.029,7.916,0,11.874-.005a4.111,4.111,0,0,1,2.138.57,3.128,3.128,0,0,1,1.319,3.649c-.155.441-.507.284-.782.286-2.181.014-4.363.008-6.545.008Z" transform="translate(-107.616 -8.936)" fill="#79422a"/>
        <path id="Trazado_171319" data-name="Trazado 171319" d="M139.173,279.1a5.87,5.87,0,0,0-2.039.572,48.5,48.5,0,0,1-5.389,1.676q-.014-8.651-.037-17.3c0-.549.2-.684.713-.678q3.039.032,6.079,0c.506-.005.718.124.715.676-.028,5.019-.032,10.037-.042,15.056" transform="translate(-98.75 -197.464)" fill="#3d4d63"/>
        <path id="Trazado_171320" data-name="Trazado 171320" d="M147.817,220.624c-5.268,0-10.347-.007-15.426.01-.536,0-.693-.182-.689-.7q.031-3.739,0-7.479a.656.656,0,0,1,.617-.751q3.145-.662,6.288-1.336a.689.689,0,0,1,.739.255q4.008,4.681,8.027,9.352c.135.157.236.343.446.651" transform="translate(-98.744 -157.707)" fill="#3d4d63"/>
        <path id="Trazado_171321" data-name="Trazado 171321" d="M237.782,220.635h-14.3a6.709,6.709,0,0,1,1.554-2.031c2.224-2.65,4.509-5.247,6.754-7.879a.8.8,0,0,1,.894-.29q2.962.643,5.933,1.246c.591.119.9.326.872,1.03-.067,1.963-.04,3.93-.051,5.9a4.059,4.059,0,0,0-1.657,2.029" transform="translate(-167.558 -157.751)" fill="#3d4d63"/>
        <path id="Trazado_171322" data-name="Trazado 171322" d="M25.483,95.794a7.586,7.586,0,0,0-.093,8.858c-.237.2-.493.118-.719.119-2.651.008-5.3.015-7.953,0a4.493,4.493,0,1,1,.016-8.977c2.864-.006,5.729,0,8.748,0" transform="translate(-9.022 -71.821)" fill="#79422a"/>
        <path id="Trazado_171323" data-name="Trazado 171323" d="M181.079,274.423q-3.36,1.5-6.719,3a1.4,1.4,0,0,1-.715.177c-.008-4.519-.01-9.038-.036-13.557,0-.549.205-.683.713-.678q3.039.032,6.078,0c.5-.005.721.121.716.674-.029,3.459-.028,6.918-.037,10.378" transform="translate(-130.165 -197.464)" fill="#3d4d63"/>
        <path id="Trazado_171324" data-name="Trazado 171324" d="M38.926,310.48c0,1.495-.016,2.99.009,4.484.009.523-.086.789-.7.781-2.553-.03-5.107-.021-7.66-.005-.471,0-.661-.133-.659-.634q.026-4.624,0-9.248c0-.5.183-.639.657-.636,2.553.016,5.107.025,7.66-.005.616-.008.715.254.706.78-.025,1.494-.009,2.989-.009,4.484" transform="translate(-22.427 -228.839)" fill="#3d4d63"/>
        <path id="Trazado_171325" data-name="Trazado 171325" d="M80.907,100.3a4.476,4.476,0,1,1-4.413-4.436,4.546,4.546,0,0,1,4.413,4.436" transform="translate(-53.949 -71.876)" fill="#79422a"/>
        <path id="Trazado_171326" data-name="Trazado 171326" d="M185.583,172.573a59.214,59.214,0,0,0,11.982,0c0,1.229-.013,2.522.008,3.815.006.393-.258.45-.517.537q-2.518.845-5.039,1.68a1.264,1.264,0,0,1-.824.014q-2.564-.858-5.132-1.708a.585.585,0,0,1-.49-.653c.03-1.243.011-2.487.011-3.688" transform="translate(-139.134 -129.388)" fill="#fcc8a2"/>
        <path id="Trazado_171327" data-name="Trazado 171327" d="M222.981,268.057c-1.658,1.073-3.3,2.167-4.98,3.208a8.793,8.793,0,0,1-2.458,1.285c-.008-2.834,0-5.668-.033-8.5-.006-.549.206-.682.713-.677q3.036.032,6.073,0c.5,0,.737.11.721.669-.04,1.338-.028,2.678-.037,4.016" transform="translate(-161.581 -197.464)" fill="#3d4d63"/>
        <path id="Trazado_171328" data-name="Trazado 171328" d="M255.878,29.417c0,1.276.017,2.551-.01,3.827-.007.338.224.879-.217.978-.527.118-.539-.513-.683-.841-.974-2.219-1.84-4.487-2.886-6.671a8.971,8.971,0,0,1-.734-4.067c0-.733.327-.908.953-.909a3.614,3.614,0,0,1,3.568,3.483c.037,1.4.007,2.8.008,4.2" transform="translate(-188.451 -16.295)" fill="#79422a"/>
        <path id="Trazado_171329" data-name="Trazado 171329" d="M47.913,172.695c0-1.494.017-2.989-.009-4.483-.009-.517.15-.689.684-.707,2.32-.079,2.32-.1,2.32,2.239,0,2.49-.017,4.981.012,7.471.007.6-.159.8-.781.8-2.226.019-2.226.043-2.226-2.148v-3.175" transform="translate(-35.916 -125.57)" fill="#79422a"/>
        <path id="Trazado_171330" data-name="Trazado 171330" d="M29.952,280.8a70.387,70.387,0,0,0,7.366.149c1.594.03,1.595.006,1.595,1.588,0,1.386,0,1.386-1.418,1.386-2.209,0-4.419-.044-6.626.023-.815.025-1-.233-.931-.979.067-.706.014-1.424.014-2.167" transform="translate(-22.436 -210.53)" fill="#fefefe"/>
        <path id="Trazado_171331" data-name="Trazado 171331" d="M203.337,217.922a6.983,6.983,0,0,0-.013-1.305c-.246-1.267.61-2,1.276-2.843.187-.235.324-.225.507,0,.67.838,1.473,1.575,1.283,2.846a8.492,8.492,0,0,0,0,2.514,3.133,3.133,0,0,1-1.132,2.7c-.308.34-.5.318-.819,0-1.065-1.083-1.1-1.162-1.1-3.915" transform="translate(-152.412 -160.15)" fill="#3d4d63"/>
        <path id="Trazado_171332" data-name="Trazado 171332" d="M178.522,200.847c-.965,1.211-1.868,2.321-2.741,3.454-.278.36-.442.3-.7-.01-1.084-1.288-2.186-2.562-3.283-3.839-.164-.191-.391-.39-.083-.612.4-.286.489-1.07,1.182-.852,1.86.585,3.7,1.22,5.628,1.859" transform="translate(-128.628 -149.165)" fill="#fefefe"/>
        <path id="Trazado_171333" data-name="Trazado 171333" d="M226.019,198.831c.458.125.659.624.993.963s-.073.5-.226.678c-1.024,1.217-2.079,2.407-3.091,3.633-.347.42-.537.454-.884-.012-.744-1-1.544-1.958-2.333-2.923-.23-.281-.274-.443.141-.577,1.685-.546,3.364-1.114,5.045-1.672.089-.029.181-.047.355-.09" transform="translate(-165.176 -149.075)" fill="#fefefe"/>
        <path id="Trazado_171334" data-name="Trazado 171334" d="M140.742,86.959c0,.811-.022,1.623.009,2.432.017.445-.148.52-.547.449a3,3,0,0,1-.049-5.888c.44-.091.617-.011.6.481-.035.841-.01,1.684-.01,2.526" transform="translate(-103.288 -62.919)" fill="#fcc8a2"/>
        <path id="Trazado_171335" data-name="Trazado 171335" d="M269.414,86.847c0-.807.026-1.614-.01-2.419-.022-.495.166-.563.6-.474a3,3,0,0,1,0,5.874c-.429.091-.62.03-.6-.468.035-.836.01-1.675.01-2.512" transform="translate(-201.987 -62.92)" fill="#fcc8a2"/>
        <path id="Trazado_171336" data-name="Trazado 171336" d="M49.379,143.749c1.455,0,1.47,0,1.453,1.979-.01,1.207.211.969-1.763,1-.7.012-1.313.13-1.254-.988.1-1.99.031-1.994,1.565-1.994" transform="translate(-35.846 -107.777)" fill="#79422a"/>
        <path id="Trazado_171337" data-name="Trazado 171337" d="M259.681,263.411a6.618,6.618,0,0,1-2.215,2.031c-.1-2.125-.1-2.125,2.215-2.031" transform="translate(-193.014 -197.472)" fill="#3d4d63"/>
        <path id="Trazado_171338" data-name="Trazado 171338" d="M280.625,245.216a4.059,4.059,0,0,1,1.657-2.029,4.5,4.5,0,0,1,.029.459c-.062,1.717.446,1.652-1.686,1.57" transform="translate(-210.401 -182.332)" fill="#374559"/>
        <path id="Trazado_171339" data-name="Trazado 171339" d="M194.492,120.6c-.935,0-1.594-.046-2.242.013-.612.056-.7-.19-.705-.736-.006-2.273-.024-2.292,2.239-2.268a20.628,20.628,0,0,0,5.822-.671c.4-.112.578-.033.658.355.037.182.1.36.153.538.607,1.977.609,1.985-1.466,2.366a20.076,20.076,0,0,1-4.458.4" transform="translate(-143.611 -87.641)" fill="#010101"/>
        <path id="Trazado_171340" data-name="Trazado 171340" d="M229.748,71.842a2.25,2.25,0,1,1-2.228,2.244,2.218,2.218,0,0,1,2.228-2.244" transform="translate(-170.585 -53.864)" fill="#010101"/>
        <path id="Trazado_171341" data-name="Trazado 171341" d="M178.137,74.129a2.246,2.246,0,1,1-2.218-2.275,2.223,2.223,0,0,1,2.218,2.275" transform="translate(-130.191 -53.873)" fill="#010101"/>
      </g>
    </g>
  </g>
</svg>
