<svg id="Grupo_111309" data-name="Grupo 111309" xmlns="http://www.w3.org/2000/svg" xmlns:xlink="http://www.w3.org/1999/xlink" width="54" height="46.739" viewBox="0 0 54 46.739">
  <defs>
    <clipPath id="clip-path">
      <rect id="Rectángulo_37245" data-name="Rectángulo 37245" width="54" height="46.739" fill="#22afd6"/>
    </clipPath>
  </defs>
  <g id="Grupo_111308" data-name="Grupo 111308" clip-path="url(#clip-path)">
    <path id="Trazado_105588" data-name="Trazado 105588" d="M54,2.224c-.2.1-.134.31-.17.464A7.814,7.814,0,0,1,46.1,8.894q-3.769.016-7.539-.007c-.384,0-.507.077-.5.484.029,1.3.033,2.6,0,3.9-.012.428.139.471.5.471a24.666,24.666,0,0,1,3.212.049,4.6,4.6,0,0,1,4.105,3.554c1.774,6.29,3.515,12.589,5.265,18.886.544,1.958,1.127,3.908,1.6,5.883a3.564,3.564,0,0,1-3.669,4.614q-21.59.016-43.179,0a3.608,3.608,0,0,1-3.639-4.821c.623-2.372,1.3-4.73,1.963-7.093.193-.689.536-.9,1.35-.865.721.406.861.727.654,1.507-.09.339-.188.676-.28,1.014-.557,2.029-1.134,4.053-1.664,6.089a1.477,1.477,0,0,0,1.377,2.055c.174.016.351.008.527.008h42.6c1.687,0,2.251-.73,1.838-2.378-.009-.034-.013-.069-.022-.1Q47.254,30.109,43.9,18.074a2.713,2.713,0,0,0-2.959-2.229q-13.446,0-26.891,0a2.742,2.742,0,0,0-2.989,2.263Q9.868,22.363,8.681,26.62c-.225.8-.575,1.03-1.383.943a1.072,1.072,0,0,1-.654-1.46c.81-2.94,1.609-5.883,2.452-8.813a4.765,4.765,0,0,1,4.63-3.548c.755-.022,1.512-.025,2.267,0,.34.012.4-.106.4-.417-.016-1.336-.022-2.672,0-4.007.007-.371-.128-.43-.455-.429-2.707.011-5.414.022-8.12,0A7.839,7.839,0,0,1,0,1.356C-.021.4.356.01,1.319.01Q27,.009,52.679,0A1.372,1.372,0,0,1,54,.748ZM27,2.119H2.9c-.123,0-.247.009-.369,0-.245-.021-.349.025-.263.316a6.083,6.083,0,0,0,.465,1.226A5.753,5.753,0,0,0,8.173,6.8Q27,6.784,45.82,6.793c.193,0,.387-.006.58-.014A5.721,5.721,0,0,0,51.64,2.74c.191-.62.191-.621-.438-.621H27m.214,11.615c1.317,0,2.634-.007,3.951.006.282,0,.394-.051.39-.366q-.026-2.054,0-4.109c0-.312-.1-.376-.393-.374-2.617.01-5.233.014-7.849,0-.374,0-.424.138-.421.458.015,1.317.023,2.634,0,3.951-.008.4.137.45.481.445,1.282-.019,2.564-.008,3.846-.008m8.751-2.388c0-.7-.006-1.405,0-2.108,0-.229-.034-.359-.311-.35-.561.018-1.124.016-1.686,0-.265-.007-.322.108-.321.346.008,1.387.012,2.775,0,4.162,0,.3.12.348.374.341.526-.014,1.055-.023,1.58,0,.317.015.375-.113.368-.394-.017-.667-.005-1.335-.006-2M20.79,11.317c0-.666-.021-1.332.008-2,.016-.361-.114-.45-.448-.433a12.872,12.872,0,0,1-1.418,0c-.343-.02-.456.086-.452.438.018,1.331.016,2.663,0,3.994,0,.309.066.442.4.424.507-.027,1.016-.022,1.523,0,.291.012.4-.067.389-.375-.022-.682-.007-1.366-.007-2.049" transform="translate(0.001 0)" fill="#020201"/>
    <path id="Trazado_105589" data-name="Trazado 105589" d="M42.819,161.585c.808.088,1.157-.141,1.383-.943q1.2-4.254,2.379-8.511a2.742,2.742,0,0,1,2.989-2.263q13.446,0,26.891,0A2.713,2.713,0,0,1,79.42,152.1q3.36,12.033,6.705,24.07c.009.034.014.069.022.1.413,1.648-.151,2.378-1.838,2.378h-42.6c-.176,0-.352.008-.527-.008a1.477,1.477,0,0,1-1.377-2.055c.53-2.036,1.106-4.06,1.664-6.089.093-.338.191-.675.28-1.014.207-.78.066-1.1-.654-1.507l.47-1.872c.844-.052,1.211-.274,1.346-.814s-.048-.9-.683-1.316l.594-2.387m32.493,2.724a12.307,12.307,0,1,0-12.391,12.249,12.308,12.308,0,0,0,12.391-12.249" transform="translate(-35.519 -134.022)" fill="#22afd6"/>
    <path id="Trazado_105590" data-name="Trazado 105590" d="M51.751,283.26c.635.415.819.771.683,1.316s-.5.762-1.346.814c-.107-.085-.217-.168-.322-.256a1.013,1.013,0,0,1-.325-1.18.971.971,0,0,1,.945-.7c.122,0,.244,0,.365,0" transform="translate(-45.046 -253.31)" fill="#030302"/>
    <path id="Trazado_105591" data-name="Trazado 105591" d="M45.965,19.994h24.2c.63,0,.63,0,.438.621a5.721,5.721,0,0,1-5.24,4.038c-.193.008-.386.014-.58.014q-18.824,0-37.647,0A5.753,5.753,0,0,1,21.7,21.534a6.085,6.085,0,0,1-.465-1.226c-.086-.29.019-.336.263-.316.122.01.246,0,.369,0Z" transform="translate(-18.964 -17.875)" fill="#22afd6"/>
    <path id="Trazado_105592" data-name="Trazado 105592" d="M320.589,86.531c0,.667-.012,1.335.006,2,.007.281-.051.409-.368.394-.526-.025-1.054-.016-1.58,0-.254.007-.377-.044-.374-.341.014-1.387.01-2.775,0-4.162,0-.239.056-.353.321-.346.562.015,1.124.017,1.686,0,.278-.009.314.121.311.35-.009.7,0,1.405,0,2.108" transform="translate(-284.623 -75.185)" fill="#dbd8b2"/>
    <path id="Trazado_105593" data-name="Trazado 105593" d="M177.118,86.472c0,.683-.015,1.367.007,2.049.01.308-.1.387-.389.375-.507-.021-1.017-.026-1.523,0-.338.018-.407-.115-.4-.424.015-1.331.017-2.663,0-3.994,0-.352.109-.458.452-.438a12.875,12.875,0,0,0,1.418,0c.334-.017.464.072.448.433-.029.664-.008,1.331-.008,2" transform="translate(-156.328 -75.155)" fill="#dbd8b2"/>
    <path id="Trazado_105594" data-name="Trazado 105594" d="M168.184,182.036a12.308,12.308,0,1,1-12.142-12.346,12.288,12.288,0,0,1,12.142,12.346M148,175.518a10.194,10.194,0,0,0-2.226,5.015c-.05.341.045.438.375.413a5.121,5.121,0,0,1,.895.015,1.03,1.03,0,0,1,.106,2.037,2.946,2.946,0,0,1-.89.042c-.488-.061-.544.15-.471.56a10.4,10.4,0,0,0,1.533,3.94c.589.9.588.9,1.33.176.038-.037.074-.075.113-.111a1.069,1.069,0,0,1,1.513-.049,1.05,1.05,0,0,1-.04,1.548c-.251.262-.54.489-.839.756A10.379,10.379,0,0,0,153.915,192c.918.189.916.2.918-.706,0-.088,0-.176,0-.264a1.065,1.065,0,0,1,1.04-1.15,1.076,1.076,0,0,1,1.063,1.139c.013.281.009.562,0,.843-.005.206.061.264.279.235a10.115,10.115,0,0,0,4.852-2c.183-.138.222-.229.036-.4a7.5,7.5,0,0,1-.668-.673,1.046,1.046,0,0,1,1.481-1.477,6.759,6.759,0,0,1,.674.666c.168.191.258.144.394-.035A10.3,10.3,0,0,0,166,183.325c.032-.225-.039-.275-.24-.277a7.711,7.711,0,0,1-1.155-.05.985.985,0,0,1-.822-1.061,1,1,0,0,1,.925-.976,6.386,6.386,0,0,1,.947-.016c.3.016.376-.057.329-.384a10.261,10.261,0,0,0-1.775-4.451c-.392-.561-.4-.558-.863-.092-.137.136-.267.28-.413.406a1.047,1.047,0,0,1-1.475-1.487c.21-.236.44-.454.668-.674.12-.115.169-.2,0-.326a10.074,10.074,0,0,0-4.89-2.044c-.236-.031-.3.04-.3.273a4.22,4.22,0,0,1-.052,1.154,1.047,1.047,0,0,1-1.053.784,1.036,1.036,0,0,1-.979-.931,4.336,4.336,0,0,1-.011-.842c.037-.377-.088-.488-.466-.427a10.36,10.36,0,0,0-4.979,2.227c.314.276.626.51.888.791a1.046,1.046,0,1,1-1.477,1.481c-.282-.261-.52-.57-.8-.884" transform="translate(-128.391 -151.749)" fill="#030302"/>
    <path id="Trazado_105595" data-name="Trazado 105595" d="M166.578,194.1c.282.314.52.624.8.884a1.046,1.046,0,1,0,1.477-1.481c-.262-.28-.574-.514-.889-.791a10.36,10.36,0,0,1,4.979-2.227c.378-.061.5.05.466.427a4.334,4.334,0,0,0,.011.842,1.036,1.036,0,0,0,.979.931,1.047,1.047,0,0,0,1.053-.784,4.215,4.215,0,0,0,.052-1.154c0-.233.068-.3.3-.273a10.074,10.074,0,0,1,4.89,2.044c.167.128.118.211,0,.326-.228.219-.457.438-.668.674A1.047,1.047,0,0,0,181.509,195c.146-.126.277-.27.413-.406.467-.466.471-.469.863.092a10.259,10.259,0,0,1,1.775,4.451c.048.326-.026.4-.329.384a6.381,6.381,0,0,0-.947.016,1,1,0,0,0-.925.976.985.985,0,0,0,.822,1.061,7.71,7.71,0,0,0,1.154.05c.2,0,.272.052.24.277a10.3,10.3,0,0,1-2.014,4.851c-.136.179-.226.226-.394.035a6.752,6.752,0,0,0-.674-.666,1.046,1.046,0,0,0-1.481,1.477,7.487,7.487,0,0,0,.668.673c.186.166.146.258-.036.4a10.115,10.115,0,0,1-4.852,2c-.219.029-.285-.029-.279-.235.007-.281.012-.563,0-.843a1.076,1.076,0,0,0-1.063-1.139,1.065,1.065,0,0,0-1.04,1.15c0,.088,0,.176,0,.264,0,.9,0,.894-.918.706a10.38,10.38,0,0,1-4.512-2.134c.3-.267.588-.494.839-.756a1.05,1.05,0,0,0,.04-1.549,1.069,1.069,0,0,0-1.513.049c-.039.035-.075.074-.113.111-.742.724-.741.723-1.331-.176a10.4,10.4,0,0,1-1.533-3.94c-.073-.41-.017-.621.471-.56a2.945,2.945,0,0,0,.89-.042,1.03,1.03,0,0,0-.106-2.037,5.12,5.12,0,0,0-.895-.015c-.33.025-.425-.073-.375-.413a10.193,10.193,0,0,1,2.226-5.015m4.935,6.217a3.013,3.013,0,0,0,3.58,3.191,3.022,3.022,0,0,0,.793-5.55.614.614,0,0,1-.38-.65,8.012,8.012,0,0,0-.027-1.366,1.034,1.034,0,0,0-2.061.092,12.705,12.705,0,0,0,0,1.316.53.53,0,0,1-.328.568,2.825,2.825,0,0,0-1.572,2.4" transform="translate(-146.966 -170.329)" fill="#f7f9e9"/>
    <path id="Trazado_105596" data-name="Trazado 105596" d="M232.192,238.9a2.825,2.825,0,0,1,1.572-2.4.53.53,0,0,0,.328-.568,12.663,12.663,0,0,1,0-1.316,1.034,1.034,0,0,1,2.061-.092,8.011,8.011,0,0,1,.027,1.366.614.614,0,0,0,.38.65,3.022,3.022,0,0,1-.793,5.55,3.013,3.013,0,0,1-3.58-3.192m2.964,1.14a.867.867,0,0,0,.8-.923.879.879,0,0,0-.828-.855.853.853,0,0,0-.818.906.831.831,0,0,0,.841.873" transform="translate(-207.644 -208.917)" fill="#030302"/>
    <path id="Trazado_105597" data-name="Trazado 105597" d="M253.114,279.36a.831.831,0,0,1-.841-.873.853.853,0,0,1,.818-.905.879.879,0,0,1,.828.855.867.867,0,0,1-.8.923" transform="translate(-225.602 -248.236)" fill="#f8bb57"/>
  </g>
</svg>
